<?xml version="1.0" encoding="utf-8"?>
<!-- Generator: Adobe Illustrator 16.0.0, SVG Export Plug-In . SVG Version: 6.00 Build 0)  -->
<!DOCTYPE svg PUBLIC "-//W3C//DTD SVG 1.1//EN" "http://www.w3.org/Graphics/SVG/1.1/DTD/svg11.dtd">
<svg version="1.1" id="Layer_1" xmlns="http://www.w3.org/2000/svg" xmlns:xlink="http://www.w3.org/1999/xlink" x="0px" y="0px"
	 width="65.537px" height="65.551px" viewBox="18.528 2.225 65.537 65.551" enable-background="new 18.528 2.225 65.537 65.551"
	 xml:space="preserve">
<polygon points="56.219,2.225 46.374,2.225 47.732,14.993 54.861,14.993 "/>
<path d="M51.297,67.775c-10.519,0-19.648-7.828-21.235-18.211c-0.164-1.076-0.247-2.176-0.247-3.271
	c0-8.655,5.109-16.369,13.049-19.757c0.224-0.422,0.361-0.877,0.361-1.219V14.51c0-0.388-0.328-0.716-0.716-0.716h-0.25
	c-1.621,0-2.938-1.318-2.938-2.938V7.721c0-1.621,1.318-2.939,2.938-2.939h18.075c1.62,0,2.938,1.318,2.938,2.939v3.135
	c0,1.621-1.317,2.938-2.938,2.938h-0.25c-0.389,0-0.717,0.328-0.717,0.716v10.808c0,0.343,0.139,0.797,0.361,1.219
	c7.941,3.387,13.049,11.102,13.049,19.757C72.777,58.139,63.142,67.775,51.297,67.775z M42.259,7.004
	c-0.388,0-0.716,0.328-0.716,0.717v3.135c0,0.388,0.328,0.716,0.716,0.716h0.25c1.621,0,2.938,1.318,2.938,2.938v10.808
	c0,0.846-0.33,1.858-0.884,2.709l-0.19,0.292L44.05,28.45c-7.297,2.967-12.013,9.971-12.013,17.844c0,0.982,0.075,1.97,0.222,2.935
	c1.422,9.306,9.606,16.324,19.038,16.324c10.619,0,19.259-8.639,19.259-19.259c0-7.873-4.716-14.877-12.013-17.844l-0.322-0.131
	l-0.19-0.292c-0.554-0.851-0.886-1.864-0.886-2.71V14.51c0-1.621,1.318-2.938,2.939-2.938h0.25c0.388,0,0.716-0.328,0.716-0.716
	V7.72c0-0.388-0.328-0.717-0.716-0.717L42.259,7.004L42.259,7.004z"/>
<path d="M67.189,39.707c-0.244-0.056-0.455-0.122-0.615-0.202c-0.675-0.338-1.451-0.811-2.561-1.175
	c1.044,1.803,1.719,3.857,1.914,6.069c0.128,1.451-0.124,3.288-0.465,4.059c-0.417,0.941-1.389,1.682-2.229,1.405
	c-1.36-0.448-1.229-1.868-1.229-1.868c0.225-1.046,0.299-2.145,0.199-3.267c-0.239-2.716-1.453-5.11-3.264-6.877
	c-1.97,0.154-4.453,0.638-7.643,1.654c-8.598,2.74-15.114-0.077-15.733-0.162c-0.007,0.016-0.015,0.032-0.021,0.047
	c0.026,0.026,0.068,0.063,0.138,0.115c0.221,0.167,0.071,0.278-0.333,0.349c-0.804,1.99-1.251,4.163-1.251,6.441
	c0,9.5,7.701,17.202,17.202,17.202c9.5,0,17.201-7.701,17.201-17.202C68.498,43.96,68.03,41.735,67.189,39.707z"/>
</svg>
