<?xml version="1.0" encoding="utf-8"?>
<!-- Generator: Adobe Illustrator 19.1.0, SVG Export Plug-In . SVG Version: 6.00 Build 0)  -->
<svg version="1.1" id="Layer_1" xmlns="http://www.w3.org/2000/svg" xmlns:xlink="http://www.w3.org/1999/xlink" x="0px" y="0px"
	 viewBox="0 0 220.2 54.3" style="enable-background:new 0 0 220.2 54.3;" xml:space="preserve">
<style type="text/css">
	.st0{display:none;fill:#010101;stroke:#000000;stroke-width:2;stroke-miterlimit:10;}
	.st1{display:none;fill:#010101;stroke:#000000;stroke-width:1.2;stroke-miterlimit:10;}
	.st2{display:none;fill:#010101;}
	.st3{font-family:'MinionPro-Regular';}
	.st4{font-size:12px;}
	.st5{clip-path:url(#SVGID_2_);}
	.st6{clip-path:url(#SVGID_4_);fill:#231F20;}
	.st7{clip-path:url(#SVGID_4_);}
</style>
<g id="Expedition_v4_-_O">
	<path d="M31.2,33.6c0,0.3,0.4,0.4,1.3,0.5l0.6,0V36h-6.5v-1.9c1.2,0,2.2-0.6,2.9-1.7l0.8-1.2l5.4-7.1l-6.1-8.9
		c-0.6-0.8-1.5-1.2-2.9-1.3V12h11.2v1.9l-1.1,0c-0.7,0-1,0.2-1,0.5c0,0.3,0.4,1.1,1.3,2.3l3,4.4 M45.5,14.5c0-0.3-0.2-0.5-0.7-0.5
		l-1,0V12h6.6v1.9c-1.4,0.1-2.6,1.1-3.8,2.9l-5,6.5l6.5,9.3c0.7,0.9,1.4,1.3,2.3,1.4V36H39.7v-1.9l0.8,0c0.9,0,1.3-0.2,1.3-0.6
		c0-0.3-0.4-1-1.3-2.3L37,26.1"/>
	<path d="M60.2,26.4V30c0,1.5,0,2.4,0.1,2.5c0.2,0.8,0.7,1.3,1.7,1.4c0.8,0.1,1.3,0.1,1.5,0.1V36H51.4v-1.9c1.8,0,2.7-0.6,2.7-1.7
		l0.1-2.4l-0.1-14.4c0-1-0.9-1.5-2.7-1.7V12h11.8c6.4,0,9.6,2.2,9.6,6.5c0,5.3-3.8,7.9-11.4,7.9H60.2z M60.2,24.5h1
		c3.7,0,5.5-1.9,5.5-5.7c0-3.2-1.7-4.8-5.1-4.8l-1.5,0V24.5z"/>
	<path d="M74,36v-1.9c1.8,0,2.7-0.6,2.7-1.7l0.1-2.4l-0.1-14.4c0-1.1-0.9-1.7-2.7-1.7V12h18.6v5.3h-1.9v-0.5v-1.4
		c0-1-0.9-1.5-2.6-1.5l-5.2,0v8.3h2.9l1.5-0.1c0.7,0,1.1-0.5,1.1-1.4v-0.7h1.9v6h-1.9v-0.7c0-0.8-0.4-1.2-1.1-1.3L85.7,24h-2.9v6
		c0,1.8,0.1,2.9,0.3,3.2c0.3,0.6,1.3,0.9,2.9,0.9h1.4l2.2-0.1c0.8,0,1.2-0.3,1.4-1c0-0.1,0-0.8,0-2v-0.6h2.2V36H74z"/>
	<path d="M95.1,36v-1.9c1.8,0,2.7-0.6,2.7-1.7l0.1-2.4l-0.1-14.4c0-1.1-0.9-1.7-2.7-1.7V12h12.7c3.2,0,5.6,1.2,7.3,3.5
		c1.5,2.1,2.2,4.8,2.2,8.1c0,3.4-0.7,6.2-2.2,8.4c-1.7,2.7-4.2,4-7.3,4H95.1z M104,13.9v17c0,1.3,0.1,2,0.2,2.3
		c0.2,0.5,0.9,0.8,1.9,0.8c3.2,0,4.8-3.6,4.8-10.7c0-6.3-1.9-9.4-5.6-9.4L104,13.9z"/>
	<path d="M129.9,36h-11.6v-1.9c1.8,0,2.7-0.6,2.7-1.7l0.1-2.4L121,15.6c0-1.1-0.9-1.7-2.7-1.7V12h11.6v1.9c-1.8,0-2.7,0.6-2.7,1.7
		l-0.1,2.4l0.1,14.4c0,1.1,1,1.7,2.7,1.7V36z"/>
	<path d="M135.3,36v-1.5c1.6,0,2.4-0.2,2.6-0.7c0.1-0.4,0.2-1.2,0.2-2.5V14.4h-2.4c-1.1,0-1.8,0.3-2.1,0.8c-0.1,0.2-0.2,1-0.2,2.4
		V18h-1.9v-6h19.2v6h-1.9v-0.5c0-1.4-0.1-2.2-0.2-2.4c-0.2-0.5-0.9-0.7-2-0.7h-2.4v16.8c0,1.2,0,1.9,0.1,2.1c0.2,0.7,0.6,1,1.4,1.1
		c0.7,0.1,1.2,0.1,1.3,0.1V36H135.3z"/>
	<path d="M164,36h-11.6v-1.9c1.8,0,2.7-0.6,2.7-1.7l0.1-2.4l-0.1-14.4c0-1.1-0.9-1.7-2.7-1.7V12H164v1.9c-1.8,0-2.7,0.6-2.7,1.7
		l-0.1,2.4l0.1,14.4c0,1.1,1,1.7,2.7,1.7V36z"/>
	<path d="M187.5,36v-1.9c1.4,0,2.3-0.3,2.6-1c0.2-0.4,0.2-1.4,0.2-3.1V18c0-1.7-0.1-2.7-0.2-3.1c-0.3-0.7-1.2-1-2.6-1V12h5.8l12,15
		l-0.1-11.4c0-1.1-0.9-1.7-2.7-1.7V12h8.6v1.9c-1.8,0-2.7,0.6-2.7,1.7l-0.1,2.4v18.2h-3l-12-15.2l0.1,11.4c0,1.1,1,1.7,2.8,1.7V36
		H187.5z"/>
	<g>
		<path d="M6,36v-1.9c1.8,0,2.7-0.6,2.7-1.7L8.8,30L8.7,9.6c0-1.1-0.9-1.7-2.7-1.7V6h18.9v5.3h-2v-0.5V9.5c0-1-0.9-1.5-2.6-1.5h-5.5
			v11.3h3.2l1.5-0.1c0.7,0,1.1-0.5,1.1-1.3v-0.7h1.9v6h-1.9v-0.7c0-0.8-0.4-1.3-1.1-1.3L18.1,21h-3.2v9c0,1.9,0.1,2.9,0.3,3.3
			c0.4,0.5,1.4,0.8,3.1,0.8h1.5l2.2-0.1c0.7,0,1.2-0.4,1.3-1c0-0.1,0-0.7,0-2v-0.6h2.2V36H6z"/>
	</g>
</g>
<path class="st0" d="M175.5,11.6c-6.8,0-12.4,5.6-12.4,12.4s5.6,12.4,12.4,12.4s12.4-5.6,12.4-12.4S182.3,11.6,175.5,11.6z
	 M175.5,13.2c6,0,10.8,4.8,10.8,10.8s-4.8,10.8-10.8,10.8S164.7,30,164.7,24S169.5,13.2,175.5,13.2z M184.8,24"/>
<path class="st1" d="M180.2,18.8l-6.4,3.7l-3,6.8l6.4-3.7L180.2,18.8z M175.4,22.7c0.7,0,1.4,0.5,1.4,1.3c0,0.7-0.5,1.4-1.3,1.4
	c-0.7,0-1.4-0.5-1.4-1.3C174.1,23.3,174.7,22.7,175.4,22.7z"/>
<polygon class="st2" points="176.5,17.5 175.5,17.1 174.5,17.5 175.5,15 175.5,15 "/>
<rect x="166.7" y="23.8" class="st2" width="1.6" height="0.3"/>
<rect x="182.8" y="23.8" class="st2" width="1.6" height="0.3"/>
<rect x="175.3" y="31.6" class="st2" width="0.3" height="1.6"/>
<rect x="1" y="1" width="70.4" height="1"/>
<rect x="1" y="1" width="1" height="13.2"/>
<rect x="148.8" y="52.3" width="70.4" height="1"/>
<rect x="218.2" y="40.1" width="1" height="13.2"/>
<text transform="matrix(1 0 0 1 87.8341 46.2714)" class="st3 st4">the roleplaying card game</text>
<g>
	<g>
		<defs>
			<rect id="SVGID_1_" x="162.8" y="11.3" width="25.4" height="25.7"/>
		</defs>
		<clipPath id="SVGID_2_">
			<use xlink:href="#SVGID_1_"  style="overflow:visible;"/>
		</clipPath>
		<g class="st5">
			<defs>
				<rect id="SVGID_3_" x="162.8" y="11.3" width="25.4" height="25.7"/>
			</defs>
			<clipPath id="SVGID_4_">
				<use xlink:href="#SVGID_3_"  style="overflow:visible;"/>
			</clipPath>
			<polyline class="st6" points="167.9,23.6 167.9,23.6 167.9,23.6 			"/>
			<polyline class="st6" points="167.6,23.6 167.6,23.6 167.6,23.6 			"/>
			<polyline class="st6" points="167.5,24.7 167.5,24.7 167.5,24.7 			"/>
			<path class="st6" d="M167.6,24.7c0.1,0,0.1,0,0.2-0.1c0.1-0.1,0.1-0.2,0.2-0.2c0.1,0,0.1,0,0.2,0c0.1,0,0.1,0,0.2,0
				c0.1,0,0.1-0.1,0.2,0c0,0,0,0,0,0c0,0,0-0.1,0.1-0.1c0,0,0-0.1,0-0.1c0-0.1-0.1-0.1-0.1-0.2c0-0.1-0.1-0.1-0.1-0.1
				c-0.1,0-0.1-0.1-0.2-0.2c-0.1-0.1-0.1,0-0.2-0.1c-0.1,0-0.1-0.1-0.2-0.1c-0.1,0-0.1-0.1-0.2,0c-0.1,0-0.1,0-0.2,0
				c0,0-0.1,0-0.1,0c-0.1,0-0.2,0-0.3,0c-0.1,0-0.2-0.1-0.3-0.1c0,0-0.1,0-0.1,0.3c0,0.1,0,0.2,0,0.2c0-0.1,0.1,0.2,0.1,0.2
				c0,0.1,0.1,0.1,0.1,0.2c0.1,0.1,0.1,0.3,0.2,0.3c0.1,0.1,0.2,0,0.3,0c0.1,0,0.2,0,0.3,0C167.5,24.7,167.6,24.7,167.6,24.7"/>
			<polyline class="st6" points="181.6,24.5 181.6,24.5 181.6,24.5 			"/>
			<polyline class="st6" points="181.9,24.6 181.9,24.6 181.9,24.6 			"/>
			<polyline class="st6" points="182,23.5 182,23.5 182,23.5 			"/>
			<path class="st6" d="M181.9,23.5c-0.1,0-0.1,0-0.2,0.1c-0.1,0.1-0.1,0.2-0.2,0.2c-0.1,0-0.1,0-0.2,0c-0.1,0-0.1,0-0.2,0
				c-0.1,0-0.1,0.1-0.2,0c0,0,0,0-0.1,0c0,0-0.1,0.1-0.1,0.1c0,0,0,0.1,0,0.1c0,0.1,0.1,0.1,0.1,0.2c0,0.1,0.1,0.1,0.1,0.1
				c0.1,0,0.2,0.1,0.2,0.2c0.1,0.1,0.1,0,0.2,0.1c0.1,0,0.1,0.1,0.2,0.1c0.1,0,0.1,0.1,0.2,0.1c0.1,0,0.2,0,0.2,0c0,0,0.1,0,0.1,0
				c0.1,0,0.2,0,0.3,0c0.1,0,0.2,0.1,0.3,0.1c0.1,0,0.1,0,0.2-0.2c0-0.1,0-0.2,0-0.2c0,0.1-0.1-0.2-0.1-0.2c0-0.1-0.1-0.1-0.1-0.2
				c-0.1-0.1-0.1-0.3-0.1-0.3c-0.1-0.1-0.2-0.1-0.3-0.1c-0.1,0-0.2,0-0.3,0C182,23.5,182,23.5,181.9,23.5"/>
			<polyline class="st6" points="174.9,17.2 174.9,17.2 174.9,17.2 			"/>
			<path class="st6" d="M174.9,17.2L174.9,17.2C174.9,17.2,174.9,17.2,174.9,17.2"/>
			<polyline class="st6" points="175,15.6 175,15.6 175,15.6 			"/>
			<path class="st6" d="M174.8,15c-0.1,0.3-0.2,0.6-0.2,1c0,0.2-0.1,0.4-0.1,0.5c0,0.2,0,0.3-0.1,0.4c0,0.1,0,0.1-0.1,0.2l0,0.1l0,0
				l0,0l0,0l0,0c0,0.1-0.1,0.1-0.1,0.2c0,0.1,0,0.2-0.1,0.2c0,0.1-0.1,0.1-0.1,0.2c0,0.1,0,0.2-0.1,0.2c0,0.1,0,0.2-0.1,0.2
				c0,0,0,0.1-0.1,0.1c0,0,0,0.1,0,0.2c0,0,0.1,0,0.1,0c0.1,0,0.1-0.1,0.2-0.1c0.1-0.1,0.1-0.1,0.1-0.2c0.1-0.2,0.2-0.3,0.3-0.5
				c0.1-0.1,0.1-0.1,0.1-0.2c0-0.1,0.1-0.1,0.1-0.2l0,0l0,0c0,0,0,0,0,0c0,0,0,0,0,0c0,0,0,0,0,0c0,0,0,0,0,0c0,0,0,0,0,0
				c0,0,0,0,0,0c0,0,0,0,0,0l0,0c0,0,0,0,0,0c0,0,0,0,0,0.1c0,0,0,0,0,0c0,0,0,0,0,0c0,0,0,0,0,0l0.2,0.3c0.1,0.1,0.1,0.2,0.1,0.3
				c0,0.1,0.1,0.2,0.1,0.3c0.1,0.1,0.1,0.2,0.3,0.3c0,0,0.1,0,0.2,0c-0.1,0,0-0.2,0-0.2c0-0.1,0-0.1,0-0.2c0-0.1,0.1-0.3,0-0.4
				c0-0.1,0-0.1-0.1-0.2c0-0.1-0.1-0.1-0.1-0.2c-0.1-0.1-0.1-0.2-0.2-0.3l-0.1-0.3c0-0.1-0.1-0.2-0.1-0.3c-0.1-0.2-0.2-0.4-0.3-0.7
				C175,15.5,174.9,15.2,174.8,15C174.8,15,174.8,15,174.8,15"/>
			<polyline class="st6" points="174.4,31.2 174.4,31.2 174.4,31.2 			"/>
			<polyline class="st6" points="174.4,31.6 174.4,31.6 174.4,31.6 			"/>
			<polyline class="st6" points="175.5,31.6 175.5,31.6 175.5,31.6 			"/>
			<path class="st6" d="M175.5,31.5c0-0.1,0-0.1-0.1-0.2c-0.1-0.1-0.2-0.1-0.2-0.2c0-0.1,0-0.1-0.1-0.2c0-0.1,0-0.1,0-0.2
				c0-0.1-0.1-0.1,0-0.2c0,0,0,0,0-0.1c0,0-0.1,0-0.1-0.1c0,0-0.1,0-0.1,0c-0.1,0-0.1,0.1-0.2,0.1c0,0-0.1,0.1-0.1,0.1
				c0,0.1-0.1,0.2-0.1,0.2c-0.1,0.1,0,0.1-0.1,0.2c0,0.1-0.1,0.1-0.1,0.2c0,0.1-0.1,0.1,0,0.2c0,0.1,0,0.1,0,0.2c0,0,0,0.1,0,0.1
				c0,0.1,0,0.2,0,0.3c0,0.1-0.1,0.2-0.1,0.3c0,0,0,0.1,0.3,0.2c0.1,0,0.2,0,0.2,0c-0.1,0,0.2-0.1,0.2-0.1c0.1,0,0.1-0.1,0.2-0.1
				c0.1-0.1,0.3-0.1,0.3-0.1c0.1-0.1,0-0.2,0-0.3c0-0.1,0-0.2,0-0.3C175.5,31.6,175.5,31.5,175.5,31.5"/>
			<path class="st6" d="M175.2,26.9L175.2,26.9C175.2,26.9,175.2,26.9,175.2,26.9"/>
			<path class="st6" d="M177.1,25.4L177.1,25.4C177.1,25.4,177.1,25.4,177.1,25.4"/>
			<polyline class="st6" points="176.8,24.6 176.8,24.6 176.8,24.6 			"/>
			<path class="st6" d="M176.2,25.2c-0.3,0.3-0.6,0.5-0.9,0.7c-0.3,0.3-0.7,0.5-1,0.7c-0.4,0.2-0.8,0.4-1.2,0.6c0,0-0.1,0.1-0.1,0.1
				c0,0-0.1,0.1-0.1,0.1c-0.1,0.1-0.2,0.1-0.3,0.2c-0.1,0.1-0.2,0.1-0.3,0.2c-0.1,0.1-0.2,0.1-0.3,0.2c-0.4,0.2-0.7,0.5-1.1,0.7
				c-0.1,0.1-0.2,0.1-0.3,0.2c-0.1,0-0.3,0.2-0.3,0.3c0,0,0.2,0,0.2,0c0.2,0,0.4-0.1,0.5-0.2c0.2-0.1,0.3-0.2,0.6-0.3
				c0.2-0.1,0.5-0.3,0.7-0.4c0.1-0.1,0.2-0.1,0.3-0.2c0.1-0.1,0.2-0.1,0.4-0.2c0.2-0.1,0.4-0.2,0.6-0.3c0.2-0.1,0.4-0.2,0.6-0.3
				c0.4-0.2,0.9-0.3,1.3-0.6c0.4-0.2,0.9-0.5,1.3-0.8c0.4-0.3,0.7-0.8,1-1.2c0-0.1,0.1-0.1,0.1-0.2l0.1-0.2l0.2-0.4
				c0.3-0.6,0.6-1.3,0.9-2c0.1-0.3,0.2-0.6,0.4-0.9c0.1-0.1,0.1-0.3,0.2-0.4c0.1-0.1,0.1-0.3,0.2-0.4c0.1-0.2,0.1-0.4,0.2-0.5
				c0.1-0.2,0.1-0.4,0.1-0.5c0-0.1-0.1-0.1-0.1-0.2c0.1,0-0.2,0.3-0.3,0.3c-0.1,0.1-0.1,0.1-0.2,0.2c0,0-0.1,0.1-0.1,0.1
				c0,0,0,0.1-0.1,0.1c-0.2,0.3-0.4,0.5-0.5,0.9c-0.2,0.3-0.3,0.7-0.4,1c0,0.1-0.1,0.2-0.1,0.3l-0.1,0.3c-0.1,0.2-0.1,0.3-0.2,0.5
				l-0.1,0.2l-0.1,0.2l-0.2,0.4l-0.2,0.4c0,0.1-0.1,0.1-0.1,0.2c0,0.1-0.1,0.1-0.1,0.2C176.7,24.7,176.5,25,176.2,25.2"/>
			<path class="st6" d="M172.6,23.9L172.6,23.9C172.6,23.9,172.6,23.9,172.6,23.9"/>
			<polyline class="st6" points="173.8,22.3 173.8,22.3 173.8,22.3 			"/>
			<path class="st6" d="M173.9,21.5L173.9,21.5C173.9,21.5,173.9,21.5,173.9,21.5"/>
			<path class="st6" d="M173,22c0,0-0.1,0.1-0.1,0.1c0,0-0.1,0.1-0.1,0.1c-0.1,0.1-0.2,0.2-0.2,0.3c-0.1,0.2-0.2,0.4-0.3,0.6
				c-0.2,0.4-0.2,0.8-0.4,1.2c-0.1,0.2-0.2,0.4-0.2,0.6c-0.1,0.2-0.2,0.4-0.2,0.6c-0.2,0.4-0.3,0.8-0.5,1.2
				c-0.1,0.2-0.2,0.4-0.2,0.6c-0.1,0.2-0.1,0.4-0.2,0.6c0,0.1-0.1,0.1-0.1,0.2l-0.1,0.2c0,0.1-0.1,0.3-0.1,0.4c0,0,0.1-0.1,0.1-0.2
				c0-0.1,0.1-0.2,0.2-0.2c0,0,0-0.1,0.1-0.1c0,0,0-0.1,0.1-0.1c0.1-0.2,0.2-0.3,0.3-0.5c0.2-0.5,0.4-0.9,0.7-1.4
				c0.1-0.2,0.2-0.4,0.3-0.6c0.1-0.2,0.2-0.4,0.3-0.6c0.1-0.2,0.2-0.4,0.3-0.6c0.1-0.2,0.2-0.4,0.3-0.6c0.1-0.2,0.2-0.4,0.3-0.6
				c0.1-0.2,0.2-0.4,0.4-0.5c0.3-0.3,0.7-0.5,1.1-0.7c0.3-0.1,0.5-0.2,0.8-0.3c0.6-0.3,1.3-0.6,1.9-0.9c0.6-0.3,1.2-0.5,1.7-0.8
				c0.1-0.1,0.3-0.2,0.5-0.3c0.2-0.1,0.3-0.3,0.4-0.4c0-0.1,0-0.1,0-0.2c0,0.1-0.4,0.1-0.4,0.1c-0.1,0-0.2,0-0.3,0.1
				c-0.1,0-0.2,0.1-0.3,0.1c-0.3,0.1-0.6,0.2-1,0.3c-0.7,0.3-1.3,0.6-2,1L175,21l-0.2,0.1c-0.1,0-0.1,0.1-0.2,0.1l-0.4,0.2
				C173.7,21.5,173.3,21.7,173,22"/>
			<path class="st6" d="M175.2,14.3L175.2,14.3C175.1,14.3,175.2,14.3,175.2,14.3"/>
			<path class="st6" d="M183.1,18.6L183.1,18.6C183.1,18.6,183.1,18.6,183.1,18.6"/>
			<path class="st6" d="M187,19.1C187,19.1,187,19.2,187,19.1C187,19.2,187,19.2,187,19.1C187,19.2,187,19.2,187,19.1"/>
			<path class="st6" d="M184.3,14.8l-0.3-0.3l-0.2-0.2l-0.2-0.1l-0.3-0.3l-0.3-0.3l-0.2-0.1l-0.2-0.1l-0.4-0.2
				c-0.1-0.1-0.2-0.1-0.4-0.2l-0.2-0.1l-0.2-0.1c-0.1-0.1-0.3-0.1-0.4-0.2l-0.4-0.2c-0.1,0-0.1-0.1-0.2-0.1l-0.2-0.1
				c-0.1-0.1-0.3-0.1-0.4-0.1c-0.3-0.1-0.5-0.2-0.8-0.2c-0.1,0-0.3-0.1-0.4-0.1c-0.1,0-0.3-0.1-0.4-0.1c-0.6-0.1-1.2-0.2-1.7-0.2
				l-0.2,0c-0.1,0-0.1,0-0.2,0c-0.1,0-0.3,0-0.4,0c-0.3,0-0.6,0-0.9,0.1l-0.2,0l-0.1,0l-0.1,0c-0.1,0-0.3,0-0.4,0.1
				c-0.1,0-0.3,0.1-0.4,0.1l-0.2,0c-0.1,0-0.1,0-0.2,0c-0.1,0-0.3,0.1-0.4,0.1c-0.1,0-0.3,0.1-0.4,0.1c-0.1,0-0.3,0.1-0.4,0.1
				l-0.2,0.1l-0.1,0l-0.1,0l-0.4,0.1c-0.1,0.1-0.3,0.1-0.4,0.2c-0.1,0-0.1,0.1-0.2,0.1l-0.2,0.1l-0.2,0.1l-0.1,0c0,0-0.1,0-0.1,0
				l-0.4,0.2c-0.1,0.1-0.3,0.1-0.4,0.2c-0.1,0-0.1,0.1-0.2,0.1l-0.2,0.1l-0.2,0.1c-0.1,0-0.1,0.1-0.2,0.1l-0.4,0.3
				c-0.1,0-0.1,0.1-0.2,0.1l-0.2,0.1l-0.2,0.1c-0.1,0-0.1,0.1-0.2,0.1l-0.3,0.3l-0.3,0.3c-0.1,0.1-0.1,0.1-0.2,0.2l-0.1,0.2
				l-0.1,0.2c0,0.1-0.1,0.1-0.1,0.2l-0.3,0.4c0,0.1-0.1,0.1-0.1,0.2l-0.1,0.2l-0.1,0.2c0,0.1-0.1,0.1-0.1,0.2
				c-0.1,0.1-0.2,0.2-0.2,0.4c-0.1,0.1-0.1,0.3-0.2,0.4c-0.1,0.1-0.1,0.3-0.2,0.4c-0.1,0.1-0.1,0.3-0.2,0.4l-0.2,0.4l-0.2,0.4
				c-0.5,1.1-0.8,2.2-0.9,3.4c0,0.1,0,0.3,0,0.4c0,0.1,0,0.3,0,0.4l0,0.4c0,0.1,0,0.3,0,0.4c0,0.6,0.1,1.1,0.2,1.7
				c0.1,0.6,0.3,1.1,0.5,1.6l0.1,0.2c0,0.1,0.1,0.1,0.1,0.2c0.1,0.1,0.1,0.3,0.1,0.4c0.1,0.3,0.2,0.5,0.3,0.8
				c0.1,0.1,0.1,0.3,0.2,0.4c0.1,0.1,0.1,0.3,0.2,0.4l0.2,0.4l0.1,0.1l0.1,0.1l0.1,0.2c0.1,0.1,0.4,0.5,0.7,0.8
				c0.3,0.3,0.7,0.6,0.8,0.6c0.1,0,0-0.1-0.1-0.4c-0.1-0.2-0.2-0.5-0.3-0.6c-0.2-0.3-0.4-0.8-0.6-1.2c0-0.1-0.1-0.2-0.1-0.3
				c0-0.1-0.1-0.2-0.1-0.3c-0.1-0.2-0.1-0.4-0.2-0.5c0-0.1-0.1-0.3-0.1-0.4c0,0,0-0.1,0-0.1c0,0,0-0.1,0-0.1c0-0.1,0-0.1-0.1-0.2
				c0-0.1,0-0.1,0-0.2c0,0,0-0.1,0-0.1c0,0,0-0.1,0-0.1c0-0.1-0.1-0.2-0.1-0.3c0-0.1-0.1-0.2-0.1-0.3c0-0.1-0.1-0.2-0.1-0.3
				c0-0.2-0.1-0.5-0.1-0.8c-0.1-0.6-0.2-1.2-0.2-1.8c0-0.6,0.1-1.2,0.2-1.8c0.1-0.6,0.3-1.1,0.5-1.7c0.2-0.5,0.5-1.1,0.8-1.5
				c0.3-0.4,0.5-0.8,0.8-1.2c0.1-0.1,0.1-0.2,0.2-0.3c0,0,0.1-0.1,0.1-0.1l0.1-0.1c0.1-0.2,0.3-0.4,0.5-0.5c0.1-0.1,0.2-0.2,0.2-0.3
				l0.1-0.1c0,0,0.1-0.1,0.1-0.1l0.3-0.2c0.1-0.1,0.2-0.2,0.3-0.2l0.1-0.1l0.1-0.1c0.1-0.1,0.2-0.1,0.3-0.2c0.1-0.1,0.2-0.1,0.3-0.2
				c0,0,0.1-0.1,0.1-0.1l0.2-0.1l0.2-0.1c0.1,0,0.1-0.1,0.2-0.1l0.3-0.2c0.1-0.1,0.2-0.1,0.3-0.1c0.1,0,0.1,0,0.2-0.1l0.2-0.1
				l0.2-0.1l0.1,0l0.1,0l0.4-0.1c0.1,0,0.2-0.1,0.4-0.1c0.1,0,0.2-0.1,0.4-0.1c0.2-0.1,0.5-0.1,0.7-0.1l0.4,0l0.1,0l0.1,0l0.2,0
				c0.5,0,1-0.1,1.5,0c0.5,0,1,0.1,1.5,0.2c0.5,0.1,1,0.3,1.5,0.5c0.5,0.2,0.9,0.4,1.4,0.7c0.4,0.3,0.9,0.5,1.3,0.9
				c0.1,0.1,0.2,0.2,0.3,0.2c0.1,0.1,0.2,0.2,0.3,0.2l0.3,0.3l0.3,0.3c0.1,0.1,0.2,0.2,0.3,0.3l0.1,0.1c0,0,0.1,0.1,0.1,0.1
				c0.1,0.1,0.2,0.2,0.2,0.3l0.2,0.3c0.3,0.4,0.5,0.9,0.8,1.3c0.2,0.5,0.4,0.9,0.5,1.4c0.3,1.1,0.4,2.3,0.3,3.5
				c-0.1,0.7-0.2,1.5-0.5,2.2l0,0.1l0,0.1l-0.1,0.3c0,0,0,0.1-0.1,0.1l-0.1,0.1c0,0.1-0.1,0.2-0.1,0.3c-0.2,0.3-0.3,0.7-0.5,1
				c-0.4,0.6-0.8,1.2-1.4,1.8c-0.5,0.5-1.1,1-1.7,1.4c-0.6,0.4-1.2,0.6-1.8,0.8c-0.6,0.2-1.3,0.3-1.9,0.4c-0.7,0.1-1.3,0-2,0
				c-0.6-0.1-1.3-0.2-1.9-0.3c0,0-0.1,0-0.1,0c0,0-0.1,0-0.1,0c-0.1,0-0.2,0-0.3-0.1c0,0-0.1,0-0.1,0c0,0-0.1,0-0.1,0
				c0,0-0.1,0-0.1,0c0,0-0.1,0-0.1,0c-0.2-0.1-0.4-0.1-0.6-0.2c-0.1,0-0.2-0.1-0.3-0.1c-0.1,0-0.2-0.1-0.3-0.1
				c-0.8-0.3-1.5-0.7-2.2-0.8c-0.3-0.1-0.6,0-0.8,0.2c0.1-0.1,0.2,0,0.3,0.1c0.1,0.1,0.1,0.2,0.2,0.2c0.1,0.1,0.1,0.2,0.2,0.3
				c0.1,0.1,0.1,0.2,0.2,0.3c0.1,0.1,0.1,0.2,0.2,0.3c0,0,0,0.1,0.1,0.1c0,0,0,0.1,0.1,0.1c0,0.1,0.1,0.1,0.1,0.1
				c0.1,0.1,0.1,0.2,0.2,0.2c0.1,0.1,0.2,0.2,0.2,0.2c0,0,0.1,0.1,0.1,0.1c0,0,0.1,0.1,0.1,0.1c0.1,0.1,0.2,0.1,0.3,0.2l0.1,0.1
				c0,0,0.1,0.1,0.1,0.1l0.3,0.2l0.1,0.1l0.1,0l0.1,0.1c0.1,0.1,0.2,0.1,0.3,0.2c0.7,0.5,1.5,0.9,2.3,1.2c0.8,0.3,1.7,0.5,2.7,0.5
				c1,0,2.1-0.1,3.1-0.4c1-0.3,2-0.7,2.9-1.2c0.9-0.5,1.7-1.2,2.5-1.9c0.1-0.1,0.2-0.2,0.3-0.3l0.3-0.3l0.3-0.3
				c0.1-0.1,0.2-0.2,0.3-0.3c0.2-0.2,0.3-0.4,0.5-0.6c0.1-0.1,0.2-0.2,0.2-0.3l0.2-0.3c0.9-1.5,1.5-3.3,1.8-5
				c0.2-1.8,0.1-3.6-0.4-5.3c0-0.1-0.1-0.3-0.1-0.4c0-0.1-0.1-0.3-0.1-0.4c0-0.1-0.1-0.3-0.1-0.4c0-0.1,0-0.1-0.1-0.2L187,19
				c-0.1-0.1-0.1-0.3-0.2-0.4c-0.1-0.1-0.1-0.2-0.2-0.4l-0.1-0.2l-0.1-0.2c-0.1-0.1-0.1-0.2-0.2-0.4
				C185.7,16.5,185.1,15.6,184.3,14.8"/>
			<path class="st7" d="M179.4,19.5c-0.7,0.1-1.3,0.5-1.9,0.8c-0.5,0.3-1,0.4-1.5,0.6c-0.6,0.2-1.2,0.5-1.7,0.9
				c-0.3,0.2-0.6,0.5-0.9,0.7c-0.3,0.2-0.5,0.5-0.6,0.8c-0.2,0.3-0.3,0.7-0.5,1c-0.2,0.3-0.1,0.6-0.3,0.9c-0.2,0.3-0.2,0.5-0.3,0.8
				c-0.2,0.3-0.3,0.7-0.5,1.1c-0.2,0.3-0.1,0.3-0.7,1.5c-0.1,0.2,0.6,0.3,0.8,0.2c0.3-0.1,0.7-0.3,1-0.5c0.3-0.2,0.5-0.5,0.9-0.6
				c0.3-0.1,0.7-0.2,1-0.4c0.3-0.2,0.6-0.4,0.9-0.7c0.3-0.2,0.6-0.4,0.9-0.6c1.1-0.7,1.4-2.1,2-3.2c0.3-0.5,0.5-1,0.7-1.4
				c0.3-0.5,0.9-1.1,1-1.7"/>
			<path class="st6" d="M173.2,27.4L173.2,27.4C173.2,27.4,173.2,27.4,173.2,27.4"/>
			<path class="st6" d="M170.8,28L170.8,28C170.8,28,170.8,28,170.8,28"/>
			<path class="st6" d="M170.9,27.1L170.9,27.1C170.9,27,170.9,27,170.9,27.1"/>
			<path class="st6" d="M170.1,28.7c0,0,0,0.1,0,0.1c0,0,0.1,0.1,0.1,0.1c0,0,0.1,0.1,0.1,0.1c0,0,0,0,0.1,0c0,0,0,0,0,0l0,0
				c0.1,0,0.2,0,0.3,0c0.1,0,0.1,0,0.2,0c0.1,0,0.1,0,0.2,0l0.1-0.1c0,0,0.1,0,0.1-0.1c0.2-0.1,0.4-0.2,0.5-0.3c0,0,0.1-0.1,0.1-0.1
				c0,0,0.1-0.1,0.1-0.1c0.1-0.1,0.1-0.1,0.2-0.2c0.1-0.1,0.3-0.2,0.4-0.3c0,0,0.1,0,0.1-0.1c0,0,0.1,0,0.1-0.1l0.3-0.1
				c0.2-0.1,0.4-0.1,0.6-0.2c0.2-0.1,0.4-0.2,0.5-0.4c0.1-0.1,0.2-0.1,0.2-0.2l0.1-0.1l0.1-0.1l0.1,0l0.1-0.1c0,0,0.1-0.1,0.1-0.1
				l0.1-0.1l0.1-0.1l0.3-0.2c0,0,0.1-0.1,0.1-0.1c0,0,0.1-0.1,0.1-0.1c0.1-0.1,0.2-0.1,0.2-0.2c0.1-0.1,0.1-0.2,0.2-0.3
				c0.1-0.2,0.2-0.4,0.3-0.6c0.1-0.2,0.2-0.4,0.3-0.6c0.2-0.4,0.3-0.8,0.5-1.2c0-0.1,0.1-0.2,0.1-0.3l0.1-0.3c0,0,0-0.1,0.1-0.1
				l0.1-0.1c0-0.1,0.1-0.2,0.1-0.3l0.1-0.3l0.1-0.3c0-0.1,0.1-0.2,0.1-0.3c0.1-0.1,0.1-0.2,0.2-0.2c0.1-0.2,0.3-0.3,0.4-0.5
				c0,0,0.1-0.2,0.2-0.4c0,0,0-0.1,0-0.1c0,0,0-0.1,0-0.1c0,0,0-0.1,0-0.1c0,0,0,0,0-0.1c0,0,0,0,0,0.1c0,0.1-0.1,0.2-0.1,0.2
				c-0.1,0.3-0.4,0.6-0.6,0.8c-0.1,0.2-0.3,0.3-0.3,0.5c0,0.1-0.1,0.2-0.1,0.2c0,0.1-0.1,0.2-0.1,0.3c-0.1,0.1-0.1,0.2-0.2,0.3
				l-0.1,0.2l0,0.1l0,0.1c-0.1,0.1-0.1,0.2-0.2,0.3l-0.1,0.2l-0.1,0.2c-0.2,0.4-0.4,0.9-0.6,1.3c-0.2,0.3-0.4,0.7-0.6,1
				c-0.1,0.1-0.3,0.3-0.4,0.4c0,0-0.1,0.1-0.1,0.1l-0.1,0.1c-0.1,0.1-0.2,0.1-0.3,0.2c-0.1,0.1-0.2,0.1-0.3,0.2l-0.1,0.1
				c0,0-0.1,0.1-0.1,0.1c-0.2,0.1-0.3,0.3-0.5,0.4c-0.2,0.1-0.3,0.2-0.5,0.3c-0.2,0.1-0.4,0.1-0.6,0.2l-0.1,0c0,0-0.1,0-0.1,0
				c-0.1,0-0.1,0-0.2,0.1l-0.1,0c0,0-0.1,0-0.1,0c-0.1,0-0.1,0.1-0.2,0.1c-0.1,0.1-0.2,0.1-0.3,0.2c-0.1,0.1-0.2,0.1-0.3,0.2
				c-0.2,0.1-0.4,0.2-0.6,0.3c-0.1,0-0.1,0-0.2,0.1l-0.1,0l0,0c0,0,0,0,0,0c-0.1,0-0.2,0-0.3,0c0,0-0.1,0-0.1,0c0,0,0,0-0.1,0
				c0,0,0,0,0,0c0,0,0,0,0,0c0,0,0,0,0,0l0.2-0.4c0.1-0.2,0.2-0.3,0.2-0.5c0-0.1,0.1-0.2,0.1-0.3l0.1-0.2c0.1-0.2,0.1-0.3,0.2-0.5
				c0.1-0.1,0.1-0.2,0.2-0.4c0,0,0-0.1,0-0.1l0-0.1l0.1-0.2c0.1-0.1,0.1-0.3,0.2-0.4c0-0.1,0.1-0.2,0.1-0.3l0.1-0.1
				c0,0,0-0.1,0.1-0.1c0,0,0-0.1,0-0.1l0-0.1c0,0,0-0.1,0-0.1l0-0.1l0-0.1c0,0,0-0.1,0-0.1l0-0.1l0-0.1c0.2-0.3,0.3-0.6,0.4-0.9
				c0.2-0.3,0.3-0.6,0.6-0.8l0,0l0,0l0.1-0.1l0.2-0.2l0.4-0.3c0.1,0,0.1-0.1,0.2-0.1c0.1,0,0.1-0.1,0.2-0.1c0.1,0,0.1-0.1,0.2-0.1
				l0.2-0.1c0.3-0.1,0.5-0.3,0.8-0.4c0.1,0,0.1-0.1,0.2-0.1c0.1,0,0.1,0,0.2-0.1c0.1,0,0.3-0.1,0.4-0.1c0.3-0.1,0.6-0.2,0.9-0.4
				c0,0,0.1,0,0.1-0.1c0,0,0,0,0.1,0c0,0,0,0,0.1,0c0.1,0,0.2-0.1,0.2-0.1c0.2-0.1,0.3-0.2,0.5-0.3c0.3-0.2,0.6-0.3,0.9-0.4
				c0.1,0,0.2-0.1,0.2-0.1c0,0,0,0-0.1,0c-0.1,0-0.2,0-0.2,0c-0.2,0-0.4,0.1-0.4,0.1c-0.3,0.1-0.6,0.3-0.9,0.4
				c-0.1,0.1-0.3,0.1-0.4,0.2c-0.1,0-0.1,0.1-0.2,0.1c-0.1,0-0.1,0.1-0.2,0.1c-0.3,0.1-0.6,0.2-0.9,0.3c-0.3,0.1-0.7,0.2-1,0.4
				c-0.1,0-0.2,0.1-0.2,0.1c-0.1,0-0.2,0.1-0.2,0.1l-0.1,0.1c0,0-0.1,0-0.1,0.1c-0.1,0.1-0.2,0.1-0.2,0.2l-0.4,0.3l-0.2,0.2
				l-0.1,0.1l-0.1,0c0,0,0,0-0.1,0c-0.2,0.1-0.3,0.3-0.4,0.4c-0.1,0.2-0.2,0.3-0.3,0.5l-0.1,0.2c0,0.1-0.1,0.1-0.1,0.2
				c0,0.1-0.1,0.1-0.1,0.2l0,0.1l0,0.1l-0.1,0.2c0,0,0,0.1-0.1,0.1c0,0,0,0.1,0,0.1c0,0.2-0.1,0.3-0.1,0.4l0,0l0,0l0,0.1
				c0,0.1-0.1,0.2-0.1,0.2c-0.1,0.2-0.1,0.3-0.2,0.4c0,0,0,0.1,0,0.1l0,0.1l-0.1,0.2c-0.1,0.1-0.1,0.3-0.2,0.4
				c-0.1,0.2-0.1,0.3-0.2,0.5c0,0.1-0.1,0.2-0.1,0.2c0,0.1-0.1,0.2-0.1,0.2c-0.1,0.2-0.2,0.3-0.2,0.5c-0.1,0.2-0.2,0.3-0.3,0.5
				C170.1,28.6,170.1,28.6,170.1,28.7C170.1,28.7,170.1,28.7,170.1,28.7"/>
		</g>
		<g class="st5">
			<defs>
				<rect id="SVGID_5_" x="162.8" y="11.3" width="25.4" height="25.7"/>
			</defs>
			<clipPath id="SVGID_6_">
				<use xlink:href="#SVGID_5_"  style="overflow:visible;"/>
			</clipPath>
		</g>
	</g>
</g>
</svg>
