<svg xmlns="http://www.w3.org/2000/svg" xmlns:xlink="http://www.w3.org/1999/xlink" version="1.1" x="0px" y="0px" viewBox="0 0 128 128" enable-background="new 0 0 128 128" xml:space="preserve"><g><g><path d="M25.688,0c-3.85,0-7,3.15-7,7v114c0,3.85,3.15,7,7,7h76.625c3.85,0,7-3.15,7-7V7c0-3.85-3.15-7-7-7H25.688z     M68.435,89.265c-2.439,2.979-6.43,2.979-8.869,0L43.317,69.417c-2.438-2.979-2.438-7.854,0-10.833l16.248-19.846    c2.439-2.979,6.43-2.979,8.869,0l16.248,19.846c2.439,2.979,2.439,7.854,0,10.833L68.435,89.265z"></path></g></g></svg>