<?xml version="1.0" encoding="utf-8"?>
<!-- Generator: Adobe Illustrator 16.0.0, SVG Export Plug-In . SVG Version: 6.00 Build 0)  -->
<!DOCTYPE svg PUBLIC "-//W3C//DTD SVG 1.1//EN" "http://www.w3.org/Graphics/SVG/1.1/DTD/svg11.dtd">
<svg version="1.1" id="Layer_1" xmlns="http://www.w3.org/2000/svg" xmlns:xlink="http://www.w3.org/1999/xlink" x="0px" y="0px"
	 width="500px" height="500px" viewBox="0 0 500 500" enable-background="new 0 0 500 500" xml:space="preserve">
<g>
	<g>
		<g>
			<g>
				<path fill="#231F20" d="M268.696,279.792l0.202-0.004C268.808,279.781,268.749,279.755,268.696,279.792z"/>
				<path fill="#231F20" d="M239.583,278.948l0.063-0.156C239.591,278.844,239.58,278.898,239.583,278.948z"/>
				<path fill="#231F20" d="M232.819,292.706l-0.177,0.012C232.726,292.727,232.779,292.72,232.819,292.706z"/>
				<g>
					<path fill="#231F20" d="M244.905,293.808c5.45,0.227,10.918,0.004,16.323-0.702c5.57-0.732,11.068-1.823,16.733-2.128
						c2.993-0.093,5.973-0.186,8.951-0.277c1.486-0.055,2.98-0.114,4.459-0.212c1.46-0.114,2.921-0.253,4.384-0.431
						c2.923-0.358,5.909-0.551,8.855-0.658c1.497-0.076,2.995-0.151,4.498-0.228c1.508-0.062,3.021-0.111,4.545-0.271
						c2.936-0.254,5.883-0.831,8.576-1.377c1.376-0.286,2.764-0.521,4.164-0.674c1.397-0.151,2.807-0.297,4.212-0.245
						c1.503,0.051,2.994,0.196,4.484,0.279c0.717,0.052,4.295-0.813,5.038-1.229c0.337-0.186-1.793-1.113-2.408-1.358
						c-1.979-0.861-5.148-1.72-6.776-1.966c-1.651-0.267-2.858-0.372-4.077-0.46c-1.218-0.068-2.446-0.128-4.127-0.038
						c-1.729,0.088-3.448,0.176-5.159,0.264c-1.672,0.067-3.334,0.126-4.991,0.159c-1.652,0.072-3.324-0.083-4.981-0.182
						c-1.655-0.113-3.313-0.284-5.013-0.58c-5.381-0.919-11.346,0.025-16.766-0.442c-2.978-0.228-5.946-0.554-8.912-0.805
						c-1.483-0.126-2.965-0.233-4.448-0.3c-1.486-0.078-2.99-0.19-4.489-0.201c-6.391-0.082-12.737-1.044-19.122-1.067
						c-3.148-0.011-6.295,0.036-9.444,0.068c-3.146-0.059-6.293-0.154-9.441-0.324c-3.673-0.201-7.345-0.462-11.008-0.78
						c-4.645-0.407-9.228-0.628-13.931-0.863l-14.139-0.68c-8.466-0.452-16.487-2.246-24.705-2.47
						c-2.199-0.019-4.71-0.265-7.221-0.083c-2.498,0.148-4.921,0.516-6.982,1.745c-0.998,0.591-1.493,1.829-1.687,2.958
						c0.298-1.855,4.536,2.722,4.903,2.961c2.006,1.458,4.365,2.117,6.59,3.149c2.161,1.004,4.208,1.97,6.319,2.879
						c2.116,0.913,4.273,1.626,6.645,1.985c9.945,1.495,19.73,1.531,29.377,2.168c8.37,0.472,16.87,0.709,25.29,1.284
						c2.522,0.171,5.085,0.407,7.67,0.649C239.679,293.586,242.294,293.676,244.905,293.808z"/>
				</g>
			</g>
		</g>
	</g>
	<g>
		<g>
			<g>
				<path fill="#231F20" d="M134.237,394.029l-0.079,0.182C134.201,394.133,134.249,394.092,134.237,394.029z"/>
				<path fill="#231F20" d="M145.19,367.513l0.131,0.103C145.289,367.548,145.239,367.522,145.19,367.513z"/>
				<path fill="#231F20" d="M133.46,357.729l0.026-0.158C133.46,357.643,133.456,357.691,133.46,357.729z"/>
				<g>
					<path fill="#231F20" d="M129.471,367.956c-0.939,2.285-1.706,4.628-2.48,6.979c-0.809,2.339-1.409,4.756-2.083,7.158
						c-0.656,2.488-1.2,5.033-1.946,7.521c-0.361,1.247-0.736,2.494-1.171,3.721c-0.458,1.216-0.96,2.418-1.53,3.593
						c-2.412,4.983-5.207,9.715-7.554,14.772c-2.413,5.068-5.371,9.644-8.558,14.269c-3.038,4.473-5.087,9.598-8.551,13.803
						c-0.929,1.119-1.94,2.169-2.899,3.263c-0.118,0.134-0.29,0.449-0.482,0.859c-0.045,0.101-0.092,0.207-0.141,0.316
						c-0.018,0.068-0.037,0.141-0.057,0.214c-0.038,0.156-0.078,0.319-0.118,0.482c-0.111,0.752-0.642,1.17-0.786,1.517
						c-0.069,0.143,0.396,0.207,0.935,0.274c0.561,0.084,1.177-0.074,1.376-0.22c0.383-0.195,0.805-0.419,1.313-0.768
						c0.505-0.343,1.025-0.707,1.527-1.07c1.002-0.725,1.928-1.444,2.499-1.975c2.29-2.163,3.355-3.178,5.308-5.675
						c4.028-5.17,7.736-10.353,12.281-15.184c1.82-1.967,3.301-4.232,4.704-6.554c1.363-2.35,2.729-4.699,4.218-6.938
						c1.639-2.41,3.361-4.779,4.942-7.25c1.63-2.438,3.092-4.992,4.354-7.654c2.617-5.688,5.902-11.113,8.002-17.096
						c2.144-5.857,3.685-11.917,5.379-17.927l1.41-5.291l0.683-2.474c0.215-0.792,0.463-1.606,0.717-2.42
						c1.266-4.106,2.569-8.425,3.636-13.021c1.053-4.603,1.857-9.515,1.959-14.693c0.076-1.631-0.004-3.298-0.038-4.963
						c-0.022-0.832-0.137-1.673-0.201-2.512c-0.072-0.841-0.14-1.684-0.309-2.519l-0.444-2.52c-0.187-0.832-0.431-1.65-0.656-2.479
						c-0.229-0.827-0.458-1.659-0.793-2.441l-0.841-2.102c0.012-0.021,0.03,0.006,0.026-0.044c0.001-0.016-0.029-0.131-0.054-0.231
						l-0.088-0.343l-0.423-1.606c-0.301-1.103-0.631-2.231-1.003-3.353c-1.305-3.956-2.815-9.553-6.319-12.024
						c-0.2-0.108-0.434-0.195-0.691-0.267l-0.197-0.05c-0.066-0.011-0.138-0.054-0.194,0.021c-0.12,0.093-0.256,0.162-0.398,0.212
						c-0.578,0.194-1.214,0.067-1.773-0.029c0.23,0.043,0.395,0.062,0.48,0.027c0.043-0.012,0.059-0.053,0.056-0.058
						c0.015,0.075,0.016,0.163,0.004,0.261c-0.059,0.368-0.251,1.012-0.514,1.667c-0.504,1.328-1.217,2.792-1.268,2.979
						c-0.614,2.269-0.537,4.61-0.737,6.916c-0.164,1.88-0.413,3.705-0.584,5.54c-0.086,0.916-0.148,1.841-0.166,2.78
						c0.005,0.498-0.009,0.932,0.042,1.492c0.028,0.481,0.225,1.423,0.489,2.173l0.072,0.174l0.035,0.079l0.001,0.007l0.005,0.025
						l0.009,0.051l0.02,0.103l0.041,0.204l0.093,0.41c0.067,0.273,0.145,0.546,0.233,0.816c1.078,3.593,1.589,7.103,1.517,10.898
						c-0.049,3.781-0.633,7.812-1.646,12.05c-0.863,3.606-1.925,7.357-2.981,11.304l-0.784,3.002l-0.754,3.063l-1.459,5.537
						c-0.636,2.193-1.433,4.385-2.186,6.602C131.147,363.535,130.309,365.746,129.471,367.956z"/>
				</g>
			</g>
		</g>
	</g>
	<g>
		<g>
			<g>
				<path fill="#231F20" d="M118.791,131.043l0.097,0.416C118.853,131.27,118.851,131.142,118.791,131.043z"/>
				<path fill="#231F20" d="M107.731,71.723l0.155,0.109C107.835,71.73,107.781,71.712,107.731,71.723z"/>
				<path fill="#231F20" d="M95.032,57.311l0.063-0.406C95.051,57.097,95.036,57.218,95.032,57.311z"/>
				<g>
					<path fill="#231F20" d="M94.043,85.144c0.163,1.537,0.429,3.015,0.707,4.488c0.277,1.473,0.536,2.967,0.85,4.416
						c0.663,2.862,1.322,5.77,2.093,8.526c0.753,2.808,1.53,5.53,2.333,8.232c0.793,2.676,1.585,5.348,2.375,8.012
						c3.262,11.214,6.931,22.239,9.533,33.758c1.354,6.105,2.702,12.183,4.05,18.258c1.469,6.052,3.035,12.081,4.729,18.101
						c3.423,12.108,6.114,24.009,8.885,36.284c2.826,11.806,6.952,23.205,9.444,35.071c0.665,3.169,1.233,6.34,1.865,9.514
						c0.311,1.562,3.112,9.085,3.883,10.487c0.352,0.639,0.108-4.151,0.028-5.477c-0.264-4.354-0.839-10.973-1.343-14.326
						c-1.021-6.788-1.511-9.943-3.012-16.778c-1.537-7.062-3.143-14.008-4.547-20.981c-1.353-6.987-2.597-13.978-3.603-21.072
						c-1.605-11.474-5.147-23.092-7.254-34.601c-2.118-12.507-3.845-25.063-6.557-37.509c-0.722-3.311-1.39-6.63-2.031-9.954
						l-0.955-4.998l-1.022-5.09c-1.405-6.54-2.81-13.079-4.217-19.63c-1.335-6.284-2.21-12.446-2.342-18.492l0.003-2.256
						c0.023-0.748-0.058-1.517,0.058-2.247l0.442-4.434c0.26-1.471,0.583-2.938,0.868-4.41c0.119-0.741,0.336-1.464,0.563-2.187
						l0.653-2.172c0.438-1.709,1.188-3.336,1.823-4.994c0.33-0.818,0.638-1.688,1.021-2.391c0.381-0.727,0.688-1.517,1.128-2.187
						c1.591-2.833,3.557-5.287,5.836-7.165c1.405-1.246,3.009-2.13,4.637-2.936l1.262-0.527c0.412-0.194,0.875-0.276,1.307-0.429
						c0.858-0.323,1.8-0.442,2.706-0.662c3.72-0.618,7.791-0.371,11.903,0.53c3.922,0.865,7.915,2.603,11.937,4.73
						c4.023,2.173,8.051,4.737,12.188,7.408c3.746,2.416,7.532,4.97,11.637,7.373c1.03,0.599,2.058,1.2,3.151,1.763
						c0.543,0.284,1.066,0.579,1.627,0.852l1.737,0.785l1.744,0.779c0.581,0.268,1.166,0.518,1.762,0.708l3.57,1.238
						c4.776,1.428,9.456,2.279,13.83,2.993c2.112,0.343,4.229,0.687,6.354,1.031c1.059,0.15,2.032,0.37,3.046,0.55
						c1.113,0.2,2.228,0.4,3.346,0.601c2.774,0.487,5.745,0.761,8.635,0.835c2.895,0.08,5.706-0.016,8.297-0.143
						c5.213-0.297,9.471-0.505,13.211-0.864c1.794-0.149,2.813-1.137,3.252-2.202c-0.38,0.88-2.393-0.517-4.783-1.85
						c-2.361-1.364-5.087-2.678-5.46-2.8c-4.526-1.585-9.735-1.977-14.313-3.034c-2.223-0.504-4.283-1.156-6.203-1.92l-1.452-0.591
						l-1.666-0.637c-1.109-0.409-2.246-0.873-3.357-1.223c-4.515-1.537-9.031-2.632-13.524-3.691l-1.763-0.408l-1.676-0.474
						l-1.673-0.46l-1.585-0.562l-1.582-0.549c-0.531-0.174-1.008-0.442-1.515-0.653c-1.004-0.475-1.989-0.817-3.022-1.401
						c-4.094-2.1-8.257-4.776-12.564-7.557c-4.304-2.779-8.791-5.701-13.679-8.392c-2.458-1.336-5.004-2.632-7.75-3.751
						c-2.687-1.156-5.673-2.101-8.676-2.795c-4.991-1.122-10.362-1.585-15.841-0.864c-2.735,0.319-5.472,1.065-8.128,2.018
						c-2.617,1.074-5.204,2.325-7.484,4.003c-2.35,1.591-4.373,3.536-6.257,5.548c-0.853,1.057-1.778,2.088-2.544,3.19
						c-0.743,1.11-1.575,2.194-2.194,3.349c-0.66,1.142-1.339,2.282-1.869,3.457l-0.842,1.754c-0.275,0.583-0.464,1.136-0.7,1.706
						c-0.877,2.273-1.871,4.495-2.521,6.871c-0.423,1.404-0.891,2.8-1.28,4.23c-0.324,1.454-0.649,2.914-0.976,4.377
						c-0.144,0.738-0.364,1.457-0.444,2.213l-0.297,2.259l-0.292,2.268c-0.087,0.757-0.222,1.519-0.222,2.271
						c-0.08,3.008-0.327,6.086-0.078,9.043c0.085,1.487,0.125,2.999,0.262,4.471L94.043,85.144z"/>
				</g>
			</g>
		</g>
	</g>
	<g>
		<g>
			<g>
				<path fill="#231F20" d="M232.294,120.632l0.161-0.007C232.383,120.62,232.335,120.594,232.294,120.632z"/>
				<path fill="#231F20" d="M204.298,123.768l-0.01-0.178C204.245,123.678,204.263,123.73,204.298,123.768z"/>
				<path fill="#231F20" d="M211.868,135.832l0.015,0.018C211.89,135.847,211.882,135.84,211.868,135.832z"/>
				<g>
					<path fill="#231F20" d="M214.014,135.613c1.932-0.279,3.863-0.558,5.791-0.836l1.387-0.21c0.442-0.043,0.886-0.097,1.334-0.161
						l0.674-0.104l0.917-0.085l1.829-0.207c5.018-0.648,9.801-2.038,14.635-2.569c5.132-0.536,10.187-1.082,15.117-2.36
						c1.234-0.33,2.465-0.617,3.696-0.873c1.22-0.245,2.379-0.393,3.576-0.558c1.188-0.156,2.381-0.292,3.578-0.417
						c1.196-0.125,2.45-0.159,3.685-0.238c2.396-0.119,4.744-0.616,7.126-0.974c2.38-0.36,4.768-0.676,7.182-0.575
						c1.289,0.056,2.57,0.245,3.854,0.353c0.63,0.056,3.761-0.947,4.367-1.376c0.276-0.196-1.618-1.056-2.148-1.281
						c-1.73-0.739-4.399-1.697-5.771-1.969c-2.77-0.512-4.065-0.734-6.889-0.789c-5.856-0.057-11.465,0.053-17.547-0.438
						c-0.613-0.058-1.229-0.087-1.844-0.094c-0.589,0.005-1.169,0.035-1.752,0.08c-1.163,0.084-2.329,0.255-3.485,0.402
						c-1.157,0.155-2.316,0.311-3.471,0.466c-1.154,0.123-2.306,0.21-3.455,0.226c-4.983,0.03-9.876-0.538-14.683-0.424
						c-1.278,0.003-2.561-0.011-3.829-0.116l-3.792-0.417c-3.264-0.354-6.447-0.349-9.459,0.074l-2.178,0.371l-0.543,0.097
						c-0.178,0.031-0.351,0.061-0.604,0.121l-1.394,0.331c-1.862,0.543-3.803,1.204-5.968,2.688
						c-2.031,1.403-3.727,3.245-4.845,5.395c-1.128,2.145-1.632,4.583-1.533,7.004c0.055,1.415,0.321,2.825,0.755,4.184l0.358,1.012
						c0.124,0.34,0.255,0.678,0.39,0.937c0.269,0.556,0.546,1.124,0.836,1.657c0.588,0.971,1.195,1.938,1.885,2.764
						c0.337,0.427,0.676,0.865,1.021,1.277l1.054,1.106c0.894,0.981,1.809,1.703,2.734,2.507c0.92,0.727,1.853,1.421,2.78,2.056
						c1.851,1.243,3.71,2.359,5.521,3.348c3.625,2.011,7.181,3.74,10.346,5.618c2.841,1.672,5.254,3.771,6.573,5.553l0.134,0.164
						l0.256,0.29l0.738,0.792l0.377,0.391l0.339,0.316l0.685,0.625c0.897,0.787,1.751,1.453,2.574,2.041
						c1.653,1.185,3.241,2.143,4.814,2.96c1.658,0.86,3.464,1.875,5.12,2.548c1.686,0.692,3.096,0.958,4.616,0.605
						c0.691-0.204,2.011-0.57,3.055-1.018c-0.909,0.355-0.624-0.383-0.685-1.653c-0.013-0.618-0.084-1.304-0.133-1.884
						c-0.076-0.552-0.142-0.982-0.17-1.068c-0.722-2.101-2.248-3.729-3.509-5.438c-1.232-1.664-2.345-3.319-3.438-4.853
						c-1.076-1.522-2.218-2.96-3.119-3.966l-0.337-0.375c-0.057-0.1-0.117-0.194-0.179-0.283l-0.099-0.132l-0.347-0.389
						l-0.706-0.772c-0.476-0.521-0.96-1.024-1.439-1.435l-1.462-1.291c-1.937-1.54-3.915-2.903-5.825-4.026
						c-3.85-2.32-7.592-4.137-11.006-6.08c-2.886-1.635-5.588-3.279-7.558-4.95c-0.259-0.207-0.433-0.415-0.658-0.617
						c-0.194-0.203-0.474-0.406-0.607-0.601c-0.298-0.391-0.685-0.759-0.883-1.132c-0.501-0.854-0.4-0.709-0.4-0.873
						c0.03-0.14,0.199-0.226,0.325-0.199c0.033,0.006,0.063,0.016,0.089,0.031l0.036,0.022c0.037,0.004,0.131-0.01,0.187-0.024
						c0.073-0.042,0.371-0.08,0.591-0.14C213.429,135.684,213.752,135.676,214.014,135.613z"/>
				</g>
			</g>
		</g>
	</g>
	<g>
		<g>
			<g>
				<path fill="#231F20" d="M415.19,451.582c0,0,0.036,0.434,0.073,0.868c0.032,0.438,0.051,0.871,0.044,0.845
					C415.292,452.563,415.266,452.008,415.19,451.582z"/>
				<path fill="#231F20" d="M359.851,320.8l0.241,0.196C359.954,320.779,359.888,320.758,359.851,320.8z"/>
				<path fill="#231F20" d="M341.669,293.144l0.105-0.911C341.709,292.667,341.682,292.939,341.669,293.144z"/>
				<g>
					<path fill="#231F20" d="M354.769,352.207c4.007,12.715,8.709,25.231,14.229,37.315c1.364,3.025,2.887,5.964,4.331,8.939
						c1.47,2.96,2.922,5.936,4.422,8.862c3.099,5.731,6.246,11.521,9.357,17.121c2.997,5.459,6.169,10.872,8.955,16.351l4.311,8.204
						l1.078,2.055c0.396,0.75,0.973,1.905,1.229,2.238c0.484,0.594,0.396,0.577,0.463,1.792c1.659-1.851,3.319-3.701,4.984-5.558
						l-5.201,0.818l-2.603,0.405l-0.877,0.129c-0.365,0.063-0.715,0.063-1.107,0.24l-1.147,0.412l-0.555,0.21
						c-2.638,1.145-5.74,1.693-9.025,2.148c-3.267,0.438-6.876,0.666-10.582,1.151l-2.824,0.4l-2.891,0.597
						c-1.728,0.378-3.457,0.757-5.189,1.137c-1.692,0.348-3.354,0.783-5.068,1.06l-5.14,0.829c-0.858,0.134-1.71,0.286-2.572,0.404
						l-2.602,0.31l-5.202,0.619c-3.501,0.332-6.988,0.668-10.514,0.954l-10.612,0.845c-7.09,0.538-14.271,1.257-21.443,2.238
						c-3.551,0.481-7.02,1.018-10.534,1.528c-3.492,0.456-6.992,0.989-10.485,1.406c-1.757,0.2-3.511,0.399-5.262,0.599
						l-2.626,0.291l-2.618,0.193c-1.745,0.127-3.487,0.254-5.229,0.38l-2.807,0.214c-1.012,0.063-1.938,0.242-2.905,0.364
						c-3.728,0.61-7.187,1.546-10.106,1.737c-1.443,0.082-2.711-0.017-3.708-0.364c-0.977-0.376-1.807-1.031-2.637-1.931
						c-0.787-1.047-1.46-2.173-2.13-3.687c-0.317-0.744-0.713-1.55-0.967-2.242l-0.324-0.977l-0.17-0.485
						c-0.042-0.165-0.054-0.336-0.083-0.503c-0.101-0.673-0.249-1.29-0.279-2.188l-0.088-1.244l-0.105-1.335
						c-0.138-1.92-0.379-3.869-0.833-5.849c-0.256-0.993-0.467-1.982-0.87-2.983c-0.19-0.498-0.345-0.997-0.572-1.492l-0.737-1.481
						c-1.085-1.937-2.531-3.861-4.486-5.287c-1.933-1.43-4.166-2.341-6.347-2.823c-2.201-0.512-4.31-0.524-6.358-0.46
						c-1.964,0.075-3.904,0.416-5.537,0.629l-5.105,0.738c-3.4,0.513-6.798,1.025-10.194,1.537c-3.39,0.56-6.8,0.971-10.203,1.425
						l-10.212,1.351c-3.401,0.483-6.816,0.829-10.232,1.181l-10.251,1.033c-1.71,0.157-3.418,0.348-5.132,0.467l-5.145,0.339
						c-3.431,0.216-6.864,0.412-10.3,0.582c-1.857,0.1-3.615,0.154-5.546,0.276l-2.914,0.191c-0.963,0.098-1.917,0.229-2.876,0.343
						c-3.816,0.511-7.563,1.266-11.201,2.171c-1.818,0.405-7.074,2.163-12.172,3.861c-4.921,1.356-10.468,3.2-12.148,3.849
						c-0.78,0.302,1.567-0.03,4.45-0.489c2.924-0.509,6.178-0.907,7.663-1.144c4.782-0.832,10.839-2.272,16.695-3.249
						c1.462-0.25,2.908-0.483,4.323-0.646c0.706-0.087,1.397-0.193,2.081-0.262c0.684-0.058,1.354-0.114,2.008-0.17
						c1.303-0.143,2.548-0.162,3.7-0.198c1.145-0.047,2.218-0.07,3.186-0.089c7.808-0.188,13.537-0.329,19.314-0.53
						c5.767-0.334,11.582-0.736,19.573-1.354c4.125-0.345,8.223-0.818,12.319-1.222c4.091-0.442,8.185-0.786,12.25-1.306
						c4.066-0.515,8.124-1.029,12.176-1.542l6.078-0.761c1.962-0.238,3.778-0.437,5.567-0.327c1.766,0.103,3.425,0.45,4.813,1.117
						c1.391,0.663,2.506,1.643,3.384,2.917c1.775,2.557,2.44,6.258,2.633,9.957c0.129,1.917,0.104,4.112,0.585,6.635
						c0.154,0.594,0.343,1.18,0.521,1.771l0.276,0.884c0.095,0.283,0.2,0.508,0.3,0.765l0.608,1.496
						c0.21,0.504,0.377,0.979,0.671,1.538c0.533,1.08,1.033,2.164,1.817,3.224c0.36,0.532,0.702,1.067,1.2,1.563
						c0.479,0.494,0.898,1.024,1.455,1.471c0.566,0.438,1.136,0.884,1.735,1.286c0.641,0.346,1.296,0.678,1.958,0.993
						c0.673,0.241,1.361,0.447,2.05,0.651c0.678,0.153,1.346,0.239,2.025,0.347c4.292,0.395,7.837-0.433,11.033-0.919
						c1.621-0.281,3.115-0.473,4.589-0.621c1.594-0.075,3.19-0.15,4.789-0.227c3.43-0.16,6.882-0.3,10.291-0.658l5.138-0.47
						c1.709-0.172,3.402-0.394,5.106-0.59l5.104-0.614l5.068-0.681c1.68-0.219,3.397-0.47,5.046-0.661l4.948-0.578
						c6.6-0.742,13.286-1.179,19.944-1.558c13.481-0.75,27.276-1.457,41.108-4.29l2.591-0.502l2.148-0.371
						c0.362-0.06,0.704-0.14,1.081-0.184l1.145-0.119c0.771-0.075,1.507-0.175,2.306-0.234c3.178-0.241,6.574-0.377,10.205-0.715
						c0.896-0.075,1.856-0.232,2.782-0.349c0.932-0.119,1.864-0.243,2.841-0.481l2.893-0.641c0.973-0.307,1.947-0.639,2.918-0.969
						l0.296-0.102l-0.006,0.002c0.005,0-0.028,0.005,0.007,0.002l0.128-0.011l0.586-0.067l2.526-0.294l5.056-0.602l5.674-0.675
						l0.026-5.681l0.011-2.102c-0.035-0.866-0.098-1.731-0.292-2.571c-0.216-0.843-0.561-1.62-1.009-2.372l-0.506-0.837
						l-0.237-0.389l-0.112-0.235l-4.942-10.34c-1.68-3.55-3.332-7.122-5.114-10.563c-3.452-6.918-6.904-13.834-10.355-20.749
						c-0.845-1.72-1.725-3.434-2.543-5.158l-2.375-5.187l-4.762-10.361l-4.38-10.503c-1.415-3.518-2.709-7.082-4.092-10.615
						c-0.7-1.735-1.304-3.505-1.905-5.275l-1.829-5.302c-1.28-3.514-2.294-7.117-3.403-10.689l-1.656-5.408
						c-0.614-1.985-1.229-3.978-1.932-5.843c-1.355-3.794-2.838-7.364-4.142-10.808c-0.689-1.742-1.25-3.415-1.854-5.109
						c-0.49-1.659-1.085-3.337-1.422-4.959l-0.297-1.226l-0.15-0.612l-0.087-0.588l-0.362-2.348
						c-0.088-0.795-0.104-1.613-0.165-2.419c-0.081-0.8-0.059-1.633-0.036-2.467c-0.024-1.647,0.164-3.364,0.299-5.067
						c0.24-1.736,0.432-3.457,0.781-5.238c0.291-1.756,0.69-3.568,1.062-5.367c0.415-1.824,0.799-3.679,1.285-5.469
						c4.007-16.847,10.192-33.644,14.687-51.379c1.492-5.628,2.634-11.128,3.877-16.67c1.254-5.412,2.35-10.941,3.794-16.159
						l1.023-3.963l0.51-1.982l0.609-2.006l2.433-8.024l2.426-8.025c0.8-2.701,1.635-5.289,2.398-8.099
						c6.735-21.983,10.868-44.7,13.478-67.299c0.617-5.12,1.157-10.346,1.407-15.702c0.268-5.343,0.162-10.868-0.726-16.534
						l-0.327-2.122c-0.146-0.712-0.342-1.431-0.513-2.146c-0.372-1.419-0.677-2.895-1.163-4.235
						c-0.909-2.735-2.042-5.464-3.489-8.122c-1.445-2.655-3.213-5.242-5.364-7.605c-2.142-2.366-4.7-4.472-7.515-6.151
						c-1.408-0.838-2.876-1.582-4.382-2.191c-1.565-0.677-2.877-0.999-4.293-1.451l-2.098-0.631
						c-0.699-0.198-1.399-0.311-2.101-0.467c-1.398-0.269-2.815-0.633-4.205-0.805c-5.609-0.882-11.067-0.976-16.384-0.915
						c-1.317,0.037-2.655,0.056-3.957,0.112l-3.889,0.191l-3.82,0.228l-0.954,0.059l-0.477,0.03l-0.921,0.104
						c-1.3,0.135-2.409,0.456-3.527,0.804c-2.09,0.752-3.748,1.707-5.182,2.639c-1.368,0.926-2.569,1.85-3.619,2.696
						c-1.036,0.829-2.008,1.64-2.836,2.273c-0.841,0.65-1.609,1.201-2.161,1.5l-0.226,0.138l-0.178,0.079
						c-0.102,0.037-0.253,0.152-0.302,0.141c-0.034,0.009-0.067,0.021-0.1,0.036l-0.048,0.026l-0.023,0.015l-0.148,0.045
						c-0.434,0.132-0.869,0.264-1.306,0.397c-0.437,0.137-0.874,0.274-1.313,0.412c-0.4,0.153-0.802,0.308-1.206,0.463
						c-0.795,0.315-1.631,0.626-2.358,0.976c-3.063,1.351-5.858,2.881-8.551,4.378c-1.3,0.723-2.609,1.451-3.924,2.182l-0.478,0.263
						l-0.232,0.127l-0.173,0.078l-0.686,0.325c-0.429,0.247-0.959,0.421-1.479,0.611c-2.072,0.78-4.952,1.275-8.467,2.247
						c-0.846,0.223-1.791,0.567-2.671,0.855c-0.892,0.297-1.813,0.744-2.704,1.122c-0.64,0.285-1.277,0.568-1.912,0.851
						c-0.561,0.26-1.119,0.52-1.674,0.778c-1.159,0.44-2.354,0.809-3.512,1.242c-1.236,0.32-2.454,0.636-3.651,0.947
						c-4.928,1.106-10.044,1.645-14.58,2.448c-4.427,0.775-5.805,2.105-5.779,3.247c-0.004-0.47,1.498-0.599,3.777-0.526
						c2.271,0.081,5.294,0.389,8.365,0.692c1.539,0.159,3.083,0.251,4.57,0.39c1.48,0.093,2.89,0.121,4.147,0.182
						c2.496-0.009,4.368-0.092,4.809-0.126c1.324-0.227,2.666-0.456,4.021-0.687c1.332-0.356,2.672-0.774,4.037-1.186
						c1.31-0.382,2.451-0.802,3.763-1.041c0.625-0.154,1.281-0.265,1.945-0.366c0.652-0.112,1.32-0.214,2.013-0.305
						c2.718-0.382,5.693-0.775,8.646-1.811c0.718-0.278,1.491-0.556,2.167-0.846l1.948-0.876c1.267-0.576,2.529-1.15,3.785-1.722
						c2.411-1.063,4.776-2.096,7.082-2.856c0.579-0.22,1.146-0.367,1.71-0.532c0.564-0.166,1.129-0.338,1.664-0.426l0.809-0.166
						l0.401-0.084l0.621-0.15c0.918-0.206,1.721-0.508,2.521-0.823c3.066-1.337,5.345-3.037,7.44-4.442
						c1.041-0.702,2.036-1.371,2.949-1.875c0.918-0.525,1.778-0.92,2.436-1.063l0.248-0.073c0.076-0.011,0.143-0.009,0.212-0.017
						c0.129,0.002,0.283-0.067,0.381-0.031c0.106,0.018,0.201,0.022,0.304,0.014l0.967,0.004c1.288,0.002,2.58,0.005,3.878,0.008
						c2.559,0.021,5.136,0.026,7.676,0.104c5.092,0.148,10.156,0.471,15.094,1.356c1.265,0.292,2.55,0.531,3.795,0.841l3.62,1.129
						c2.032,0.773,3.852,1.84,5.486,3.193c1.608,1.391,3.045,3.063,4.275,5.01c1.221,1.958,2.25,4.153,3.094,6.502
						c3.204,9.152,2.649,20.346,1.402,31.736c-0.29,2.868-0.727,5.762-1.103,8.646l-1.156,8.66c-0.33,2.901-0.909,5.738-1.39,8.601
						l-1.494,8.578l-0.373,2.146c-0.14,0.711-0.313,1.414-0.468,2.121l-0.954,4.239l-1.904,8.484
						c-0.163,0.706-0.306,1.417-0.486,2.119l-0.591,2.092l-1.181,4.186l-2.362,8.379l-0.502,1.781l-0.553,1.826l-1.107,3.653
						l-2.211,7.307l-2.207,7.307l-1.103,3.654c-0.359,1.226-0.659,2.517-0.99,3.772l-1.939,7.583
						c-0.598,2.514-1.111,5.001-1.671,7.503l-3.207,14.791c-4.155,19.155-11.271,38.021-16.194,58.359
						c-0.411,1.507-0.714,3.006-1.073,4.514c-0.331,1.545-0.663,3.093-0.996,4.644c-0.602,3.181-1.2,6.42-1.489,9.858
						c-0.376,3.391-0.367,6.981-0.124,10.597c0.065,0.904,0.229,1.822,0.346,2.734c0.145,0.896,0.225,1.863,0.436,2.701
						c0.402,1.694,0.727,3.478,1.237,5.083c1.86,6.606,4.373,12.541,6.343,18.115c0.447,1.37,1,2.784,1.363,4.115l1.265,4.275
						L354.769,352.207z"/>
				</g>
			</g>
		</g>
	</g>
	<g>
		<g>
			<g>
				<path fill="#231F20" d="M228.015,214.208l0.195-0.001C228.123,214.199,228.066,214.171,228.015,214.208z"/>
				<path fill="#231F20" d="M212.044,211.149l0.181-0.018C212.166,211.133,212.103,211.14,212.044,211.149z"/>
				<path fill="#231F20" d="M200.229,203.036c-0.006-0.003,0.162-0.276,0.161-0.277C200.294,202.881,200.25,202.966,200.229,203.036
					z"/>
				<g>
					<path fill="#231F20" d="M196.2,222.98l0.027,1.843l1.668-0.114l0.835-0.059c0.291-0.023,0.435-0.004,0.659-0.009l2.47,0.008
						h2.474l1.736,0.639c1.125,0.416,2.401,0.895,3.313,1.088c0.741,0.174,1.488,0.362,2.221,0.467
						c2.955,0.515,5.828,0.606,8.54,0.444c5.872-0.368,11.09-1.774,16.156-1.428c2.958,0.107,5.904,0.374,8.836,0.396
						c1.465-0.002,2.929-0.017,4.393-0.057l2.196-0.083l2.185-0.216c2.931-0.329,5.815-0.46,8.684-0.671
						c1.437-0.085,2.874-0.15,4.318-0.205c1.438-0.083,2.883-0.166,4.338-0.249c2.813-0.137,5.57-0.672,8.321-1.174
						c2.759-0.477,5.494-0.981,8.292-1.051c1.495-0.032,2.987,0.019,4.477,0c0.734-0.007,4.27-1.316,4.927-1.803
						c0.3-0.222-1.95-0.893-2.573-1.066c-2.045-0.572-5.15-1.251-6.725-1.418c-3.185-0.329-4.661-0.424-7.864-0.333
						c-3.307,0.104-6.564,0.244-9.813,0.181c-3.248-0.001-6.485-0.26-9.733-0.745c-2.626-0.381-5.27-0.492-7.934-0.438
						c-2.656,0.002-5.309-0.061-7.905-0.342c-1.399-0.194-2.781-0.476-4.163-0.725l-4.236-0.776
						c-3.102-0.553-6.117-0.851-8.998-0.928c-3.072-0.075-5.961-0.413-8.627-0.953c-1.344-0.254-2.599-0.593-3.818-0.938
						c-0.313-0.075-0.602-0.18-0.896-0.275l-0.618-0.198c-0.108-0.046-0.167-0.069-0.264-0.09c-0.1-0.026-0.21-0.044-0.323-0.078
						c-0.491,0.072-0.487-0.34-0.498-0.717c0.02-0.188,0.063-0.395,0.167-0.582c0.044-0.099,0.111-0.185,0.175-0.276
						c0.023-0.035,0.22-0.228,0.361-0.378c0.159-0.158,0.28-0.317,0.479-0.479c0.921-0.877,2.167-1.787,3.566-2.756
						c1.403-0.974,2.979-2.003,4.66-3.245l0.808-0.627l0.402-0.316c0.057-0.043,0.156-0.126,0.179-0.138l0.088-0.053
						c0.257-0.15,0.364-0.271,0.822-0.537c0.71-0.458,1.628-0.976,2.504-1.49l5.732-3.156l12.028-6.501
						c0.744-0.41,1.491-0.803,2.245-1.193l0.571-0.306l0.394-0.219l0.497-0.283l2-1.13c1.273-0.813,2.543-1.625,3.813-2.436
						c1.104-0.895,2.164-1.818,3.222-2.766l0.8-1.145c0.254-0.386,0.578-0.761,0.693-1.174c0.315-0.825,0.699-1.565,0.779-2.604
						c0.193-2.009-0.181-3.702-1.029-5.461c-0.852-1.745-2.324-3.449-4.081-5.018c-0.889-0.781-1.837-1.534-2.82-2.255
						c-0.497-0.357-0.994-0.713-1.503-1.055l-0.766-0.516l-0.389-0.25l-0.216-0.132c-2.03-1.223-4.354-2.583-6.748-3.535
						c-1.196-0.477-2.408-0.852-3.597-1.059c-1.173-0.198-2.388-0.266-3.345-0.002c-0.234,0.059-0.314,0.274-0.552,0.392
						c-0.098,0.078-0.228,0.122-0.26,0.22c-0.056,0.112-0.11,0.22-0.163,0.326c-0.233,0.455-0.53,0.95-0.861,1.393
						c0.135-0.182,0.162-0.313,0.108-0.395c-0.026-0.036-0.078-0.079-0.143-0.06c0.002,0.068,0.082,0.122,0.126,0.199
						c0.144,0.242,0.523,0.859,0.829,1.495c0.646,1.293,1.228,2.832,1.326,2.999c1.226,2.03,2.943,3.636,4.356,5.442
						c0.684,0.874,1.31,1.76,1.902,2.64c0.07,0.106,0.158,0.227,0.209,0.323l0.049,0.212c0.031,0.141,0.055,0.276,0.071,0.406
						c0.033,0.26,0.037,0.497,0.02,0.71c-0.064,0.866-0.514,1.294-0.656,1.556c-0.06,0.242-0.514,0.353-0.719,0.391
						c-0.26,0.049-0.447,0.079-0.546,0.081l-4.352,2.352c-3.403,1.818-6.81,3.637-10.229,5.463
						c-1.815,0.962-3.646,1.963-5.518,3.044c-0.459,0.257-0.944,0.551-1.426,0.844c-0.492,0.304-0.94,0.555-1.466,0.903
						l-1.557,1.033l-0.949,0.723l-0.854,0.678c-1.13,0.996-2.618,2.064-4.314,3.272c-1.696,1.219-3.616,2.579-5.597,4.399
						c-0.292,0.257-0.594,0.578-0.89,0.866c-0.3,0.307-0.58,0.562-0.968,1.005c-0.752,0.907-1.562,1.813-2.131,2.843l-0.936,1.514
						c-0.293,0.513-0.487,1.063-0.738,1.595c-0.212,0.541-0.531,1.066-0.659,1.625l-0.471,1.668
						c-0.075,0.279-0.164,0.559-0.229,0.839l-0.115,0.841l-0.23,1.691c-0.116,1.125-0.043,2.228-0.071,3.351
						C196.178,218.801,196.189,220.891,196.2,222.98z"/>
				</g>
			</g>
		</g>
	</g>
</g>
</svg>
