<?xml version="1.0" encoding="utf-8"?>
<!-- Generator: Adobe Illustrator 16.0.0, SVG Export Plug-In . SVG Version: 6.00 Build 0)  -->
<!DOCTYPE svg PUBLIC "-//W3C//DTD SVG 1.1//EN" "http://www.w3.org/Graphics/SVG/1.1/DTD/svg11.dtd">
<svg version="1.1" id="Layer_1" xmlns="http://www.w3.org/2000/svg" xmlns:xlink="http://www.w3.org/1999/xlink" x="0px" y="0px"
	 width="500px" height="500px" viewBox="0 0 500 500" enable-background="new 0 0 500 500" xml:space="preserve">
<g>
	<g>
		<g>
			<g>
				<path fill="#FFFFFF" d="M268.771,270.089l0.199-0.015C268.881,270.06,268.823,269.995,268.771,270.089z"/>
				<path fill="#FFFFFF" d="M239.961,268.916l0.071-0.392C239.974,268.655,239.96,268.792,239.961,268.916z"/>
				<path fill="#FFFFFF" d="M232.334,303.797l-0.18,0.041C232.239,303.854,232.293,303.836,232.334,303.797z"/>
				<g>
					<path fill="#FFFFFF" d="M244.522,305.879c5.511,0.395,11.065-0.336,16.546-2.271c5.651-1.999,11.188-5.012,16.96-5.521
						c3.041-0.219,6.068-0.295,9.089-0.493c1.506-0.101,3.029-0.226,4.515-0.425c1.438-0.215,2.877-0.494,4.318-0.869
						c2.848-0.756,5.917-1.101,8.886-1.233c1.514-0.082,3.094-0.164,4.648-0.192c1.563-0.03,3.134-0.031,4.726-0.146
						c1.534-0.081,3.047-0.367,4.539-0.742c1.574-0.38,2.736-0.824,4.089-1.253c1.31-0.441,2.645-0.816,4.006-1.023
						c1.352-0.205,2.74-0.32,4.107-0.078c1.464,0.256,2.918,0.746,4.355,1.083c0.367,0.073,1.301-0.395,2.305-1.049
						c0.993-0.647,2.028-1.45,2.382-1.957c0.34-0.458-1.657-2.797-2.271-3.414c-1.907-2.085-5.188-4.547-6.864-5.294
						c-1.701-0.774-2.95-1.245-4.209-1.613c-1.26-0.349-2.521-0.604-4.252-0.679c-0.896-0.037-1.788-0.073-2.679-0.11
						c-0.892-0.034-1.806-0.062-2.604-0.122c-1.65-0.108-3.287-0.237-4.915-0.432c-1.62-0.155-3.269-0.577-4.89-1.01
						c-0.813-0.228-1.622-0.483-2.43-0.773c-0.814-0.295-1.675-0.655-2.511-1.038c-1.361-0.624-2.724-0.975-4.09-1.166
						c-1.411-0.19-2.863-0.22-4.297-0.206c-1.422,0.008-2.918,0.087-4.276,0.045c-1.368-0.038-2.733-0.147-4.089-0.442
						c-2.938-0.637-5.859-1.519-8.766-2.215c-1.454-0.348-2.904-0.649-4.354-0.85c-1.456-0.213-2.955-0.399-4.436-0.391
						c-6.332,0.001-12.588-2.199-18.902-2.052c-3.116,0.071-6.234,0.29-9.356,0.472c-3.12,0.092-6.242,0.125-9.358-0.048
						c-3.637-0.204-7.268-0.553-10.884-1.049c-2.285-0.313-4.573-0.524-6.864-0.675l-3.439-0.188l-3.529-0.145
						c-4.884-0.22-9.676-0.279-14.368-0.589c-2.101-0.14-4.207-0.494-6.248-0.943c-2.028-0.451-4.043-0.989-6.059-1.48
						c-1.969-0.514-3.932-0.982-5.915-1.271c-1.971-0.299-3.887-0.469-5.892-0.299c-2.135,0.192-4.481,0.104-6.949,0.949
						c-2.441,0.812-4.856,2.355-7.209,5.816c-1.136,1.676-1.953,4.835-2.434,7.658c0.4-2.315,1.359-0.893,2.315,1.183
						c0.949,2.074,1.919,4.803,2.07,5.056c1.802,3.107,4.113,4.488,6.271,6.654c2.104,2.104,4.076,4.344,6.167,6.337
						c2.102,1.997,4.249,3.599,6.658,4.285c10.107,2.86,19.898,2.558,29.237,3.171l1.509,0.084l1.601,0.07l3.204,0.118l6.408,0.198
						c4.271,0.136,8.539,0.308,12.799,0.682c2.547,0.228,5.132,0.611,7.74,1.008C239.24,305.415,241.882,305.665,244.522,305.879z"
						/>
				</g>
			</g>
		</g>
	</g>
	<g>
		<g>
			<g>
				<path fill="#FFFFFF" d="M142.99,398.217l-0.072,0.192C142.97,398.332,143.053,398.305,142.99,398.217z"/>
				<path fill="#FFFFFF" d="M154.732,370.632l0.354,0.179C154.979,370.717,154.852,370.665,154.732,370.632z"/>
				<path fill="#FFFFFF" d="M122.806,354.614l-0.007-0.157C122.768,354.522,122.776,354.57,122.806,354.614z"/>
				<g>
					<path fill="#FFFFFF" d="M118.103,363.876c-0.966,2.115-1.594,4.337-2.074,6.653c-0.516,2.309-0.658,4.761-0.725,7.311
						c-0.028,2.636,0.197,5.419,0.086,8.118c-0.042,1.354-0.131,2.694-0.344,3.989c-0.237,1.286-0.583,2.529-1.092,3.698
						c-2.162,4.952-5.011,9.505-6.623,14.875c-1.679,5.396-4.77,9.813-8.098,14.268c-3.17,4.298-3.73,10.374-7.792,14.134
						c-1.09,0.997-2.38,1.847-3.541,2.789c-0.286,0.231-0.491,1.386-0.571,2.629l-0.024,0.468l-0.002,0.059l-0.001,0.029v0.008
						l0,0.003c12.215,8.068,3.384,2.236,6.11,4.037l-0.003-0.002l-0.027-0.009l-0.213-0.071l-0.421-0.142l-0.208-0.07l-0.103-0.034
						c-0.022-0.014-0.023,0.005-0.062-0.034l-0.125-0.139c-0.327-0.374-0.603-0.781-0.826-1.207
						c-0.223-0.427-0.392-0.872-0.511-1.324c-0.06-0.226-0.107-0.453-0.143-0.681l-0.024-0.171l-0.011-0.085l-0.001-0.011
						c-1.564-3.12-0.434-0.864-0.783-1.561l0,0.003l-0.001,0.005l-0.008,0.038c-0.022,0.108-0.043,0.211-0.062,0.307
						c-0.009,0.051-0.019,0.101-0.027,0.147c-0.002,0.045-0.129,0.151-0.18,0.22c-0.27,0.309-0.46,0.574-0.565,0.775
						c-0.097,0.184,0.165,0.303,0.604,0.404c0.219,0.052,0.482,0.1,0.767,0.149c0.231,0.078,0.333,0.23,0.525,0.34l0.131,0.089
						c0.028,0.038,0.137,0.035,0.049,0.128c-0.045,0.073-0.088,0.149-0.127,0.227l-0.028,0.059l0.071,0.206
						c0.05,0.137,0.105,0.271,0.165,0.403c0.237,0.529,0.548,1.021,0.916,1.456l0.14,0.161l0.072,0.078l0.03,0.011l0.115,0.039
						l0.226,0.076c0.149,0.05,0.292,0.099,0.43,0.145c0.068,0.023,0.136,0.046,0.201,0.067l0.012,0.004l0.006,0.003l0.003,0.001
						c-4.547-2.722-1.26-0.755-2.275-1.362h0.001l0.016-0.002l0.033-0.004l0.063-0.009c0.165-0.022,0.306-0.042,0.413-0.057
						c2.759-0.409,6.639-1.313,8.199-2.092c3.135-1.591,4.576-2.357,6.818-4.679c4.633-4.81,8.733-9.774,15.013-13.644
						c2.523-1.584,4.155-3.824,5.617-6.172c1.426-2.384,2.757-4.811,4.609-6.926c2.03-2.274,4.279-4.449,6.3-6.803
						c2.065-2.315,3.878-4.825,5.154-7.605c0.694-1.467,1.435-2.928,2.267-4.343c0.815-1.427,1.737-2.8,2.573-4.233
						c1.685-2.856,3.397-5.727,4.402-8.909c2.103-6.215,3.255-12.747,5.042-19.07c0.485-1.862,1.003-3.716,1.554-5.563
						c0.3-1.017,0.491-1.589,0.739-2.346c0.226-0.7,0.502-1.463,0.788-2.226c1.424-3.833,2.746-8.257,3.855-13.276
						c1.092-5.041,1.965-10.723,2.144-17.011c0.155-3.768,0.208-7.797-0.075-11.912c-0.218-2.056-0.39-4.158-0.873-6.201
						c-0.22-1.025-0.437-2.069-0.716-3.083l-0.481-1.486l-0.254-0.742l-0.13-0.37c-0.039-0.103,0.005-0.005,0.008-0.003l0.036,0.069
						c0.078-0.046,0.144-0.078,0.201-0.101c0.014-0.008,0.021-0.002,0.031-0.019l0.012-0.017c0.004-0.004,0.009,0.003-0.01-0.081
						l-0.187-0.798c-0.287-1.117-0.685-2.336-1.21-3.499c-0.841-1.878-1.66-4.16-3.251-6.124c-0.796-0.982-1.785-1.886-3.063-2.611
						c-0.649-0.387-1.341-0.655-2.146-0.939c-0.407-0.156-0.808-0.214-1.248-0.307c-0.433-0.063-0.915-0.217-1.384-0.194
						c-0.45,0.053-0.996,0.101-1.604,0.143c-0.756,0.082-1.494,0.161-2.218,0.239c-0.4,0.04-0.795,0.079-1.188,0.118l-0.286,0.026
						l-0.071,0.007c-0.652,0.074,5.637-0.644,2.974-0.339l-0.001,0.002l-0.003,0.004l-0.007,0.008l-0.027,0.032l-0.109,0.122
						c-0.298,0.319-0.634,0.569-0.987,0.758c-1.435,0.753-3.022,0.534-4.419,0.295c0.575,0.108,0.983,0.043,1.189-0.238
						c0.103-0.125,0.141-0.346,0.125-0.493c0.017,0.055-0.005,0.122-0.059,0.201c-0.234,0.258-0.899,0.987-1.729,1.729
						c-1.635,1.535-3.84,3.357-4.025,3.575c-2.229,2.656-2.847,5.196-4.143,7.8c-1.131,2.278-2.499,4.531-3.626,6.808
						c-0.561,1.149-1.075,2.259-1.417,3.519c-0.113,0.859-0.146,1.765-0.098,2.664c-0.03,0.93,0.181,1.801,0.354,2.715
						c0.168,0.643,0.077,0.612,0.066,0.764c-0.02,0.127-0.03,0.251-0.031,0.371c-0.117,2.275-0.233,4.539-0.35,6.805
						c-0.134,2.447-0.424,5.566-1.324,9.329c-0.763,3.2-1.705,6.846-2.749,10.953l-0.793,3.177l-0.794,3.307
						c-0.439,1.728-0.904,3.449-1.415,5.157c-0.648,2.035-1.544,4.045-2.396,6.066C119.908,359.825,118.94,361.831,118.103,363.876z
						"/>
				</g>
			</g>
		</g>
	</g>
	<g>
		<g>
			<g>
				<path fill="#FFFFFF" d="M128.27,128.968l0.108,0.413C128.35,129.19,128.385,129.054,128.27,128.968z"/>
				<path fill="#FFFFFF" d="M117.77,71.677l0.391,0.089C118.031,71.682,117.895,71.667,117.77,71.677z"/>
				<path fill="#FFFFFF" d="M84.149,55.124l0.046-0.474C84.137,54.87,84.13,55.013,84.149,55.124z"/>
				<g>
					<path fill="#FFFFFF" d="M82.088,86.862c0.102,0.831,0.181,1.703,0.318,2.498l0.421,2.388c0.296,1.579,0.592,3.203,0.945,4.731
						c0.731,2.98,1.52,6.06,2.421,8.807c0.444,1.394,0.915,2.835,1.386,4.172c0.47,1.329,0.958,2.652,1.463,3.971
						c1.009,2.658,1.983,4.993,3.093,7.613c4.504,10.964,10.054,21.589,12.858,33.076c1.425,6.096,2.844,12.164,4.262,18.229
						c1.56,6.044,3.29,12.052,5.373,17.995c4.206,11.953,6.711,23.917,9.283,36.267c2.635,11.893,8.48,22.886,10.258,34.964
						c0.472,3.228,0.711,6.495,1.102,9.742c0.192,1.6,4.252,8.806,5.607,10.049c0.615,0.566,1.733-4.604,2.012-6.026
						c0.913-4.68,1.89-11.71,1.874-15.188c-0.034-7.043-0.085-10.306-1.256-17.214c-1.193-7.138-2.517-14.14-3.483-21.207
						c-0.916-7.084-1.567-14.206-1.605-21.514c-0.044-11.816-4.578-23.167-5.945-34.822c-1.319-12.673-1.668-25.514-4.45-37.927
						c-0.741-3.302-1.347-6.63-1.887-9.97l-0.783-5.044l-0.859-5.299c-1.168-6.92-2.335-13.393-3.687-19.368
						c-1.341-5.882-2.257-11.296-2.538-16.391l-0.059-1.882c0.001-0.619-0.103-1.281-0.015-1.865l0.258-3.612
						c0.194-1.214,0.447-2.434,0.658-3.657c0.081-0.613,0.264-1.222,0.455-1.83l0.546-1.828c0.352-1.433,1.022-2.822,1.567-4.229
						c0.282-0.688,0.565-1.475,0.844-1.931c0.29-0.512,0.516-1.118,0.838-1.55c1.158-1.956,2.461-3.363,3.716-4.238
						c1.584-1.133,2.995-1.635,4.975-2.021c2-0.305,4.669-0.248,7.756,0.392c2.588,0.521,5.772,1.794,9.323,3.644
						c3.571,1.896,7.418,4.319,11.54,7.017c3.739,2.441,7.61,5.25,12.065,8.089c1.121,0.709,2.24,1.422,3.48,2.123
						c0.614,0.351,1.19,0.705,1.839,1.051l2.053,1.024l2.071,1.009c0.693,0.343,1.389,0.665,2.083,0.922
						c1.391,0.552,2.793,1.094,4.205,1.623c5.558,1.883,10.724,2.996,15.104,3.817c1.054,0.198,2.11,0.385,3.17,0.559
						c0.958,0.176,1.904,0.338,2.863,0.483c0.999,0.134,1.804,0.307,2.699,0.435l1.323,0.185l0.333,0.041l0.56,0.09l1.223,0.19
						c3.451,0.519,7.026,0.76,10.27,0.713c3.253-0.043,6.171-0.339,8.614-0.795c4.96-0.929,7.814-2.466,11.488-5.25
						c1.748-1.318,3.468-4.135,4.555-6.789c-0.937,2.182-2.339,0.196-4.358-2.237c-1.963-2.455-4.596-5.313-4.965-5.57
						c-4.478-3.25-9.905-4.372-14.126-6.549c-2.059-1.043-3.817-2.268-5.295-3.55l-0.539-0.484l-0.264-0.239
						c-0.046-0.041-0.082-0.078-0.137-0.12l-0.21-0.137l-1.692-1.09c-1.121-0.707-2.327-1.471-3.437-2.094
						c-4.643-2.653-9.108-4.643-13.025-5.932l-1.535-0.487l-1.345-0.516l-1.341-0.483l-1.175-0.541l-1.168-0.504
						c-0.396-0.156-0.711-0.392-1.071-0.572l-1.054-0.552c-0.181-0.095-0.343-0.161-0.541-0.275l-0.61-0.36
						c-3.235-1.851-7.062-4.385-11.28-7.165c-4.211-2.767-8.905-5.835-14.31-8.8c-1.344-0.741-2.794-1.473-4.236-2.193
						c-1.525-0.706-2.978-1.424-4.642-2.077c-0.822-0.328-1.595-0.669-2.461-0.976l-2.606-0.901c-0.844-0.309-1.82-0.548-2.739-0.81
						c-0.922-0.242-1.887-0.538-2.77-0.698c-6.009-1.347-12.722-1.957-19.831-1c-3.534,0.436-7.16,1.406-10.67,2.699
						c-0.872,0.362-1.74,0.736-2.602,1.12l-1.289,0.584l-1.249,0.673c-0.829,0.456-1.652,0.922-2.468,1.399
						c-0.803,0.492-1.563,1.041-2.337,1.574c-1.575,1.048-2.957,2.259-4.355,3.468c-1.386,1.213-2.585,2.536-3.835,3.839
						c-1.104,1.343-2.283,2.698-3.255,4.088c-0.944,1.39-1.983,2.797-2.756,4.213c-0.823,1.416-1.658,2.846-2.308,4.265
						l-1.026,2.141c-0.333,0.71-0.54,1.302-0.814,1.959c-1.014,2.582-2.131,5.099-2.913,7.82c-0.5,1.606-1.044,3.2-1.511,4.841
						c-0.401,1.676-0.804,3.359-1.207,5.047c-0.182,0.853-0.437,1.679-0.553,2.561l-0.402,2.631l-0.386,2.646
						c-0.117,0.882-0.281,1.781-0.305,2.64c-0.183,3.45-0.501,7.054-0.299,10.362c0.061,1.676,0.086,3.404,0.213,5.046
						L82.088,86.862z"/>
				</g>
			</g>
		</g>
	</g>
	<g>
		<g>
			<g>
				<path fill="#FFFFFF" d="M218.413,111.022l0.26-0.056C218.538,110.97,218.401,110.918,218.413,111.022z"/>
				<path fill="#FFFFFF" d="M191.59,122.589l-0.353-0.203C191.335,122.481,191.464,122.543,191.59,122.589z"/>
				<path fill="#FFFFFF" d="M245.298,145.069l0.108,0.044C245.436,145.115,245.389,145.098,245.298,145.069z"/>
				<g>
					<path fill="#FFFFFF" d="M248.895,146.098c0.512,0.27-1.21-0.566-2.926-2.489c-0.895-0.981-1.664-2.236-1.807-3.292
						c-0.167-1.067,0.293-1.949,1.205-2.194c0.479-0.113,0.983-0.22,1.494-0.318l0.773-0.151c0.077-0.015,0.106-0.023,0.141-0.035
						l0.054-0.019l0.237-0.041l0.972-0.172c2.604-0.456,5.132-1.104,7.598-2.131c1.227-0.53,2.455-0.957,3.691-1.305
						c1.206-0.334,2.257-0.51,3.408-0.681c1.129-0.16,2.265-0.269,3.406-0.354c1.142-0.084,2.404-0.067,3.612-0.09
						c2.363-0.012,4.623-0.895,6.96-1.573c2.332-0.68,4.685-1.25,7.094-0.776c1.287,0.258,2.567,0.792,3.845,1.151
						c0.624,0.181,3.661-2.117,4.245-3.152c0.267-0.469-1.663-2.743-2.207-3.339c-1.767-1.96-4.514-4.522-5.917-5.297
						c-2.832-1.53-4.164-2.202-7.026-2.593c-2.952-0.438-5.901-0.608-8.866-1.128c-2.923-0.557-6.079-1.12-9.396-2.38
						c-0.673-0.25-1.344-0.432-2.013-0.558c-0.604-0.121-1.184-0.186-1.769-0.212c-1.16-0.059-2.317,0.065-3.441,0.188
						c-1.128,0.129-2.251,0.303-3.379,0.407c-1.118,0.083-2.238,0.088-3.366-0.088l-0.458-0.075l-0.888-0.038
						c-0.558-0.04-1.082-0.1-1.632-0.152l-3.332-0.344c-1.139-0.132-2.265-0.205-3.468-0.38l-3.697-0.57
						c-2.498-0.367-5.062-0.706-7.553-0.845c-1.252-0.083-2.499-0.139-3.728-0.165l-1.827-0.013
						c-0.573,0.024-1.057,0.113-1.577,0.181c-1.084,0.16-2.197,0.286-3.338,0.388l-1.732,0.137l-0.88,0.058
						c-0.273,0.025-0.48,0.073-0.726,0.108c-1.889,0.3-3.87,0.553-5.843,0.842c-3.429,0.7-6.587,1.899-8.706,3.667
						c-0.949,0.906-1.9,1.771-2.71,2.77c-0.816,1.031-1.655,2.128-2.424,3.486c-1.556,2.626-2.903,6.325-3.272,9.867
						c-0.241,2.051-0.217,3.983-0.051,5.776c0.106,0.878,0.195,1.762,0.368,2.573l0.215,1.244l0.278,1.178
						c0.941,3.958,3.01,7.556,6.527,11.396c0.458,0.479,0.839,0.947,1.362,1.433l1.555,1.453l0.776,0.726
						c0.266,0.242,0.603,0.487,0.9,0.73l1.834,1.462c0.565,0.489,1.33,0.971,2.02,1.457l2.097,1.458
						c1.535,0.957,3.045,1.927,4.63,2.886c1.482,0.858,2.87,1.754,4.295,2.664c1.413,0.915,2.839,1.839,4.188,2.833l2.053,1.494
						c0.41,0.284,0.503,0.414,0.733,0.611l0.605,0.551l0.606,0.553c0.207,0.184,0.423,0.368,0.514,0.559l0.741,1.133l0.093,0.141
						c-0.004,0.025,0.033,0.006,0.08-0.022l0.124-0.068l0.247-0.137l0.247-0.137l0.123-0.068l0.062-0.034l0.015-0.009
						c1.24-0.08-1.671,0.097-1.369,0.084l0.017,0.021l0.273,0.328c0.367,0.437,0.744,0.868,1.13,1.293l0.585,0.633l0.464,0.476
						l0.945,0.934l0.478,0.454l0.402,0.366l0.816,0.721c0.586,0.51,1.009,0.844,1.516,1.241c1.925,1.488,3.617,2.496,5.262,3.132
						c1.723,0.656,3.386,1.431,4.914,1.208c0.225-0.014,0.38-0.073,0.559-0.14c0.18-0.066,0.374-0.144,0.583-0.233
						c0.393-0.191,0.682-0.521,1.165-0.847c0.36-0.394,0.732-0.903,1.313-1.38c0.624-0.355,1.369-0.758,2.212-1.183
						c1.606-0.814,4.36-2.45,6.706-4.047c-1.957,1.296-1.163-0.047-0.315-2.008c0.444-0.964,0.896-2.077,1.212-3.063
						c0.296-0.949,0.489-1.708,0.503-1.849c0.269-3.443-1.033-5.8-1.75-8.505c-0.721-2.643-1.22-5.417-1.66-7.819
						c-0.129-0.608-0.225-1.18-0.318-1.716c-0.104-0.541-0.228-1.059-0.282-1.501c-0.066-0.446-0.214-0.887-0.209-1.197
						c-0.026-0.322-0.146-0.637-0.041-0.746l0.032-0.105l0.007-0.024l-0.421,0.473l-0.931,1.024
						c-0.823,1.045-1.716,2.042-2.676,2.982l-0.732,0.695l-0.375,0.339l-0.19,0.168l-0.096,0.083l-0.048,0.042l-0.024,0.021
						c-1.205,1.39,10.387-12.002,5.479-6.337l-0.222-0.331l-0.452-0.654l-0.832-1.145l-0.706-0.909
						c0.065-0.276,0.098-0.417,0.072-0.509c-0.033-0.174-0.367-0.195-0.581-0.311c-0.157-0.089-0.544-0.168-0.907-0.325
						c-0.353-0.146-0.663-0.408-0.358-0.575c0.186-0.098,0.797-0.062,1.39,0.095C248.102,145.739,248.652,145.977,248.895,146.098z"
						/>
				</g>
			</g>
		</g>
	</g>
	<g>
		<g>
			<g>
				<path fill="#FFFFFF" d="M424.937,460.352l0.008,1.515C424.962,461.193,425.028,460.783,424.937,460.352z"/>
				<path fill="#FFFFFF" d="M369.242,317.256l0.458,0.101C369.493,317.179,369.351,317.188,369.242,317.256z"/>
				<path fill="#FFFFFF" d="M330.646,291.832l0.09-1.027C330.655,291.292,330.636,291.599,330.646,291.832z"/>
				<g>
					<path fill="#FFFFFF" d="M343.244,355.822c4.063,13.169,9.016,26.104,14.943,38.465c1.466,3.095,3.093,6.078,4.656,9.102
						c1.585,3.002,3.17,6.025,4.8,8.969c1.684,2.853,3.366,5.702,5.047,8.549c1.695,2.832,3.423,5.691,5.084,8.355l2.793,4.476
						l1.405,2.233l0.703,1.116l0.353,0.558l0.121,0.107l0.944,0.835c0.317,0.29,0.654,0.619,1.011,0.986
						c0.712,0.733,1.495,1.624,2.348,2.659c0.206,0.262,0.494,0.493,0.681,0.783c0.148,0.3,0.238,0.612,0.349,0.934
						c0.053,0.103,0.005,0.118-0.038,0.137l-0.12,0.069l-0.251,0.138l-0.554,0.278c-0.333,0.184-0.721,0.275-1.101,0.534
						c-0.378,0.267-0.779,0.563-1.237,0.761c-0.897,0.468-1.944,0.754-3.071,1.033l-0.864,0.188l-0.442,0.092
						c-0.1,0.015,0.059,0.013-0.247,0.048l-0.628,0.081l-2.513,0.321l-2.715,0.424c-1.762,0.23-3.797,0.737-5.722,1.163
						c-1.448,0.336-2.898,0.672-4.351,1.01c-1.605,0.343-3.166,0.771-4.81,1.045l-4.931,0.824c-0.824,0.133-1.638,0.284-2.471,0.403
						l-2.528,0.313l-5.054,0.625c-3.441,0.34-6.851,0.683-10.352,0.983l-10.595,0.9l-5.364,0.478l-5.446,0.573
						c-3.604,0.337-7.332,0.937-10.995,1.438c-6.92,1.115-13.847,2.231-20.785,3.35c-1.718,0.243-3.432,0.484-5.143,0.727
						l-2.568,0.347l-2.544,0.244c-1.697,0.156-3.392,0.312-5.084,0.467l-3.032,0.27c-0.598,0.047-1.153,0.119-1.684,0.204
						l-1.618,0.244l-1.5,0.28l-0.342,0.065l-0.093,0.023l-0.339,0.078l-1.362,0.309c-0.912,0.193-1.833,0.401-2.772,0.467
						c-0.935,0.068-1.892,0.032-2.787-0.271c-0.89-0.32-1.644-0.911-2.27-1.609c-0.58-0.738-1.046-1.559-1.425-2.42
						c-0.389-0.854-0.767-1.725-0.945-2.648c-0.193-0.936-0.186-1.848-0.269-2.831l-0.075-0.955
						c-0.052-0.546-0.082-1.077-0.186-1.658l-0.273-1.707c-0.087-0.565-0.185-1.136-0.348-1.743c-0.3-1.197-0.555-2.362-1.049-3.632
						c-0.234-0.627-0.428-1.232-0.714-1.869c-0.304-0.643-0.619-1.282-0.944-1.916c-1.4-2.54-3.373-5.169-6.078-7.164
						c-2.67-1.995-5.732-3.236-8.57-3.869c-2.882-0.665-5.44-0.688-7.88-0.62c-2.317,0.078-4.606,0.478-6.12,0.672l-5.065,0.756
						c-3.373,0.522-6.74,1.082-10.103,1.664c-3.358,0.619-6.736,1.103-10.107,1.633l-10.119,1.587
						c-3.371,0.562-6.758,0.981-10.148,1.395c-3.39,0.416-6.783,0.812-10.18,1.17c-1.7,0.171-3.397,0.37-5.102,0.491l-5.117,0.323
						c-3.414,0.191-6.832,0.333-10.254,0.409l-2.739,0.048c-0.938,0.019-1.747,0.008-2.865,0.057l-3.166,0.114
						c-1.04,0.072-2.064,0.178-3.1,0.268c-4.102,0.412-8.094,1.075-11.863,1.886c-1.907,0.363-7.19,2.436-12.059,4.468
						c-1.172,0.448-2.343,0.896-3.465,1.326c-1.241,0.499-2.426,0.977-3.503,1.41c-2.311,0.958-4.109,1.772-4.962,2.26
						c-0.777,0.444,1.802,0.481,4.886,0.42c0.766-0.021,1.57-0.043,2.371-0.064c0.809-0.033,1.474,0.002,2.179-0.007
						c1.38-0.011,2.593-0.021,3.328-0.026c4.883-0.227,11.197-1.004,17.201-1.381c1.499-0.101,2.976-0.188,4.411-0.213
						c0.716-0.018,1.417-0.057,2.105-0.06c0.687,0.007,1.36,0.014,2.018,0.02c1.307-0.021,2.543,0.069,3.681,0.129
						c1.154,0.055,2.22,0.105,3.174,0.15c7.849,0.321,13.619,0.546,19.434,0.624c5.806-0.054,11.657-0.261,19.695-0.713
						c4.148-0.258,8.272-0.65,12.394-0.973c4.117-0.361,8.238-0.625,12.332-1.062c4.097-0.429,8.186-0.855,12.269-1.282l6.129-0.619
						c0.55-0.06,0.948-0.084,1.356-0.114c0.41-0.026,0.834-0.079,1.216-0.067l1.162-0.009l1.078,0.069
						c1.377,0.145,2.468,0.488,3.152,0.912c0.691,0.433,1.056,0.881,1.464,1.603c0.413,0.682,0.748,1.824,0.988,3.136l0.169,1.014
						l0.086,1.127c0.022,0.383,0.083,0.729,0.067,1.151l0.003,0.624l0.038,1.054c0.03,1.397,0.161,2.853,0.242,4.296l0.069,1.088
						c0.042,0.358,0.126,0.705,0.188,1.059l0.403,2.123c0.772,2.78,1.891,5.47,3.153,8.081l1.06,1.885l0.268,0.473l0.321,0.431
						l0.645,0.865c0.43,0.578,0.845,1.176,1.374,1.669c0.513,0.506,0.979,1.072,1.538,1.535c0.564,0.454,1.127,0.92,1.711,1.354
						l1.876,1.114l1.979,0.9c0.676,0.25,1.373,0.439,2.063,0.665c2.267,0.558,4.618,0.896,7.077,0.849
						c1.225-0.005,2.479-0.112,3.735-0.216c1.264-0.154,2.535-0.293,3.818-0.498l1.987-0.297c0.246-0.04,0.31-0.044,0.392-0.051
						l0.258-0.025l0.517-0.053c0.713-0.084,1.244-0.075,1.87-0.132l0.784,0.005l1-0.018l2.65-0.063
						c3.536-0.096,7.107-0.198,10.586-0.531c1.751-0.148,3.503-0.297,5.258-0.445c1.744-0.167,3.457-0.384,5.188-0.579l5.179-0.613
						l5.102-0.679c1.677-0.216,3.453-0.472,5.047-0.651l4.802-0.54l2.398-0.263l2.449-0.191c1.634-0.116,3.266-0.233,4.896-0.35
						c3.283-0.204,6.63-0.325,9.937-0.427c12.668-0.353,25.957-0.53,39.774-2.724l5.185-0.857l0.324-0.055l0.194-0.02l0.387-0.04
						l0.77-0.088c0.52-0.059,0.976-0.15,1.632-0.17l1.825-0.119c0.595-0.047,1.386-0.054,2.068-0.085l1.063-0.04l2.077-0.125
						l4.214-0.266l1.056-0.07l1.03-0.137l2.063-0.275l2.067-0.278l1.035-0.141c0.334-0.065,0.654-0.153,0.981-0.229l3.918-0.95
						l0.981-0.24c0.331-0.076,0.726-0.09,1.086-0.138l2.212-0.241l2.215-0.242c0.739-0.081,1.459-0.155,2.297-0.273l4.858-0.645
						c1.688-0.239,3.093-0.382,4.569-0.551l4.408-0.503c0.2-0.996,0.401-1.993,0.604-2.992l0.294-1.507l0.146-0.756
						c0.022-0.13,0.051-0.244,0.068-0.387l0.008-0.529c0.015-1.39,0.054-2.885,0.026-4.144c-0.017-0.618-0.076-0.988-0.116-1.475
						l-0.119-1.563l-0.057-0.9l-0.029-0.45l-0.205-0.563l-0.818-2.251l-1.626-4.499l-3.218-9l-3.186-9.028
						c-0.271-0.756-0.514-1.508-0.807-2.267l-1.122-2.31l-1.762-3.623l-5.116-10.6l-4.888-10.304
						c-0.804-1.714-1.646-3.434-2.418-5.14l-2.223-5.098l-4.488-10.162c-1.362-3.419-2.744-6.827-4.155-10.224l-3.966-10.281
						c-0.688-1.677-1.284-3.387-1.878-5.097l-1.811-5.121c-1.272-3.393-2.284-6.878-3.396-10.331l-1.681-5.294l-1.066-3.32
						c-0.355-1.127-0.742-2.075-1.114-3.12c-0.376-1.032-0.754-2.051-1.127-2.969l-1.12-2.828l-2.066-5.149
						c-0.688-1.688-1.192-3.15-1.764-4.682l-0.678-2.121c-0.257-0.726-0.404-1.368-0.564-2.013l-0.253-0.972l-0.131-0.485
						l-0.059-0.408c-0.08-0.541-0.174-1.08-0.282-1.62c-0.07-0.565-0.079-1.178-0.139-1.764c-0.016-0.303-0.072-0.578-0.063-0.904
						l0.014-0.973c-0.045-1.252,0.11-2.693,0.202-4.098c0.205-1.507,0.345-2.962,0.663-4.604c0.249-1.563,0.625-3.298,0.971-4.988
						c0.398-1.77,0.775-3.599,1.242-5.306c3.81-16.073,10.075-32.846,14.928-51.206c1.614-5.889,2.788-11.358,4.077-16.968
						l1.833-8.006c0.313-1.311,0.584-2.713,0.926-3.949l0.989-3.775l0.979-3.778l0.485-1.89l0.603-1.986l2.405-7.948l2.39-7.952
						l1.19-3.977l0.595-2l0.598-2.141l2.381-8.563l1.185-4.283c0.386-1.429,0.82-2.848,1.107-4.298
						c1.26-5.776,2.599-11.546,3.78-17.326l2.979-17.372l2.328-17.313l0.399-3.346c0.136-1.106,0.265-2.238,0.379-3.407l0.358-3.474
						l0.289-3.584c0.328-4.838,0.563-9.834,0.191-15.263c-0.085-2.639-0.523-5.516-0.931-8.334c-0.234-1.428-0.636-2.944-0.972-4.41
						l-0.546-2.213l-0.644-2.075c-1.828-5.525-4.438-11.332-8.726-16.844c-2.131-2.74-4.669-5.369-7.568-7.676
						c-2.894-2.311-6.139-4.281-9.517-5.796c-0.845-0.36-1.696-0.71-2.552-1.049c-0.769-0.281-1.427-0.483-2.148-0.723
						c-1.414-0.461-2.836-0.909-4.263-1.342c-1.395-0.338-2.787-0.643-4.188-0.949l-2.104-0.446l-2.03-0.297l-4.072-0.553
						l-3.91-0.298l-1.957-0.133l-1.871-0.048l-3.746-0.076l-3.575,0.056l-1.788,0.036l-1.704,0.071l-3.409,0.154l-4.741,0.283
						c-0.78,0.081-1.561,0.172-2.338,0.276l-0.583,0.08c-0.175,0.12-0.381,0.093-0.568,0.147l-1.153,0.222
						c-1.53,0.333-3.034,0.813-4.485,1.417c-2.913,1.191-5.643,2.823-8.206,4.704c-0.638,0.469-1.292,0.963-1.857,1.415l-1.148,0.93
						l-1.705,1.417l-0.597,0.491c-0.201,0.173-0.333,0.258-0.262,0.225c0.049-0.016,0.026,0.044,0.034,0.056
						c0.005,0.044,0.005,0.099-0.012,0.136c-2.068,0.593-3.922,1.373-5.762,2.151c-0.827,0.388-1.66,0.779-2.499,1.173
						c-0.829,0.397-1.532,0.783-2.31,1.182c-2.973,1.571-5.642,3.158-7.948,4.538l-1.605,0.958l-0.124,0.072
						c-0.021,0.014-0.043,0.029-0.063,0.047c-0.04,0.035-0.078,0.078-0.114,0.129c-0.095,0.098-0.346,0.176-0.505,0.302
						c-0.053,0.062-0.265,0.125-0.437,0.19l-0.528,0.208c-0.134,0.069-0.438,0.155-0.72,0.239l-0.837,0.256
						c-0.235,0.079-0.644,0.189-1.03,0.297l-1.15,0.323c-1.674,0.478-3.684,1.065-5.896,1.921c-1.034,0.356-2.243,0.951-3.339,1.459
						l-0.833,0.403l-0.413,0.204c-0.108,0.055-0.102,0.057-0.158,0.088l-0.496,0.304c-0.679,0.393-1.247,0.958-2.056,1.299
						c-1.451,0.851-3.169,1.633-5.069,2.404c-3.792,1.546-8.354,2.934-12.655,4.733c-1.074,0.462-2.009,1.019-2.785,1.637
						c-0.767,0.616-1.357,1.291-1.804,1.996c-0.892,1.41-1.203,2.941-1.177,4.373c-0.021-1.175,1.494-1.467,3.798-1.236
						c2.285,0.238,5.294,1.023,8.347,1.901c1.538,0.437,3.09,0.878,4.566,1.297c1.488,0.401,2.923,0.731,4.22,1.062
						c2.572,0.53,4.582,0.847,5.046,0.877c1.396-0.017,2.835-0.072,4.307-0.163c1.444-0.202,2.915-0.488,4.418-0.787
						c0.411-0.091,0.669-0.119,0.967-0.166l0.866-0.137c0.554-0.115,1.18-0.14,1.773-0.199c0.578-0.065,1.209-0.099,1.854-0.124
						l1.979-0.09c2.709-0.116,5.992-0.291,9.493-1.272l1.307-0.406l0.655-0.21l0.595-0.2l2.095-0.733
						c1.345-0.474,2.69-0.941,3.972-1.357c3.975-1.313,7.711-2.257,10.562-2.272c-0.151,0.074,0.082,0.008,0.148,0.003l0.304-0.054
						l0.606-0.114c0.405-0.117,0.734-0.148,1.106-0.23c0.731-0.122,1.438-0.323,2.144-0.547c1.413-0.436,2.774-1.032,4.121-1.689
						l1.926-1.015l1.545-0.835l1.39-0.755l1.249-0.652l0.554-0.265c0.114-0.031,0.23-0.071,0.323-0.083
						c0.196-0.034,0.383-0.072,0.573-0.094c0.376-0.049,0.736-0.081,1.094-0.069c0.707,0,1.401,0.215,1.999,0.524l0.24,0.121
						l0.116,0.06l0.058,0.03c0.018,0.01,0.124,0.015,0.182,0.022l1.665,0.16c1.068,0.109,2.14,0.219,3.216,0.329
						c1.093,0.093,2.117,0.221,3.147,0.337c1.02,0.126,2.098,0.199,3.075,0.345c4.037,0.471,7.74,1.126,11.161,1.857l2.943,0.792
						c0.88,0.348,1.76,0.667,2.643,0.958c0.884,0.457,1.492,0.938,2.113,1.537c0.594,0.646,1.229,1.443,1.883,2.591
						c0.643,1.159,1.29,2.62,1.855,4.331c0.128,0.432,0.284,0.896,0.392,1.316c0.074,0.406,0.156,0.809,0.248,1.208
						c0.083,0.411,0.209,0.771,0.282,1.216l0.176,1.413c0.06,0.477,0.147,0.923,0.199,1.42l0.09,1.583l0.111,1.581l0.002,1.717
						c0.04,4.58-0.379,9.699-1.005,15.199c-0.288,2.754-0.726,5.598-1.098,8.407l-1.139,8.45c-0.323,2.84-0.887,5.577-1.353,8.355
						l-1.441,8.316l-0.357,2.081c-0.135,0.688-0.302,1.365-0.45,2.048l-0.917,4.091l-1.825,8.19
						c-0.156,0.682-0.292,1.37-0.466,2.046l-0.568,2.017l-1.136,4.036l-2.271,8.079l-0.481,1.718l-0.559,1.844l-1.116,3.692
						l-2.224,7.386l-2.216,7.388l-1.104,3.694c-0.363,1.248-0.684,2.627-1.026,3.935l-2.01,7.949
						c-0.61,2.599-1.121,5.108-1.685,7.666l-3.154,14.764c-0.528,2.379-1.1,4.597-1.645,6.904c-0.552,2.287-1.064,4.561-1.776,6.909
						l-1.991,6.991l-0.499,1.748l-0.544,1.804l-1.094,3.614l-2.197,7.256l-2.217,7.514l-1.113,3.756l-1.033,3.916l-2.058,7.854
						c-0.435,1.578-0.75,3.098-1.129,4.649c-0.36,1.635-0.723,3.272-1.085,4.913c-0.679,3.462-1.367,7.034-1.739,11.041
						c-0.091,1-0.217,1.957-0.268,2.997l-0.117,3.143l-0.044,1.576l0.057,1.648l0.151,3.302c0.075,1.108,0.258,2.264,0.398,3.395
						l0.237,1.705l0.125,0.852c0.047,0.271,0.104,0.512,0.156,0.769l0.659,3.041c0.114,0.501,0.222,1.025,0.346,1.507l0.389,1.407
						c2.073,7.573,4.657,13.811,6.382,18.96l0.609,1.866l0.307,0.93l0.234,0.849l1.125,3.966L343.244,355.822z"/>
				</g>
			</g>
		</g>
	</g>
	<g>
		<g>
			<g>
				<path fill="#FFFFFF" d="M228.349,204.51l0.193-0.013C228.456,204.482,228.401,204.417,228.349,204.51z"/>
				<path fill="#FFFFFF" d="M217.497,214.597l0.03,0.003C217.499,214.598,217.494,214.597,217.497,214.597z"/>
				<path fill="#FFFFFF" d="M191.722,195.81l0.183-0.328C191.789,195.608,191.74,195.71,191.722,195.81z"/>
				<g>
					<path fill="#FFFFFF" d="M196.263,234.138c3.85,2.216,8.097,3.583,12.066,4.102c3.986,0.531,7.683,0.269,10.94-0.485
						c3.365-0.781,6.294-2.031,8.972-3.047c2.675-1.02,5.127-1.813,7.392-1.77c3.106,0.017,6.208,0.275,9.263,0.209
						c1.523-0.045,3.046-0.123,4.567-0.264c0.76-0.072,1.521-0.156,2.278-0.268c0.751-0.136,1.5-0.292,2.249-0.473
						c3.011-0.729,5.969-1.014,8.892-1.251c1.467-0.1,2.937-0.147,4.414-0.168c1.468-0.038,2.94-0.076,4.425-0.114
						c2.875-0.039,5.637-0.966,8.385-1.792c2.763-0.802,5.482-1.562,8.345-1.265c1.531,0.167,3.073,0.557,4.598,0.788
						c0.753,0.116,4.143-2.483,4.727-3.571c0.266-0.493-2.166-2.566-2.835-3.108c-2.198-1.783-5.498-4.057-7.127-4.725
						c-3.295-1.342-4.82-1.886-8.036-2.135c-3.32-0.248-6.58-0.396-9.819-0.91c-3.247-0.45-6.464-1.319-9.677-2.797
						c-2.599-1.183-5.131-1.439-7.706-1.423c-2.554-0.036-5.086-0.029-7.555-0.683c-1.32-0.396-2.603-0.913-3.885-1.4l-1.91-0.74
						l-0.949-0.359c-0.307-0.117-0.813-0.259-1.211-0.383c-3.408-1.022-6.578-1.654-9.399-1.692
						c-3.019-0.03-5.583-0.656-7.629-1.398c-2.058-0.745-3.497-1.549-4.725-1.892c-0.25-0.09-0.52-0.15-0.781-0.217
						c-0.241-0.09-0.491-0.165-0.753-0.227l-9.468-2.24l-0.374,0.056l-1.103,0.165c6.256,5.383,12.508,10.763,18.76,16.143
						c-0.003,0.004-0.008,0.009-0.015,0.013l-0.012,0.006l-0.007,0.003l-0.003,0.001l-0.085,0.004
						c-0.458,0.02-0.925,0.018-1.397-0.008c-0.554-0.049-0.741-0.015-1.071-0.034c-0.305-0.013-0.617-0.044-0.935-0.095l-0.46-0.084
						l-0.226-0.026c-0.154-0.023-0.315-0.058-0.482-0.105l-0.234-0.074c0,0.002-0.001,0.002-0.005,0.002
						c-0.008,0-0.024-0.003-0.048-0.012c-0.1-0.039,0.113,0.042,0.239,0.105c0.133,0.064,0.253,0.133,0.361,0.205
						c0.039,0.023,0.028,0.024,0.104,0.065l0.218,0.121c0.143,0.082,0.282,0.167,0.416,0.255c0.269,0.176,0.52,0.364,0.753,0.561
						c0.426,0.295,0.883,0.635,1.288,0.978l0.14,0.119l-0.005,0l-0.012-0.002c-0.005-0.003-0.03,0-0.002-0.021
						c0.088-0.072,0.068-0.111,0.22-0.237c0.35-0.346,1.29-1.027,2.612-1.88c1.323-0.864,3.064-1.917,5.141-3.354l1.278-0.94
						c0.083-0.021,0.178-0.021,0.241-0.06c0.135-0.057,0.387-0.183,0.612-0.314l2.146-1.189l5.247-2.934
						c3.688-2.072,7.529-4.225,11.678-6.42c1.983-1.061,4.042-1.909,6.417-2.989c0.604-0.282,1.15-0.497,1.813-0.828l2.023-1.037
						c0.178-0.095,0.318-0.16,0.526-0.28l0.924-0.626c0.613-0.427,1.219-0.873,1.812-1.335l0.882-0.706l0.433-0.361
						c0.131-0.109,0.128-0.093,0.198-0.146l0.634-0.442l0.315-0.222l0.04-0.028l0.01-0.007l1.145-1.339l0.058-0.074l0.229-0.298
						c0.303-0.401,0.593-0.814,0.868-1.237c0.548-0.839,1.039-1.714,1.49-2.723c0.901-1.988,1.436-4.021,1.688-6.073
						c0.104-0.915,0.15-1.846,0.139-2.771l-0.019-0.676l-0.036-0.575c-0.029-0.384-0.068-0.768-0.117-1.15s-0.106-0.764-0.174-1.142
						l-0.19-0.919c-0.135-0.592-0.306-1.229-0.475-1.768c-0.149-0.468-0.312-0.933-0.487-1.393l-0.269-0.67l-0.235-0.539
						c-0.161-0.358-0.33-0.714-0.506-1.065l-0.456-0.857l-0.462-0.804l-0.415-0.669c-1.107-1.72-1.983-2.78-2.774-3.711
						c-0.793-0.919-1.483-1.636-2.133-2.271c-2.582-2.498-4.707-3.968-6.984-5.154c-2.386-1.217-4.956-2.563-7.78-3.014
						c-1.411-0.226-2.881-0.227-4.397,0.131c-0.757,0.18-1.526,0.448-2.287,0.833c-0.752,0.392-1.533,0.872-2.127,1.601
						c-0.326,0.33-0.713,0.725-1.121,1.167c-0.198,0.229-0.433,0.432-0.575,0.696c-0.173,0.289-0.339,0.566-0.5,0.836
						c-0.696,1.154-1.5,2.413-2.305,3.574c0.33-0.476,0.476-0.788,0.482-0.961c0.004-0.081-0.032-0.147-0.095-0.131
						c0.004,0.064,0.074,0.134,0.096,0.244c0.073,0.22,0.07,0.534,0.081,0.959c0.01,0.477,0.022,0.993,0.034,1.517
						c0.031,2.263-0.165,5.125-0.142,5.407c0.368,3.452,1.689,5.664,2.429,8.387c0.705,2.63,1.059,5.438,1.223,7.812
						c0.071,1.177,0.107,2.262-0.042,3.02c-0.029,0.193-0.096,0.349-0.155,0.489l-0.065,0.087l-0.031,0.042l-0.016,0.02
						c0,0-0.044,0.047,0.076-0.071c0.634-0.632,1.212-1.217,1.852-1.806c2.419-2.297,4.697-4.167,6.607-5.377
						c0.964-0.627,1.861-1.075,2.567-1.301c0.665-0.24,1.15-0.235,1.271-0.199c0.057,0.015,0.042,0.014,0.032,0.007
						c0.015,0.005-0.032-0.014-0.081-0.046l-0.028-0.021l-2.297-2.313l-0.558-0.37l-1.116-0.739l-4.463-2.954l-0.558-0.37
						c-0.19-0.134-0.442-0.432-0.656-0.644c-0.444-0.465-0.877-0.941-1.299-1.426c-0.421-0.485-0.832-0.98-1.229-1.483l-0.588-0.763
						c-0.146-0.182-0.053-0.107-0.065-0.146l0.03-0.043c0.159-0.232,0.342-0.445,0.542-0.635c0.013-0.016,0.076-0.064,0.049-0.053
						l-0.057,0.019l-0.112,0.039l-0.221,0.08l-0.429,0.17c-1.385,0.588-3.142,1.492-5.062,2.469
						c-3.784,1.962-7.863,4.227-12.214,6.544c-0.935,0.494-1.89,1.016-2.873,1.568c-0.948,0.523-1.985,1.131-3.003,1.73
						c-0.486,0.28-1.076,0.65-1.627,0.99l-0.836,0.52l-0.43,0.271l-0.504,0.334c-0.671,0.457-1.327,0.873-2.1,1.452l-2.349,1.859
						c-0.382,0.348-0.833,0.72-1.402,1.163l-0.999,0.746l-1.208,0.874c-1.737,1.26-4.053,2.86-6.739,5.282
						c-0.722,0.654-1.502,1.433-2.24,2.165c-0.78,0.839-1.563,1.728-2.323,2.652c-0.773,1.036-1.535,2.046-2.242,3.189
						c-0.688,1.188-1.395,2.364-1.954,3.654c-1.169,2.568-1.993,5.31-2.451,7.948c-0.103,0.647-0.196,1.3-0.277,1.955
						c-0.076,0.646-0.167,1.34-0.176,1.916c-0.05,1.205-0.064,2.419-0.041,3.632l0.352,18.45l21.03-0.051
						c0.364-0.001,0.735-0.002,1.114-0.003c-3.656-0.812-7.313-1.623-11.205-2.487C195.692,233.813,195.978,233.976,196.263,234.138
						z"/>
				</g>
			</g>
		</g>
	</g>
</g>
</svg>
