<?xml version="1.0" encoding="utf-8"?>
<!-- Generator: Adobe Illustrator 19.1.0, SVG Export Plug-In . SVG Version: 6.00 Build 0)  -->
<svg version="1.1" id="Layer_1" xmlns="http://www.w3.org/2000/svg" xmlns:xlink="http://www.w3.org/1999/xlink" x="0px" y="0px"
	 viewBox="-348 -1 102.9 103" style="enable-background:new -348 -1 102.9 103;" xml:space="preserve">
<style type="text/css">
	.st0{fill:#FFFFFF;}
</style>
<g id="Layer_2">
</g>
<g id="Layer_1_1_">
	<path class="st0" d="M-262.5,23.5c-10.1,0.1-23.3,4.3-34.2,4.3c-12.3,0-26.9-5.1-37.1-4.2c-5.1,0.5-8.8,2.2-11.3,6.7
		s-3.7,12.2-2.4,24.6c1.9,16.9,15.9,25.8,27.9,21.6c2.5-0.9,6.7-5.5,10.6-10c2-2.3,3.9-4.5,5.9-6.2s4-3.2,6.4-3.2
		c2.5,0,4.4,1.4,6.4,3.2c2,1.7,3.9,4,5.9,6.2c3.9,4.5,8.1,9.1,10.6,10c12,4.2,25.8-4.7,27.9-21.6c1.5-12.4,0.4-20.1-2.2-24.6
		c-2.5-4.5-6.4-6.2-11.5-6.7c-0.6-0.1-1.3-0.1-2-0.1C-261.8,23.5-262.1,23.4-262.5,23.5L-262.5,23.5z M-325.6,36.9
		c4.9,0,12.5,4.7,17.4,9.1c-9.4,11.9-23.5,2.9-28.2-5.2C-331.9,36.3-330.2,36.9-325.6,36.9z M-255.8,40.8c-4.7,8-18.8,17-28.2,5.2
		c4.9-4.4,12.5-9.2,17.3-9.1C-262.2,36.9-260.4,36.3-255.8,40.8z"/>
</g>
</svg>
