<?xml version="1.0" encoding="utf-8"?>
<!-- Generator: Adobe Illustrator 19.1.0, SVG Export Plug-In . SVG Version: 6.00 Build 0)  -->
<svg version="1.1" xmlns="http://www.w3.org/2000/svg" xmlns:xlink="http://www.w3.org/1999/xlink" x="0px" y="0px"
	 viewBox="0 0 88.4 88.6" style="enable-background:new 0 0 88.4 88.6;" xml:space="preserve">
<style type="text/css">
	.st0{fill-rule:evenodd;clip-rule:evenodd;fill:#FFFFFF;}
</style>
<g id="Layer_1">
</g>
<g id="Layer_2">
	<g>
		<path class="st0" d="M39.6,34.7c-3.8,7.2-7.4,14.2-11.2,21.4c-4.8-5.9-9.4-11.6-14.2-17.5C22.6,36.4,30.9,35.1,39.6,34.7z"/>
		<path class="st0" d="M64.3,78.8c-6.9,2-13.7,2.5-20.8,1.7c3.7-6.9,7.4-13.6,11.2-20.6C58,66.3,61.1,72.5,64.3,78.8z"/>
		<path class="st0" d="M59.5,55C54,48.2,48.8,41.5,43.3,34.7c7.7-0.1,15.1,0.9,22.4,2.6C63.7,43.2,61.6,49,59.5,55z"/>
		<path class="st0" d="M20.8,73.1c0.2-0.2,0.3-0.4,0.4-0.5c4.5-4.2,8.9-8.4,13.6-12.9c1.8,6.8,3.6,13.4,5.4,20.3
			C33.2,78.8,26.8,76.6,20.8,73.1z"/>
		<path class="st0" d="M81.3,66.6c-3.4,5.5-8.4,8.8-14.4,11.3c1.7-6.6,3.3-12.9,5-19.4C75.1,61.3,78.2,63.9,81.3,66.6z"/>
		<path class="st0" d="M16.7,70.5c-4.3-2.9-7.9-6.3-11.1-10.2c2.6-2.4,5.3-4.9,8.1-7.4C14.7,58.8,15.7,64.5,16.7,70.5z"/>
		<path class="st0" d="M67.9,37.7c2.8,0.9,5.7,1.7,8.5,2.6c0.3,0.1,0.5,0.4,0.6,0.7c1.2,4.1,2.4,8.2,3.6,12.4
			c-0.1,0.1-0.3,0.1-0.4,0.2C76,48.4,71.9,43.2,67.7,38C67.8,37.9,67.8,37.8,67.9,37.7z"/>
		<path class="st0" d="M7.6,50.3c-1.7-2.8-3.2-5.4-4.9-8.1c2.7-0.9,5.3-1.7,8.1-2.6C9.7,43.2,8.7,46.7,7.6,50.3z"/>
		<path class="st0" d="M74.2,15.3c-7,1.7-10.9,10.6-10.9,10.6s7.5,6,14.6,4.3c7-1.7,10.5-12.7,10.5-12.7S81.2,13.6,74.2,15.3z
			 M77.8,27.5c0,0-2.4-1.6-3.1-4.3C73.9,20.6,75,18,75,18s2.4,1.6,3.1,4.3C78.9,24.9,77.8,27.5,77.8,27.5z"/>
		<path class="st0" d="M16.6,8.7C8.2,5.9,0,9.8,0,9.8s2.3,14,10.8,16.8c8.5,2.8,18.2-3.9,18.2-3.9S25.1,11.4,16.6,8.7z M16.6,18
			c-0.8,2.9-3.5,4.7-3.5,4.7s-1.3-2.9-0.4-5.8c0.8-2.9,3.5-4.7,3.5-4.7S17.4,15.1,16.6,18z"/>
	</g>
</g>
</svg>
