<?xml version="1.0" encoding="utf-8"?>
<!-- Generator: Adobe Illustrator 19.1.0, SVG Export Plug-In . SVG Version: 6.00 Build 0)  -->
<svg version="1.1" id="Layer_1" xmlns="http://www.w3.org/2000/svg" xmlns:xlink="http://www.w3.org/1999/xlink" x="0px" y="0px"
	 viewBox="-355 6.4 88.4 88.6" style="enable-background:new -355 6.4 88.4 88.6;" xml:space="preserve">
<style type="text/css">
	.st0{fill:#FFFFFF;}
</style>
<g id="Layer_1_1_">
</g>
<g id="Layer_2">
	<g>
		<path class="st0" d="M-315.4,41.1c-3.8,7.2-7.4,14.2-11.2,21.4c-4.8-5.9-9.4-11.6-14.2-17.5C-332.4,42.8-324.1,41.5-315.4,41.1z"
			/>
		<path class="st0" d="M-290.7,85.2c-6.9,2-13.7,2.5-20.8,1.7c3.7-6.9,7.4-13.6,11.2-20.6C-297,72.7-293.9,78.9-290.7,85.2z"/>
		<path class="st0" d="M-295.5,61.4c-5.5-6.8-10.7-13.5-16.2-20.3c7.7-0.1,15.1,0.9,22.4,2.6C-291.3,49.6-293.4,55.4-295.5,61.4z"/>
		<path class="st0" d="M-334.2,79.5c0.2-0.2,0.3-0.4,0.4-0.5c4.5-4.2,8.9-8.4,13.6-12.9c1.8,6.8,3.6,13.4,5.4,20.3
			C-321.8,85.2-328.2,83-334.2,79.5z"/>
		<path class="st0" d="M-273.7,73c-3.4,5.5-8.4,8.8-14.4,11.3c1.7-6.6,3.3-12.9,5-19.4C-279.9,67.7-276.8,70.3-273.7,73z"/>
		<path class="st0" d="M-338.3,76.9c-4.3-2.9-7.9-6.3-11.1-10.2c2.6-2.4,5.3-4.9,8.1-7.4C-340.3,65.2-339.3,70.9-338.3,76.9z"/>
		<path class="st0" d="M-287.1,44.1c2.8,0.9,5.7,1.7,8.5,2.6c0.3,0.1,0.5,0.4,0.6,0.7c1.2,4.1,2.4,8.2,3.6,12.4
			c-0.1,0.1-0.3,0.1-0.4,0.2c-4.2-5.2-8.3-10.4-12.5-15.6C-287.2,44.3-287.2,44.2-287.1,44.1z"/>
		<path class="st0" d="M-347.4,56.7c-1.7-2.8-3.2-5.4-4.9-8.1c2.7-0.9,5.3-1.7,8.1-2.6C-345.3,49.6-346.3,53.1-347.4,56.7z"/>
		<path class="st0" d="M-280.8,21.7c-7,1.7-10.9,10.6-10.9,10.6s7.5,6,14.6,4.3c7-1.7,10.5-12.7,10.5-12.7S-273.8,20-280.8,21.7z
			 M-277.2,33.9c0,0-2.4-1.6-3.1-4.3c-0.8-2.6,0.3-5.2,0.3-5.2s2.4,1.6,3.1,4.3C-276.1,31.3-277.2,33.9-277.2,33.9z"/>
		<path class="st0" d="M-338.4,15.1c-8.4-2.8-16.6,1.1-16.6,1.1s2.3,14,10.8,16.8s18.2-3.9,18.2-3.9S-329.9,17.8-338.4,15.1z
			 M-338.4,24.4c-0.8,2.9-3.5,4.7-3.5,4.7s-1.3-2.9-0.4-5.8c0.8-2.9,3.5-4.7,3.5-4.7S-337.6,21.5-338.4,24.4z"/>
	</g>
</g>
</svg>
