<?xml version="1.0" encoding="utf-8"?>
<!-- Generator: Adobe Illustrator 19.1.0, SVG Export Plug-In . SVG Version: 6.00 Build 0)  -->
<svg version="1.1" id="Layer_1" xmlns="http://www.w3.org/2000/svg" xmlns:xlink="http://www.w3.org/1999/xlink" x="0px" y="0px"
	 viewBox="-368 20.1 61.9 61.9" style="enable-background:new -368 20.1 61.9 61.9;" xml:space="preserve">
<g id="Layer_1_1_">
</g>
<g id="Layer_2">
	<g>
		<path d="M-330.5,60.8L-330.5,60.8c-0.1,0.8-1,1.6-2.5,2.1l0.5-3.3c-1.8-1.1-3.5-2.3-5-3.5c-3.1,0.4-6.8,0.3-10.8-0.4
			c-5.1-0.8-9.5-2.4-12.5-4.3c-2.6-1.6-4.2-3.2-4-4.4c0-0.2,0.1-0.5,0.3-0.7c0.5,1.2,1.9,2.5,4.1,3.8c3.1,1.9,7.5,3.4,12.5,4.3
			c3.2,0.5,6.3,0.7,9,0.5c-1.7-1.4-3.1-2.8-4.2-4.1c-2.8-3.2-4-6.1-2.8-8.1l1.3-2.3c-0.1,0-0.3,0-0.4-0.1c-5.3-0.9-10.2-0.8-14,0
			c-4.2,1-7.1,3-7.6,6l-1.4,8.3c-0.5,3,1.6,5.9,5.2,8.1c3.3,2,7.9,3.7,13.2,4.5c5.3,0.9,10.2,0.8,14-0.1c3.8-0.9,6.5-2.7,7.3-5.2
			C-328.9,61.7-329.7,61.3-330.5,60.8z M-363.7,57.9c-1.2-1-1.8-2-1.7-2.7l0.6-3.5c0.5,0.6,1.1,1.2,1.8,1.7L-363.7,57.9z
			 M-359.9,60.4c-0.5-0.3-1-0.6-1.5-0.9c-0.1-0.1-0.3-0.2-0.4-0.3l0.8-4.6c0.6,0.4,1.2,0.7,1.9,1L-359.9,60.4z M-356,62
			c-0.7-0.2-1.3-0.5-2-0.8l0.8-4.7c0.6,0.2,1.3,0.5,2,0.7L-356,62z M-351.9,63.2c-0.7-0.2-1.4-0.4-2-0.5l0.8-4.7
			c0.7,0.2,1.3,0.4,2,0.5L-351.9,63.2z M-347.9,64c-0.3,0-0.7-0.1-1-0.1c-0.3-0.1-0.7-0.1-1-0.2l0.8-4.7c0.3,0.1,0.7,0.1,1,0.2
			c0.3,0.1,0.7,0.1,1,0.1L-347.9,64z M-343.7,64.3c-0.7,0-1.4-0.1-2.1-0.1l0.8-4.7c0.7,0.1,1.4,0.1,2.1,0.2L-343.7,64.3z
			 M-339.5,64.3c-0.7,0.1-1.4,0.1-2.1,0.1l0.8-4.7c0.7,0,1.4,0,2.1,0L-339.5,64.3z M-335.2,63.7c-0.2,0-0.3,0.1-0.5,0.1
			c-0.5,0.1-1.1,0.2-1.7,0.3l0.8-4.7c0.8-0.1,1.5-0.2,2.2-0.4L-335.2,63.7z"/>
		<path d="M-309.4,49.7c-2.5-2.8-6.3-6-10.8-8.9c-4.6-2.9-9-5-12.6-6c-4-1.1-7.1-0.9-8.2,1.1l-3.8,6.5c-1.1,1.9,0,4.9,2.8,8.1
			c2.5,2.8,6.3,6,10.8,8.9s9,5,12.6,6c4,1.1,7.1,0.9,8.2-1.1l3.8-6.5C-305.4,55.8-306.6,52.9-309.4,49.7 M-341.7,46
			c-0.8-1.2-1.2-2.2-0.9-2.7l2-3.4c0.3,0.6,0.7,1.3,1.2,2L-341.7,46z M-338.8,49.4c-0.4-0.4-0.8-0.9-1.2-1.3
			c-0.1-0.1-0.2-0.2-0.3-0.4l2.4-4.1c0.5,0.5,1,1,1.5,1.6L-338.8,49.4z M-335.7,52.3c-0.6-0.5-1.1-0.9-1.6-1.4l2.4-4.2
			c0.5,0.5,1.1,0.9,1.6,1.4L-335.7,52.3z M-332.3,54.9c-0.6-0.4-1.2-0.8-1.7-1.3l2.4-4.2c0.5,0.4,1.1,0.8,1.7,1.2L-332.3,54.9z
			 M-328.8,57.2c-0.3-0.2-0.6-0.4-0.9-0.5c-0.3-0.2-0.6-0.4-0.9-0.6l2.5-4.2c0.3,0.2,0.6,0.4,0.9,0.6c0.3,0.2,0.6,0.4,0.9,0.5
			L-328.8,57.2z M-325.2,59.3c-0.6-0.3-1.2-0.7-1.8-1l2.5-4.2c0.6,0.3,1.2,0.7,1.8,1L-325.2,59.3z M-321.4,61
			c-0.6-0.3-1.3-0.5-1.9-0.8l2.5-4.2c0.7,0.3,1.3,0.6,1.9,0.9L-321.4,61z M-317.3,62.4c-0.2,0-0.3-0.1-0.5-0.1
			c-0.5-0.1-1-0.3-1.6-0.5l2.4-4.1c0.7,0.2,1.4,0.5,2,0.7L-317.3,62.4z M-312.5,62.5c-0.3,0.5-1.3,0.6-2.7,0.4l2.4-4
			c0.8,0.1,1.6,0.2,2.3,0.2L-312.5,62.5z M-308.6,55.5c-0.5,0.8-2.4,0.6-5.3-0.2c-3.3-0.9-7.6-2.9-11.9-5.7c-4.4-2.8-8-5.8-10.3-8.5
			c-2-2.3-3-4.1-2.6-4.8c0.2-0.3,0.6-0.5,1.2-0.5c0,0.9,1,2.5,2.7,4.4c2.3,2.7,5.9,5.7,10.3,8.5c4.3,2.8,8.6,4.7,11.9,5.7
			c1.7,0.5,3.1,0.7,4.1,0.7C-308.5,55.2-308.5,55.4-308.6,55.5"/>
	</g>
</g>
</svg>
