<?xml version="1.0" encoding="utf-8"?>
<!-- Generator: Adobe Illustrator 19.1.0, SVG Export Plug-In . SVG Version: 6.00 Build 0)  -->
<svg version="1.1" id="Layer_1" xmlns="http://www.w3.org/2000/svg" xmlns:xlink="http://www.w3.org/1999/xlink" x="0px" y="0px"
	 viewBox="-358 10.3 81.7 81.7" style="enable-background:new -358 10.3 81.7 81.7;" xml:space="preserve">
<g id="Layer_1_1_">
</g>
<g id="Layer_2">
	<path d="M-306.2,33.2c-6.6-4-20.8-22.9-20.8-22.9s-4,23.3-8.1,29.9C-339.1,46.8-358,61-358,61s23.3,4,29.9,8.1
		c6.6,4,20.8,22.9,20.8,22.9s4-23.3,8.1-29.9c4-6.6,22.9-20.8,22.9-20.8S-299.6,37.2-306.2,33.2z M-304.1,59.1
		c-2.9,4.8-5.9,21.8-5.9,21.8s-10.3-13.8-15.2-16.7c-4.8-2.9-21.7-5.9-21.7-5.9s13.8-10.4,16.7-15.2c2.9-4.8,5.9-21.8,5.9-21.8
		s10.3,13.8,15.1,16.8c4.8,2.9,21.8,5.9,21.8,5.9S-301.2,54.3-304.1,59.1z"/>
	<g>
		<path d="M-318.1,29.2c1.2,1.4,2.5,2.9,3.7,4.2c6.1-3.4,13.2-8.4,13.2-8.4s-1.2,8.6-1.4,15.6c1.7,0.5,3.6,1,5.4,1.4
			c-0.5-9.7,1.9-26.7,1.9-26.7S-309.3,25.2-318.1,29.2z"/>
		<path d="M-334.9,48.3c-3.4-6.1-8.4-13.2-8.4-13.2s8.6,1.2,15.5,1.4c0.5-1.7,1-3.6,1.4-5.4c-9.6,0.5-26.6-1.9-26.6-1.9
			s9.9,14,13.9,22.8C-337.7,50.8-336.2,49.6-334.9,48.3z"/>
		<path d="M-295.2,50.2c-1.4,1.2-2.9,2.5-4.2,3.7c3.4,6.1,8.4,13.2,8.4,13.2s-8.6-1.2-15.5-1.4c-0.5,1.7-1,3.6-1.4,5.4
			c9.7-0.4,26.6,2,26.6,2S-291.2,59-295.2,50.2z"/>
		<path d="M-316.3,73.1c-1.2-1.4-2.5-2.9-3.7-4.2c-6,3.4-13.1,8.4-13.1,8.4s1.2-8.6,1.4-15.5c-1.7-0.5-3.6-1-5.4-1.4
			c0.4,9.7-2,26.6-2,26.6S-325.1,77.1-316.3,73.1z"/>
	</g>
</g>
</svg>
