<?xml version="1.0" encoding="utf-8"?>
<!-- Generator: Adobe Illustrator 19.1.0, SVG Export Plug-In . SVG Version: 6.00 Build 0)  -->
<svg version="1.1" id="Layer_1" xmlns="http://www.w3.org/2000/svg" xmlns:xlink="http://www.w3.org/1999/xlink" x="0px" y="0px"
	 viewBox="-271 362.3 68.4 68.7" style="enable-background:new -271 362.3 68.4 68.7;" xml:space="preserve">
<g id="Layer_2">
	<path d="M-203,369l-29.8,23l11.8,3.8l-15.4,10.8l-10.2,7.2L-271,431l29.4-34.9l-8.1-2.6l25.9-31.2L-203,369L-203,369z"/>
</g>
<path d="M-222.6,399.1c0.3-0.3,0.6-0.6,0.9-0.9c0.7-0.7,1.5-1.4,2.2-2.1c0.1-0.1,0.2-0.3,0.1-0.4c-0.5-2-1.1-4.1-1.6-6.2
	c0-0.1,0-0.3,0.1-0.4c0.5-0.4,0.9-0.8,1.3-1.1c0.1-0.1,0.2-0.1,0.4-0.1c0.6,0.1,1.1,0.2,1.8,0.3c0.2,0,0.3,0.1,0.3,0.3
	c0.3,1.2,0.6,2.5,1,3.7c0,0.1,0.1,0.2,0.1,0.3c0.3-0.3,0.6-0.6,0.9-0.8c1.3-1.2,2.7-2.5,4-3.7c0.1-0.1,0.3-0.1,0.4-0.1
	c0.7,0.2,1.3,0.4,1.9,0.6c0.1,0.1,0.2,0.2,0.2,0.3c0.2,0.7,0.4,1.4,0.5,2c0,0.1,0,0.2-0.1,0.3c-1.5,1.4-3,2.9-4.4,4.2
	c-0.1,0.1-0.2,0.2-0.2,0.3c0.5,0.2,1,0.3,1.5,0.4c0.7,0.2,1.6,0.4,2.3,0.6c0.2,0,0.3,0.1,0.3,0.3c0.2,0.7,0.3,1.2,0.5,1.9
	c0,0.1,0,0.3-0.1,0.4c-0.4,0.4-0.8,0.8-1.2,1.2c-0.1,0.1-0.3,0.1-0.4,0.1c-1.9-0.6-3.9-1.1-5.9-1.6c-0.2,0-0.2,0-0.4,0.1
	c-0.9,1-1.9,2-2.8,3.1c-0.1,0.1-0.1,0.1-0.3,0.2c1.4,0.4,2.8,0.9,4.2,1.3c-1,1-2.2,2.1-3.2,3.2c1.2,0.3,2.6,0.6,3.7,0.9
	c0.5,0.1,0.9,0,1.2-0.3c1.3-1.3,2.7-2.6,4-3.8c0.1-0.1,0.3-0.1,0.4-0.1c0.5,0.2,1.1,0.4,1.6,0.7c0.1,0.1,0.2,0.2,0.2,0.3
	c0.2,0.6,0.3,1.2,0.5,1.8c0,0.1,0,0.2-0.1,0.3c-0.9,0.9-1.9,1.8-2.8,2.7c0.1,0.1,0.2,0.1,0.3,0.1c1.9,0.6,3.8,1.1,5.8,1.7
	c0.3,0.1,0.3,0.2,0.3,0.4c0.2,0.7,0.4,1.4,0.5,2c0,0.1,0,0.2-0.1,0.3c-0.6,0.5-1.2,0.9-1.7,1.4c-0.1,0.1-0.3,0.1-0.4,0.1
	c-1.8-0.5-3.7-1-5.6-1.5c-0.1-0.1-0.2,0-0.3-0.1c0,0.1,0.1,0.2,0.1,0.3c0.3,1.2,0.6,2.4,0.9,3.6c0,0.1,0,0.2-0.1,0.3
	c-0.4,0.4-0.9,0.9-1.4,1.3c-0.1,0.1-0.2,0.1-0.4,0.1c-0.6-0.2-1.2-0.3-1.7-0.5c-0.2,0-0.3-0.2-0.3-0.3c-0.5-1.9-1-3.8-1.5-5.7
	c-0.1-0.2-0.1-0.3-0.3-0.3c-1.3-0.3-2.7-0.7-4.1-1.1c-0.1-0.1-0.2,0-0.3-0.1c0.4,1.4,0.7,2.8,1.1,4.3c-1.5-0.5-2.9-0.9-4.4-1.3
	c0,0.1,0.1,0.2,0.1,0.3c0.3,1.2,0.6,2.5,1,3.7c0.1,0.2,0.1,0.3,0.3,0.4c1.9,0.5,3.8,1,5.7,1.5c0.2,0,0.3,0.2,0.3,0.3
	c0.2,0.7,0.3,1.3,0.5,2c0,0.1,0,0.2-0.1,0.3c-0.5,0.4-0.9,0.8-1.3,1.1c-0.1,0.1-0.2,0.1-0.4,0.1c-1.2-0.3-2.4-0.6-3.6-1
	c-0.1-0.1-0.2,0-0.3-0.1c0,0.1,0.1,0.2,0.1,0.3c0.5,2,1,3.9,1.5,5.9c0.1,0.2,0,0.4-0.1,0.5c-0.5,0.5-0.9,1-1.4,1.5
	c-0.1,0.1-0.2,0.1-0.4,0.1c-0.7-0.2-1.3-0.4-2-0.6c0.1,0,0-0.1-0.1-0.2c-0.5-2-1-4-1.6-5.9c0-0.1,0-0.1-0.1-0.3
	c-0.1,0.1-0.2,0.1-0.3,0.2c-0.9,0.9-1.8,1.7-2.7,2.6c-0.1,0.1-0.2,0.1-0.4,0.1c-0.6-0.2-1.1-0.3-1.7-0.4c-0.2,0-0.3-0.1-0.3-0.3
	c-0.2-0.6-0.3-1.2-0.5-1.8c-0.1-0.2,0-0.3,0.1-0.4c1.4-1.4,2.8-2.8,4.3-4.1c0.1-0.1,0.1-0.2,0.1-0.3c-0.3-1.3-0.7-2.7-1-4l0-0.1
	c-1.1,1.1-2.1,2.3-3.2,3.5c-0.4-1.5-0.8-3-1.2-4.5c-0.1,0.1-0.3,0.2-0.4,0.3c-0.9,0.8-1.8,1.8-2.6,2.6c-0.1,0.1-0.2,0.3-0.1,0.4
	c0.5,1.9,1,3.8,1.5,5.7c0.1,0.2,0,0.3-0.1,0.5c-0.5,0.4-0.9,0.9-1.3,1.4c-0.1,0.1-0.3,0.1-0.4,0.1c-0.5-0.2-1-0.4-1.6-0.5
	c-0.2,0-0.3-0.2-0.3-0.3c-0.3-1.2-0.6-2.4-0.9-3.6c0-0.1-0.1-0.2-0.1-0.3c-0.1,0.1-0.2,0.1-0.3,0.2c-1.5,1.4-3,2.9-4.4,4.2
	c-0.1,0.1-0.3,0.1-0.4,0.1c-0.8-0.1-1.6-0.2-2.4-0.4c-0.2-0.8-0.4-1.7-0.6-2.5c0-0.1,0.1-0.3,0.2-0.3c1.6-1.5,3.2-3,4.8-4.5
	c0.1,0,0.1-0.1,0.1-0.1c-0.1-0.1-0.2,0-0.3-0.1c-1.2-0.2-2.5-0.5-3.6-0.8c-0.2,0-0.3-0.1-0.3-0.3c-0.2-0.7-0.3-1.3-0.5-2
	c0-0.1,0-0.2,0.1-0.3c0.5-0.5,1-1,1.5-1.4c0.1-0.1,0.2-0.1,0.4-0.1c1.9,0.5,3.8,1.1,5.7,1.6c0.2,0,0.3,0,0.4-0.1
	c0.9-0.9,1.9-1.8,2.8-2.7c0.1-0.1,0.1-0.1,0.2-0.2 M-228.2,410c0.1,0.1,0.3,0.1,0.4,0c0.6-0.2,1.1-0.4,1.6-0.5
	c0.5-0.1,1.1-0.3,1.6-0.4c0.1,0,0.2-0.1,0.3-0.2c0.3-1,0.6-1.9,0.8-2.9c0-0.2,0-0.2-0.1-0.4c-0.7-0.7-0.5-3.6-1.3-4.4
	c-0.1-0.1-6.8,6.8-6.9,6.9"/>
<g id="Layer_2_1_">
	<path d="M-251.1,364.3L-251.1,364.3c2.5,3.7-1.7,24.3-6.5,10.4c-3.4,13.1-10.5,11.4-10.5,5.4c-5.1,6,6.1,19.5,8.5,20.7
		c1,0.5,3.4,0.8,3.7,0c0.4-0.8-5.5-5.9-5.9-10.3c3.4,0.7,5.2,1.6,5.8-4.7c4.4,6.6,14.7-11.5,10.2-16.2"/>
	<path d="M-233.3,390.6"/>
</g>
</svg>
