<?xml version="1.0" encoding="utf-8"?>
<!-- Generator: Adobe Illustrator 19.1.0, SVG Export Plug-In . SVG Version: 6.00 Build 0)  -->
<svg version="1.1" id="Layer_1" xmlns="http://www.w3.org/2000/svg" xmlns:xlink="http://www.w3.org/1999/xlink" x="0px" y="0px"
	 viewBox="-597.4 353.7 86.6 86.6" style="enable-background:new -597.4 353.7 86.6 86.6;" xml:space="preserve">
<style type="text/css">
	.st0{fill:#FFFFFF;}
</style>
<path class="st0" d="M-554,353.7c-18.7,0-33.9,15.2-33.9,33.9c0,13.5,2.4,24,14.7,29.6v23.1h9v-20.2c1.8,0.4,3.6,0.7,5.6,0.9v19.3h9
	v-19c2-0.1,3.9-0.3,5.6-0.6v19.6h9V418c12-5.5,14.7-17.1,14.7-30.5C-520.1,368.9-535.3,353.7-554,353.7z M-568.1,399.6
	c-5.6,0-10.2-4.6-10.2-10.2s4.6-10.2,10.2-10.2s10.2,4.6,10.2,10.2C-557.9,395.1-562.5,399.6-568.1,399.6z M-541.6,399.6
	c-5.6,0-10.2-4.6-10.2-10.2s4.6-10.2,10.2-10.2s10.2,4.6,10.2,10.2C-531.4,395.1-536,399.6-541.6,399.6z"/>
</svg>
