<svg xmlns="http://www.w3.org/2000/svg" xmlns:xlink="http://www.w3.org/1999/xlink" version="1.1" x="0px" y="0px" viewBox="-255 347 100 100" enable-background="new -255 347 100 100" xml:space="preserve"><path d="M-205,353.7c-18.7,0-33.9,15.2-33.9,33.9c0,13.5,2.4,24,14.7,29.6v23.1h9v-20.2c1.8,0.4,3.6,0.7,5.6,0.9v19.3h9v-19  c2-0.1,3.9-0.3,5.6-0.6v19.6h9V418c12-5.5,14.7-17.1,14.7-30.5C-171.1,368.9-186.3,353.7-205,353.7z M-219.1,399.6  c-5.6,0-10.2-4.6-10.2-10.2c0-5.6,4.6-10.2,10.2-10.2c5.6,0,10.2,4.6,10.2,10.2C-208.9,395.1-213.5,399.6-219.1,399.6z   M-192.6,399.6c-5.6,0-10.2-4.6-10.2-10.2c0-5.6,4.6-10.2,10.2-10.2c5.6,0,10.2,4.6,10.2,10.2C-182.4,395.1-187,399.6-192.6,399.6z"></path></svg>