<?xml version="1.0" encoding="utf-8"?>
<!-- Generator: Adobe Illustrator 19.1.0, SVG Export Plug-In . SVG Version: 6.00 Build 0)  -->
<svg version="1.1" xmlns="http://www.w3.org/2000/svg" xmlns:xlink="http://www.w3.org/1999/xlink" x="0px" y="0px"
	 viewBox="0 0 92.2 91.9" style="enable-background:new 0 0 92.2 91.9;" xml:space="preserve">
<style type="text/css">
	.st0{fill:#FFFFFF;stroke:#FFFFFF;stroke-miterlimit:10;}
</style>
<g id="Layer_1">
</g>
<g id="Layer_2">
	<path class="st0" d="M9.5,0.6C2.4,13.6-0.2,26,1.3,35.4c1.5,9.4,6.8,15.9,16.2,18.1c0,1.5,0.1,3,0.4,4.4c0,0,0,0,0,0
		c-5.6,5.1-8.6,11.4-9,18.2c9.1,2.9,15.7,1.3,20.4-2.9c1.2,0.6,2.5,1.2,3.8,1.6c1.3,0.4,2.7,0.7,4,0.8c0,0.2,0,0.4,0.1,0.5
		c1.1,7.1,5.1,12.6,13.6,15.1c3.5-5.5,4.5-12,2.8-20.5c1-0.8,2-1.7,2.8-2.7c4.2,2.9,8.1,4,11.7,3.8c3.7-0.2,7.2-1.9,10.3-5
		c6.2-6.1,11-17.7,12.7-33.3c-4.6-2.4-9.1-3.5-13.4-3.7c-4.7-0.2-9.2,0.8-13.5,2.7c-3.1,1.3-6.1,3.1-8.8,5.3
		c-2.5-2.5-5.6-4.5-9.3-5.6c-2.2-0.7-4.4-1-6.6-1c-1.3,0-2.6,0.1-3.9,0.4C31.8,18,22.9,5.4,9.5,0.6z M13.6,13.5
		c3.6,0.1,6.3,3.1,6.2,6.6c-0.1,3.6-3.1,6.3-6.6,6.2c-3.6-0.1-6.3-3.1-6.2-6.6C7.1,16.1,10,13.4,13.6,13.5L13.6,13.5z M8.3,29
		c1.9,0.1,3.4,1.7,3.4,3.6c-0.1,1.9-1.7,3.4-3.6,3.4s-3.4-1.7-3.4-3.6C4.8,30.5,6.4,29,8.3,29L8.3,29z M37.9,34.9
		c-6.3,2.1-10.9,7.9-11.2,14.9c-0.3,9,6.7,16.6,15.7,16.9c7.1,0.3,13.4-4.1,15.8-10.4c-0.1,0.9-0.3,1.8-0.6,2.8
		c-3,9.9-13.5,15.4-23.4,12.4c-9.9-3-15.4-13.5-12.4-23.4C24.1,40.5,30.6,35.6,37.9,34.9L37.9,34.9z M78.9,39.5
		c3.6,0.1,6.3,3.1,6.2,6.6c-0.1,3.6-3.1,6.3-6.6,6.2c-3.6-0.1-6.3-3.1-6.2-6.6C72.4,42.1,75.4,39.4,78.9,39.5L78.9,39.5z M11.3,39.5
		c1.7,0.1,3,1.4,2.9,3.1c-0.1,1.7-1.4,3-3.1,2.9c-1.7-0.1-3-1.4-2.9-3.1C8.2,40.8,9.6,39.5,11.3,39.5L11.3,39.5z M75.8,55.6
		c1.9,0.1,3.4,1.7,3.4,3.6c-0.1,1.9-1.7,3.4-3.6,3.4c-1.9-0.1-3.4-1.7-3.4-3.6C72.2,57,73.8,55.6,75.8,55.6L75.8,55.6z M67.6,62.4
		c1.7,0.1,3,1.4,2.9,3.1c-0.1,1.7-1.4,3-3.1,2.9c-1.7-0.1-3-1.4-2.9-3.1C64.6,63.6,65.9,62.4,67.6,62.4L67.6,62.4z M16.8,67.7
		c1.7,0.1,3,1.4,2.9,3.1c-0.1,1.7-1.4,3-3.1,2.9c-1.7-0.1-3-1.4-2.9-3.1C13.7,68.9,15.1,67.7,16.8,67.7L16.8,67.7z M47.6,78.8
		c1.7,0.1,3,1.4,2.9,3.1c-0.1,1.7-1.4,3-3.1,2.9c-1.7-0.1-3-1.4-2.9-3.1C44.5,80,45.9,78.7,47.6,78.8L47.6,78.8z"/>
</g>
</svg>
