<?xml version="1.0" encoding="utf-8"?>
<!-- Generator: Adobe Illustrator 19.1.0, SVG Export Plug-In . SVG Version: 6.00 Build 0)  -->
<svg version="1.1" xmlns="http://www.w3.org/2000/svg" xmlns:xlink="http://www.w3.org/1999/xlink" x="0px" y="0px"
	 viewBox="0 0 36.3 36.9" style="enable-background:new 0 0 36.3 36.9;" xml:space="preserve">
<g id="Layer_1">
</g>
<g id="Layer_2">
	<path d="M18.3,0c2.5,3.7-1.7,24.3-6.5,10.4C8.4,23.5,1.3,21.8,1.3,15.8c-5.1,6,6.1,19.5,8.5,20.7c1,0.5,3.4,0.8,3.7,0
		c0.4-0.8-5.5-5.9-5.9-10.3c3.4,0.7,5.2,1.6,5.8-4.7c4.4,6.6,5-6,7.6-10.3c-0.1,3.1,2,9.3,3.9,12.1c0.6,0.9,2.4,1.2,3.9,1.2
		c-0.7,1.2-3.2,5.3-1.2,6.8c2,1.5,2.4,0,1.9,1.2c-1,1.6-5.6,3.7-4.2,4.1c1.9,0.6,2.4,0.5,4,0c2.7-0.8,8-7,6.8-10.3
		c-1.6,1.4-3.1,2.3-4.4,2.2C35.2,23,36.7,12.9,35,7.2c-1.5,5.5-4.6,10.7-6.1,12C31,14,22.7,2.9,18.3,0L18.3,0z"/>
</g>
</svg>
