<svg xmlns:dc="http://purl.org/dc/elements/1.1/" xmlns:cc="http://creativecommons.org/ns#" xmlns:rdf="http://www.w3.org/1999/02/22-rdf-syntax-ns#" xmlns:svg="http://www.w3.org/2000/svg" xmlns="http://www.w3.org/2000/svg" xmlns:sodipodi="http://sodipodi.sourceforge.net/DTD/sodipodi-0.dtd" xmlns:inkscape="http://www.inkscape.org/namespaces/inkscape" version="1.1" x="0px" y="0px" viewBox="0 0 100 100"><g transform="translate(0,-952.36218)"><g transform="matrix(0.7981136,0,0,0.7981136,18.845049,964.294)"><path d="m 31.854331,95.527555 c -4.003937,-7.830708 -22.6417326,-28.027558 9,-46.98425 -3.295276,12.295275 9.637795,23.917322 11.515748,26.999999 2.940945,4.748031 0.106299,12.897637 -3.649607,20.019684 C 62.964567,94.712595 79.582677,80.078737 80.858268,65.551178 82.062992,52.334644 73.098425,40.925195 65.374016,33.519684 l -8.007874,8.007873 C 57.188976,31.322833 65.551181,14.350393 33.874016,0.03543307 34.972441,3.0118109 40.854331,20.870078 10.38189,43.157479 -9.6377953,57.791336 0.28346457,91.665351 31.854331,95.527555 z" style="" fill="#ffffff" fill-opacity="1" fill-rule="nonzero" stroke="none"></path></g></g></svg>