<?xml version="1.0" encoding="utf-8"?>
<!-- Generator: Adobe Illustrator 19.1.0, SVG Export Plug-In . SVG Version: 6.00 Build 0)  -->
<svg version="1.1" id="Layer_1" xmlns="http://www.w3.org/2000/svg" xmlns:xlink="http://www.w3.org/1999/xlink" x="0px" y="0px"
	 viewBox="-369 17.2 59.8 67.8" style="enable-background:new -369 17.2 59.8 67.8;" xml:space="preserve">
<path d="M-327.5,48.2c1.7,1,3.3,2.1,5,3.1c-1.7,1-3.5,2-5.2,3c1.5,0.8,3.1,1.6,4.5,2.4c0.6,0.3,1.1,0.3,1.7,0
	c2.1-1.2,4.3-2.4,6.4-3.6c0.2-0.1,0.4-0.1,0.6,0c0.6,0.5,1.3,0.9,1.9,1.4c0.1,0.1,0.2,0.3,0.2,0.4c0,0.8,0,1.7,0,2.5
	c0,0.2-0.1,0.3-0.3,0.4c-1.5,0.8-3,1.7-4.5,2.5c0.1,0.1,0.2,0.2,0.3,0.2c2.3,1.4,4.6,2.7,6.9,4.1c0.3,0.2,0.3,0.3,0.3,0.6
	c0,0.9,0,1.9,0,2.8c0,0.2-0.1,0.3-0.3,0.4c-0.9,0.4-1.8,0.8-2.6,1.2c-0.2,0.1-0.4,0.1-0.6,0c-2.2-1.3-4.4-2.5-6.7-3.8
	c-0.1-0.1-0.3-0.1-0.4-0.2c0,0.2,0,0.3,0,0.4c0,1.6,0,3.3,0,4.9c0,0.2-0.1,0.3-0.2,0.4c-0.7,0.4-1.5,0.8-2.2,1.2
	c-0.2,0.1-0.3,0.1-0.5,0c-0.7-0.4-1.4-0.8-2.1-1.2c-0.2-0.1-0.3-0.3-0.3-0.5c0-2.6,0-5.2,0-7.8c0-0.3-0.1-0.4-0.3-0.5
	c-1.6-0.9-3.2-1.8-4.9-2.8c-0.1-0.1-0.2-0.1-0.3-0.2c0,2,0,3.9,0,5.9c-1.8-1.1-3.5-2.1-5.3-3.2c0,0.2,0,0.3,0,0.4c0,1.7,0,3.4,0,5.1
	c0,0.3,0.1,0.4,0.3,0.6c2.3,1.3,4.5,2.6,6.8,3.9c0.2,0.1,0.3,0.3,0.3,0.5c0,0.9,0,1.8,0,2.7c0,0.2-0.1,0.3-0.3,0.4
	c-0.7,0.3-1.4,0.7-2,1c-0.2,0.1-0.3,0.1-0.5,0c-1.4-0.8-2.9-1.6-4.3-2.5c-0.1-0.1-0.2-0.1-0.4-0.2c0,0.2,0,0.3,0,0.4
	c0,2.7,0,5.4,0,8.1c0,0.3-0.1,0.5-0.3,0.6c-0.8,0.5-1.5,1-2.3,1.5c-0.2,0.1-0.3,0.1-0.5,0c-0.8-0.5-1.6-1-2.4-1.5c0.1,0,0-0.1,0-0.3
	c0-2.7,0-5.5,0-8.2c0-0.1,0-0.2,0-0.4c-0.1,0.1-0.3,0.1-0.4,0.2c-1.5,0.8-2.9,1.6-4.4,2.5c-0.2,0.1-0.3,0.1-0.6,0
	c-0.7-0.4-1.3-0.8-2-1.1c-0.2-0.1-0.3-0.2-0.3-0.5c0-0.8,0-1.7,0-2.5c0-0.3,0.1-0.4,0.3-0.5c2.3-1.3,4.6-2.6,6.9-3.9
	c0.1-0.1,0.2-0.2,0.2-0.4c0-1.8,0-3.7,0-5.5v-0.1c-1.8,1.1-3.5,2.3-5.3,3.4c0-2.1,0-4.1,0-6.2c-0.2,0.1-0.4,0.2-0.6,0.3
	c-1.4,0.8-2.9,1.7-4.3,2.5c-0.2,0.1-0.3,0.3-0.3,0.5c0,2.6,0,5.2,0,7.8c0,0.3-0.1,0.4-0.3,0.6c-0.8,0.4-1.5,0.9-2.2,1.4
	c-0.2,0.1-0.4,0.1-0.6,0c-0.6-0.4-1.2-0.8-1.9-1.2c-0.2-0.1-0.3-0.3-0.3-0.5c0-1.6,0-3.3,0-4.9c0-0.1,0-0.3,0-0.4
	c-0.2,0.1-0.3,0.1-0.4,0.2c-2.4,1.3-4.8,2.7-7.1,4c-0.2,0.1-0.4,0.1-0.6,0c-1-0.4-2-0.8-3-1.3c0-1.1,0-2.3,0-3.4
	c0-0.1,0.2-0.3,0.3-0.3c2.6-1.4,5.1-2.8,7.7-4.2c0.1,0,0.1-0.1,0.2-0.1c-0.1-0.1-0.3-0.1-0.4-0.2c-1.5-0.7-3-1.5-4.4-2.2
	c-0.2-0.1-0.3-0.2-0.3-0.5c0-0.9,0-1.8,0-2.7c0-0.1,0.1-0.3,0.2-0.4c0.8-0.5,1.6-0.9,2.4-1.3c0.2-0.1,0.3-0.1,0.5,0
	c2.3,1.3,4.5,2.7,6.8,4c0.2,0.1,0.4,0.1,0.6,0c1.5-0.9,3-1.7,4.5-2.6c0.1-0.1,0.2-0.1,0.3-0.2c-1.8-1-3.6-2-5.3-3.1
	c1.7-1.1,3.4-2.1,5.1-3.2c-1.4-0.8-2.8-1.5-4.1-2.4c-0.7-0.5-1.3-0.5-2,0c-2,1.2-4,2.4-6,3.6c-0.2,0.1-0.4,0.1-0.7,0
	c-0.5-0.6-1.2-0.9-2-1.3c-0.2-0.1-0.2-0.2-0.2-0.4c0-0.9,0-1.8,0-2.7c0-0.2,0.1-0.3,0.3-0.5c1.6-0.9,3.1-1.7,4.7-2.6
	c-0.1-0.1-0.2-0.1-0.3-0.2c-2.5-1.3-4.9-2.7-7.4-4c-0.2-0.1-0.3-0.2-0.3-0.4c0-1,0-2,0-3c0-0.2,0.1-0.3,0.2-0.4
	c0.9-0.4,1.7-0.9,2.6-1.3c0.2-0.1,0.3-0.1,0.5,0c2.4,1.4,4.7,2.7,7.1,4.1c0.2,0.1,0.3,0.2,0.5,0.3c0-0.2,0-0.3,0-0.5
	c0-1.7,0-3.3,0-5c0-0.2,0.1-0.4,0.3-0.5c0.6-0.4,1.3-0.8,1.9-1.3c0.2-0.1,0.3-0.1,0.5,0c0.8,0.5,1.6,0.9,2.3,1.3
	c0.2,0.1,0.3,0.3,0.3,0.5c0,2.6,0,5.3,0,7.9c0,0.3,0.1,0.4,0.3,0.6c1.5,0.9,3.1,1.7,4.6,2.6c0.1,0.1,0.2,0.1,0.3,0.2c0-2,0-4,0-6.1
	c1.9,1,3.7,2,5.5,3c0-0.2,0-0.3,0-0.4c0-1.7,0-3.5,0-5.2c0-0.2-0.1-0.4-0.3-0.5c-2.3-1.3-4.6-2.6-6.8-3.9c-0.2-0.1-0.3-0.3-0.3-0.5
	c0-0.8,0-1.7,0-2.5c0-0.2,0.1-0.3,0.2-0.4c0.7-0.4,1.4-0.8,2.1-1.2c0.2,0,0.3,0,0.5,0.1c1.5,0.8,2.9,1.7,4.4,2.5
	c0.1,0.1,0.2,0.1,0.4,0.2c0-0.2,0-0.3,0-0.4c0-2.7,0-5.4,0-8.2c0-0.3,0.1-0.4,0.3-0.6c0.8-0.5,1.6-1,2.3-1.5c0.2-0.1,0.3-0.1,0.5,0
	c0.8,0.5,1.6,1,2.4,1.5c0.2,0.1,0.3,0.3,0.3,0.5c0,2.7,0,5.4,0,8.2c0,0.1,0,0.3,0,0.4c1.8-1,3.5-1.9,5.2-2.9
	c0.8,0.5,1.6,1.1,2.4,1.6c0.1,0.1,0.2,0.3,0.2,0.4c0,0.7,0,1.4,0,2.2c0,0.3-0.1,0.4-0.3,0.6c-2.4,1.3-4.7,2.7-7.1,4
	c-0.2,0.1-0.3,0.3-0.3,0.5c0,1.7,0,3.4,0,5.1c0,0.1,0,0.2,0,0.4c1.8-1.1,3.5-2.1,5.3-3.2c0,2.1,0,4.2,0,6.4c0.5-0.3,1-0.6,1.5-0.8
	c1.2-0.7,2.4-1.3,3.6-2c0.2-0.1,0.3-0.3,0.3-0.5c0-2.8,0-5.7,0-8.5c0-0.2,0.1-0.4,0.3-0.5c0.7-0.3,1.4-0.7,2.1-1
	c0.1-0.1,0.3-0.1,0.5,0c0.7,0.3,1.4,0.7,2.2,1c0.3,0.1,0.3,0.2,0.3,0.5c0,1.7,0,3.4,0,5.1c0,0.1,0,0.3,0,0.4c0.5-0.3,1-0.5,1.4-0.8
	c2.1-1.1,4.3-2.3,6.4-3.4c0.2-0.1,0.4-0.1,0.6,0c0.8,0.5,1.5,0.9,2.3,1.4c0.1,0.1,0.2,0.3,0.2,0.4c0,0.9,0,1.9,0,2.8
	c0,0.2-0.1,0.3-0.3,0.4c-2.4,1.3-4.8,2.7-7.1,4c-0.1,0.1-0.3,0.2-0.4,0.3c0.6,0.4,1.2,0.7,1.8,1c0.9,0.5,1.9,1.1,2.8,1.6
	c0.2,0.1,0.3,0.2,0.3,0.5c0,0.9,0,1.7,0,2.6c0,0.2-0.1,0.4-0.3,0.5c-0.7,0.4-1.3,0.7-2,1.1c-0.2,0.1-0.4,0.1-0.6,0
	c-2.3-1.4-4.7-2.8-7-4.1c-0.2-0.1-0.3-0.1-0.6,0c-1.5,1-3.1,2-4.7,3C-327.2,48.1-327.3,48.1-327.5,48.2z M-338.8,55.3
	c0.7,0,1.5,0,2.2,0c0.1,0,0.3-0.1,0.4-0.2c0.7-1.2,1.4-2.3,2-3.5c0.1-0.2,0.1-0.3,0-0.5c-0.7-1.2-1.4-2.5-2.2-3.7
	c-0.1-0.2-0.2-0.2-0.4-0.2c-1.5,0-3,0-4.5,0c-0.1,0-0.3,0.1-0.4,0.2c-0.8,1.3-1.5,2.5-2.3,3.8c-0.1,0.1-0.1,0.3,0,0.4
	c0.8,1.2,1.6,2.4,2.4,3.6c0.1,0.2,0.3,0.2,0.5,0.2C-340.3,55.3-339.5,55.3-338.8,55.3z"/>
</svg>
