<svg xmlns="http://www.w3.org/2000/svg" xmlns:xlink="http://www.w3.org/1999/xlink" version="1.1" x="0px" y="0px" viewBox="0 0 78.452 89.936" enable-background="new 0 0 78.452 89.936" xml:space="preserve"><path style="fill:#ffffff"  d="M64.357,32.89l10.936,6.317c0.331,0.191,0.694,0.282,1.051,0.282c0.729,0,1.437-0.377,1.825-1.051  c0.583-1.01,0.238-2.298-0.769-2.878l-8.833-5.101l8.833-5.101c1.007-0.581,1.352-1.869,0.769-2.875  c-0.577-1.004-1.869-1.35-2.876-0.769l-8.829,5.095V16.615c0-1.164-0.943-2.104-2.106-2.104c-1.164,0-2.106,0.94-2.106,2.104v12.628  L41.336,41.316V17.169l10.934-6.32c1.007-0.58,1.352-1.869,0.769-2.875c-0.58-1.007-1.869-1.352-2.876-0.769l-8.826,5.098V2.104  C41.336,0.943,40.393,0,39.229,0c-1.164,0-2.106,0.943-2.106,2.104v10.202l-8.839-5.101c-1.013-0.583-2.295-0.238-2.875,0.772  c-0.583,1.004-0.238,2.292,0.769,2.873l10.945,6.32v24.153L16.205,29.246V16.615c0-1.164-0.943-2.104-2.107-2.104  s-2.106,0.94-2.106,2.104v10.196l-8.833-5.098c-1.004-0.581-2.295-0.235-2.875,0.769c-0.583,1.007-0.238,2.295,0.769,2.875  l8.833,5.101l-8.833,5.101c-1.007,0.581-1.352,1.869-0.769,2.878c0.389,0.673,1.097,1.051,1.825,1.051c0.357,0,0.72-0.09,1.05-0.282  l10.939-6.317l20.915,12.077L14.098,57.043L3.159,50.729c-1.013-0.58-2.295-0.231-2.875,0.772c-0.583,1.007-0.238,2.292,0.769,2.875  l8.833,5.099l-8.833,5.101c-1.007,0.583-1.352,1.872-0.769,2.876c0.389,0.676,1.097,1.056,1.825,1.056  c0.357,0,0.72-0.093,1.05-0.284l8.833-5.101v10.202c0,1.163,0.943,2.106,2.106,2.106s2.107-0.943,2.107-2.106V60.69l20.918-12.077  V72.77l-10.945,6.312c-1.007,0.58-1.352,1.868-0.772,2.878c0.392,0.673,1.1,1.054,1.828,1.054c0.357,0,0.717-0.091,1.05-0.282  l8.839-5.101v10.202c0,1.16,0.942,2.104,2.106,2.104c1.163,0,2.106-0.943,2.106-2.104V77.633l8.826,5.098  c0.331,0.191,0.694,0.282,1.051,0.282c0.729,0,1.437-0.381,1.825-1.054c0.583-1.01,0.238-2.295-0.769-2.878L41.336,72.77V48.616  l20.915,12.077v12.631c0,1.163,0.942,2.106,2.106,2.106c1.163,0,2.106-0.943,2.106-2.106V63.125l8.829,5.098  c0.331,0.191,0.694,0.284,1.051,0.284c0.729,0,1.437-0.38,1.825-1.056c0.583-1.004,0.238-2.293-0.769-2.876l-8.833-5.101  l8.833-5.099c1.007-0.583,1.352-1.868,0.769-2.875c-0.577-1.004-1.869-1.353-2.876-0.772l-10.938,6.314L43.439,44.966L64.357,32.89z  "></path></svg>