<?xml version="1.0" encoding="utf-8"?>
<!-- Generator: Adobe Illustrator 19.1.0, SVG Export Plug-In . SVG Version: 6.00 Build 0)  -->
<svg version="1.1" xmlns="http://www.w3.org/2000/svg" xmlns:xlink="http://www.w3.org/1999/xlink" x="0px" y="0px"
	 viewBox="0 0 69.6 69.8" style="enable-background:new 0 0 69.6 69.8;" xml:space="preserve">
<g id="Layer_1">
</g>
<g id="Layer_2">
	<path d="M51.4,2.2c-4.7,0-9.5,1.9-13.3,6.1l-3.3,4.8l-3.3-4.8c-3.8-4.2-8.6-6.1-13.3-6.1C9.1,2.2,0.4,9.3,0,20.9
		c-0.6,19.9,24.2,25.6,33.6,44.2c0,0,0,0.1,0,0.1c0.4,0.8,0.8,1.6,1.1,2.4h0.1c0.3-0.8,0.7-1.6,1.1-2.4
		c9.4-18.8,34.3-24.4,33.7-44.4C69.3,9.3,60.6,2.2,51.4,2.2z"/>
</g>
</svg>
