<?xml version="1.0" encoding="utf-8"?>
<!-- Generator: Adobe Illustrator 19.1.0, SVG Export Plug-In . SVG Version: 6.00 Build 0)  -->
<svg version="1.1" id="Layer_1" xmlns="http://www.w3.org/2000/svg" xmlns:xlink="http://www.w3.org/1999/xlink" x="0px" y="0px"
	 viewBox="0 0 461.8 105.5" style="enable-background:new 0 0 461.8 105.5;" xml:space="preserve">
<style type="text/css">
	.st0{font-family:'MinionPro-Semibold';}
	.st1{font-size:24px;}
	.st2{fill:none;}
	.st3{fill:#010101;stroke:#000000;stroke-width:2;stroke-miterlimit:10;}
	.st4{fill:#010101;}
</style>
<text transform="matrix(1 0 0 1 169.5681 94.2461)" class="st0 st1">the roleplaying card game</text>
<path class="st2" d="M240.9,79.5"/>
<g>
	<path d="M38.9,74.3H1v-3.4l5.6-4.4V33L0,31l2-3.9h36.4l4.3-1.1v15.3l-3.3,1.3l-7.4-11H17.5v16.2h7.1l4.4-6.7h3.4v17.5l-3.9,2
		l-3.9-8.1h-7.1v17.2h14L40,57.4l3.3,1.4v16.6L38.9,74.3z"/>
	<path d="M71.8,56.1L52.9,33.9l-5-2.9l2-3.9h20.9v3.4l-4.9,2.9l13.4,15.8 M79.3,49.1l16.1,19l4.3,2.3l-1.9,3.9H76.9v-3.4l4.7-3.1
		l-9.8-11.7"/>
	<path d="M132.5,48.6c1.2-1.5,1.9-3.5,1.9-6.1c0-3.2-0.8-5.7-2.3-7.7c-1.5-2-3.8-3-6.7-3c-2,0-3.8,0.6-5.5,1.8v34.5l10.4,2.3l-2,3.9
		h-25v-3.4l5.6-4.4V33l-6.7-2l2-3.9h10c3.6,0,7.1-0.1,10.5-0.4c2.6-0.2,4.4-0.2,5.6-0.2c3.1,0,5.9,0.6,8.3,1.8
		c2.4,1.2,4.3,2.9,5.6,5c1.3,2.1,2,4.5,2,7.1c0,2.9-1.1,5.6-3.3,8.1c-2.2,2.5-5,4.5-8.3,5.9c-3.4,1.4-6.6,2.1-9.8,1.9l-2.6-1.6
		l2-3.9h3.4v-0.1C129.6,50.8,131.3,50,132.5,48.6z"/>
	<path d="M188.8,74.3h-37.9v-3.4l5.6-4.4V33l-6.7-2l2-3.9h36.4l4.3-1.1v15.3l-3.3,1.3l-7.4-11h-14.5v16.2h7.1l4.4-6.7h3.4v17.5
		l-3.9,2l-3.9-8.1h-7.1v17.2h14l8.5-12.2l3.3,1.4v16.6L188.8,74.3z"/>
	<path d="M238.1,29.5c3.5,2,6.1,4.7,8,8.3c1.9,3.5,2.8,7.5,2.8,11.9c0,4.6-1.4,8.8-4.3,12.6c-2.9,3.9-6.4,6.9-10.7,9.2
		c-4.2,2.3-8.3,3.4-12.1,3.4c-1.8,0-3.7-0.1-5.5-0.3c-3-0.2-5.3-0.3-6.9-0.3h-9.5v-3.4l5.6-4.4V33l-6.7-2l2-3.9h8.5
		c3.7,0,7.3-0.1,10.8-0.4c2.7-0.2,4.7-0.2,5.9-0.2C230.7,26.5,234.6,27.5,238.1,29.5z M230.5,67.1c2.1-1.4,3.7-3.4,4.9-6
		c1.2-2.6,1.8-5.4,1.8-8.6c0-3.8-0.6-7.3-1.7-10.4c-1.1-3.1-2.9-5.6-5.2-7.4c-2.3-1.9-5.2-2.8-8.7-2.8c-1.8,0-3.5,0.5-5,1.4v34.9
		c2,0.8,4.4,1.1,7,1.1h0.1C226.2,69.3,228.5,68.5,230.5,67.1z"/>
	<path d="M276.5,74.2h-21.2v-3.4l5.6-4.7V32.8l-6.7-1.9l2-3.9h21.2v3.4l-5.7,4.8v33.2l6.7,1.9L276.5,74.2z"/>
	<path d="M328.3,42.5l-3.3,1.3l-8.5-12.2H311v37l6.7,1.7l-2,3.9h-21.2v-3.4l5.6-4.4V31.6h-5.3l-8.5,12.2l-3.3-1.3V26l4.3,1.1H324
		l4.3-1.1V42.5z"/>
	<path d="M355.1,74.2h-21.2v-3.4l5.6-4.7V32.8l-6.7-1.9l2-3.9h21.2v3.4l-5.7,4.8v33.2l6.7,1.9L355.1,74.2z"/>
	<path d="M456.1,35.2v39H451l-28.1-32.1v25l8.5,3.2l-1.9,3.9H412v-3.4l5.6-4.7V34.6L411,31l2-3.9h10.6L451,58.3V34.1l-8.5-3.1l2-3.9
		h17.4v3.4L456.1,35.2z"/>
</g>
<path class="st3" d="M384,25c-14.3,0-26,11.6-26,26s11.6,26,26,26c14.3,0,26-11.6,26-26S398.3,25,384,25z M384,28.2
	c12.6,0,22.7,10.1,22.7,22.7S396.6,73.7,384,73.7c-12.6,0-22.7-10.1-22.7-22.7S371.5,28.2,384,28.2z M403.5,51"/>
<g>
	<circle class="st3" cx="384" cy="32.2" r="0.8"/>
	<circle class="st3" cx="365.3" cy="51" r="0.8"/>
	<circle class="st3" cx="402.8" cy="51" r="0.8"/>
	<circle class="st3" cx="384" cy="69.7" r="0.8"/>
</g>
<path class="st3" d="M395.5,38.1l-15.8,9l-7.2,16.6l15.8-9L395.5,38.1z M383.9,47.7c1.8-0.1,3.3,1.3,3.4,3.1
	c0.1,1.8-1.3,3.3-3.1,3.4c-1.8,0.1-3.3-1.3-3.4-3.1C380.7,49.4,382.1,47.8,383.9,47.7z"/>
<polygon class="st4" points="93,27.8 86.9,31.3 88.9,33.3 56.5,66.5 56.5,66.5 48.7,70.4 48.7,70.4 45.6,73.6 51.9,72.8 51.2,79.1 
	54.3,75.9 54.3,75.9 58,68 58,68 90.4,34.8 92.5,36.8 95.9,30.5 99.2,24.2 "/>
</svg>
