<?xml version="1.0" encoding="utf-8"?>
<!-- Generator: Adobe Illustrator 19.1.0, SVG Export Plug-In . SVG Version: 6.00 Build 0)  -->
<svg version="1.1" xmlns="http://www.w3.org/2000/svg" xmlns:xlink="http://www.w3.org/1999/xlink" x="0px" y="0px"
	 viewBox="0 0 108.7 108.7" style="enable-background:new 0 0 108.7 108.7;" xml:space="preserve">
<g id="Layer_1">
</g>
<g id="Layer_2">
	<g>
		<path d="M108.7,103.4c0-6.4-42-28.4-51.5-51.5c-1.8-4.2,1.5-14,0-18.3c-2.1-6-11.7-18.5-18-18c-10.4,0.7-30,19-29.4,29.4
			c0.3,5.7,9.4,15,14.6,17.4c4.1,1.9,16.8,0.9,18.2,0c1.4-0.9,1-15.4-0.5-16.3c-0.5-0.3-1.3-0.6-4.2,0c-1.1,0.2,2.1,9.8-0.3,11.4
			c-1,0.6-10.3-0.2-11.5-0.7c-2.9-1.2-8.4-9.5-8.4-12.6C17.4,37,30.8,24.3,38,23.8c4.3-0.3,10.3,7.9,11.8,12
			c1.5,4.3-1.4,13.8,0,18.2c7.5,24,50.4,53.6,53.8,53.6C105.2,107.5,108.7,105.1,108.7,103.4z"/>
		<path d="M29.4,36.7c0,0,2.5-0.3,3.3-0.1c0.8,0.2,2.8,1.7,2.8,1.7s-0.3-2.5-0.1-3.3s1.7-2.8,1.7-2.8s-2.5,0.3-3.3,0.1
			C33,32.1,31,30.6,31,30.6s0.3,2.5,0.1,3.3C30.9,34.7,29.4,36.7,29.4,36.7z"/>
		<path d="M26.6,52.9c0,0,2.3-2.8,3.3-3.4c1-0.6,4.6-1.1,4.6-1.1s-2.8-2.3-3.4-3.3c-0.6-1-1.1-4.6-1.1-4.6s-2.3,2.8-3.3,3.4
			c-1,0.6-4.6,1.1-4.6,1.1s2.8,2.3,3.4,3.3C26.1,49.3,26.6,52.9,26.6,52.9z"/>
		<path d="M42.1,41.6c0,0,1.4-0.9,1.9-0.9c0.5-0.1,2.1,0.3,2.1,0.3s-0.9-1.4-0.9-1.9c-0.1-0.5,0.3-2.1,0.3-2.1s-1.4,0.9-1.9,0.9
			c-0.5,0.1-2.1-0.3-2.1-0.3s0.9,1.4,0.9,1.9C42.4,40,42.1,41.6,42.1,41.6z"/>
		<path d="M10.1,63.2c0,0,1.5-1.5,2.1-1.7c0.6-0.3,2.7-0.3,2.7-0.3s-1.5-1.5-1.7-2.1c-0.3-0.6-0.3-2.7-0.3-2.7s-1.5,1.5-2.1,1.7
			C10.1,58.4,8,58.5,8,58.5s1.5,1.5,1.7,2.1C10,61.2,10.1,63.2,10.1,63.2z"/>
		<path d="M61.6,40.3c0,0,2.2,1.1,2.8,1.7c0.5,0.6,1.4,2.9,1.4,2.9s1.1-2.2,1.7-2.8c0.6-0.5,2.9-1.4,2.9-1.4s-2.2-1.1-2.8-1.7
			c-0.5-0.6-1.4-2.9-1.4-2.9s-1.1,2.2-1.7,2.8C63.9,39.4,61.6,40.3,61.6,40.3z"/>
		<path d="M39.8,9.5c0,0,3.7,0.4,4.8,1c1.1,0.6,3.5,3.5,3.5,3.5s0.4-3.7,1-4.8c0.6-1.1,3.5-3.5,3.5-3.5s-3.7-0.4-4.8-1
			c-1.1-0.6-3.5-3.5-3.5-3.5s-0.4,3.7-1,4.8C42.6,7.1,39.8,9.5,39.8,9.5z"/>
		<path d="M0,32c0,0,2.8-0.7,3.7-0.6c0.9,0.1,3.4,1.5,3.4,1.5s-0.7-2.8-0.6-3.7C6.6,28.4,8,25.9,8,25.9s-2.8,0.7-3.7,0.6
			C3.4,26.3,1,24.9,1,24.9s0.7,2.8,0.6,3.7C1.4,29.5,0,32,0,32z"/>
		<path d="M36.8,71.1c0,0,2-0.5,2.7-0.3c0.7,0.1,2.4,1.2,2.4,1.2s-0.5-2-0.3-2.7c0.1-0.7,1.2-2.4,1.2-2.4s-2,0.5-2.7,0.3
			C39.4,67,37.6,66,37.6,66s0.5,2,0.3,2.7C37.8,69.3,36.8,71.1,36.8,71.1z"/>
	</g>
</g>
</svg>
