<?xml version="1.0" encoding="utf-8"?>
<!-- Generator: Adobe Illustrator 16.0.0, SVG Export Plug-In . SVG Version: 6.00 Build 0)  -->
<!DOCTYPE svg PUBLIC "-//W3C//DTD SVG 1.1//EN" "http://www.w3.org/Graphics/SVG/1.1/DTD/svg11.dtd">
<svg version="1.1" id="Layer_1" xmlns="http://www.w3.org/2000/svg" xmlns:xlink="http://www.w3.org/1999/xlink" x="0px" y="0px"
	 width="500px" height="500px" viewBox="0 0 500 500" enable-background="new 0 0 500 500" xml:space="preserve">
<g>
	<g>
		<g>
			<g>
				<path fill="#FFFFFF" d="M124.824,227.656l-0.328-0.066C124.639,227.64,124.717,227.726,124.824,227.656z"/>
				<path fill="#FFFFFF" d="M173.13,236.958L173,237.343C173.103,237.219,173.13,237.083,173.13,236.958z"/>
				<path fill="#FFFFFF" d="M184.579,202.239l0.246-0.046C184.707,202.179,184.634,202.199,184.579,202.239z"/>
				<g>
					<path fill="#FFFFFF" d="M167.72,199.355c-3.84-0.542-7.684-1.175-11.604-1.366c-3.909-0.118-7.931-0.422-12.023-0.235
						c-1.055,0.038-2.116,0.092-3.183,0.155c-1.066,0.066-2.143,0.058-3.219,0.096c-2.154,0.056-4.32,0.115-6.486,0.119
						c-1.083,0.001-2.166-0.011-3.246-0.045c-1.082-0.056-2.161-0.156-3.235-0.272c-2.148-0.239-4.277-0.593-6.366-1.123
						c-2.21-0.544-4.411-1.189-6.608-1.844c-2.2-0.641-4.398-1.28-6.595-1.919c-4.394-1.262-8.743-2.519-13.296-3.358
						c-4.512-0.955-8.831-2.3-13.055-3.873c-2.076-0.846-4.134-1.741-6.188-2.662c-1.025-0.466-2.051-0.932-3.081-1.4l-1.542-0.71
						l-1.469-0.773c-1.889-0.998-3.86-1.804-5.879-2.532c-1.027-0.339-1.99-0.77-2.983-1.161l-2.98-1.183
						c-0.996-0.397-1.991-0.801-2.977-1.224c-0.99-0.418-1.89-0.972-2.817-1.492c-1.833-1.071-3.598-2.266-5.207-3.667
						c-1.612-1.634-3.048-3.442-4.57-5.108c-0.175-0.197-0.712-0.479-1.33-0.707c-0.149-0.048-0.305-0.099-0.467-0.151l-0.249-0.073
						l-0.194-0.04c-0.133-0.029-0.269-0.058-0.406-0.088l-0.217-0.049l-0.336-0.159c-0.943-0.455-2.087-1.048-3.458-1.616
						c-0.188-0.076-0.371-0.149-0.549-0.22c-0.198-0.073-0.391-0.145-0.576-0.213c-0.21-0.069-0.413-0.137-0.607-0.201
						c-0.216-0.068-0.481-0.146-0.703-0.202c-0.391-0.101-1.043-0.239-1.508-0.286c-0.205-0.023-0.546-0.054-0.828-0.061
						c-0.284-0.008-0.539,0-0.762,0.016c-0.407,0.034-0.419,0.124-0.147,0.245c0.136,0.062,0.344,0.137,0.606,0.234
						c0.129,0.05,0.273,0.105,0.431,0.166c0.162,0.063,0.326,0.133,0.43,0.201c1.175,0.595,1.92,1.448,2.408,2.201
						c0.941,1.523,1.205,2.88,1.393,3.465c0.067,0.238,0.131,0.482,0.183,0.713c0.044,0.222,0.09,0.449,0.136,0.682
						c0.088,0.469,0.27,0.937,0.463,1.426c0.388,0.981,0.841,2.013,1.298,3.001c0.918,1.98,1.903,3.823,2.686,4.938
						c0.199,0.282,0.391,0.555,0.577,0.819c0.2,0.247,0.394,0.486,0.583,0.718c0.383,0.462,0.744,0.898,1.091,1.317
						c0.703,0.833,1.366,1.583,2.056,2.309c1.397,1.42,2.82,2.884,5.079,4.383c2.307,1.594,4.598,3.229,6.935,4.758
						c2.371,1.449,4.735,2.916,7.085,4.446c2.353,1.5,4.692,2.872,6.998,4.459c2.313,1.534,4.573,3.301,6.854,4.986
						c1.836,1.4,3.807,2.558,5.851,3.573c2.044,1.017,4.16,1.905,6.305,2.643c2.142,0.766,4.302,1.49,6.431,2.279
						c2.13,0.801,4.229,1.64,6.253,2.596c4.396,2.096,8.667,4.493,13.169,6.553c2.235,1.048,4.491,2.053,6.781,2.962
						c2.295,0.902,4.697,1.616,7.105,2.232c2.582,0.625,5.083,1.452,7.65,2.214c2.577,0.746,5.143,1.556,7.717,2.36l3.868,1.195
						c1.311,0.353,2.643,0.661,3.971,0.968c2.66,0.607,5.34,1.137,8.044,1.52c10.674,1.353,21.604,1.383,32.704,1.245l4.872-0.072
						l4.914-0.235l2.46-0.105l2.476-0.204l4.965-0.391c2.1-0.249,4.201-0.55,6.297-0.867c1.043-0.138,2.104-0.362,3.163-0.599
						l3.172-0.709l1.583-0.368l1.567-0.452l3.126-0.938c2.093-0.585,4.125-1.417,6.171-2.179c1.015-0.406,2.052-0.74,3.045-1.214
						l3.091-1.407c1.517-0.74,3.059-1.411,4.55-2.206l4.439-2.458c1.464-0.832,2.991-1.6,4.404-2.479l4.25-2.624l2.13-1.308
						l1.066-0.652c0.323-0.232,0.552-0.505,0.832-0.755l3.232-3.063l2.241-2.083l0.81-1.059l0.737-1.019
						c0.458-0.672,0.867-1.358,1.244-2.076l0.603-1.13l0.628-1.226c0.353-0.941,0.716-1.934,0.955-2.964
						c0.13-0.517,0.279-1.032,0.386-1.555c0.086-0.526,0.19-1.054,0.255-1.583c0.284-2.12,0.272-4.215,0.059-6.213
						c-0.442-3.999-1.654-7.757-3.849-11.527c-0.992-1.909-2.747-3.676-4.286-5.5l-2.4-2.725c-0.366-0.471-0.924-0.859-1.398-1.284
						l-1.485-1.25l-3.013-2.484l-1.527-1.231c-0.511-0.409-1.104-0.751-1.654-1.128c-2.244-1.471-4.52-2.913-6.81-4.3
						c-0.348-0.183-0.699-0.368-1.054-0.555l-0.536-0.277l-0.479-0.241c-0.506-0.239-1.021-0.483-1.544-0.73
						c-1.05-0.477-2.113-1.021-3.238-1.428c-2.239-0.847-4.562-1.702-6.962-2.119c-1.194-0.23-2.395-0.404-3.589-0.495
						c-1.204-0.048-2.403-0.018-3.584,0.109c-2.356,0.224-4.664,0.97-6.804,2.227c-2.083,1.224-3.487,4.175-4.348,6.907
						c0.699-2.244,2.285-0.373,3.607,2.092c1.335,2.477,2.301,5.658,2.476,5.95c2.097,3.787,4.817,6.399,6.898,9.594
						c0.506,0.763,0.941,1.597,1.378,2.391l0.632,1.2c0.125,0.211,0.164,0.377,0.207,0.543l0.131,0.496
						c0.185,1.27,0.066,2.376-0.136,3.314c-0.431,1.922-1.465,3.063-1.729,3.588c-0.382,0.791-0.842,1.218-1.396,1.464
						c-0.525,0.126-0.764,0.177-0.968,0.313c-0.109,0.064-0.183,0.124-0.322,0.203l-1.399,0.633
						c-0.879,0.431-1.812,0.761-2.743,1.094c-2.443,0.968-4.993,1.718-7.539,2.494l-3.892,0.986
						c-1.328,0.296-2.71,0.525-4.063,0.797c-5.477,0.948-11.132,1.564-16.953,1.422C182.316,201.786,175.053,200.524,167.72,199.355
						z"/>
				</g>
			</g>
		</g>
	</g>
	<g>
		<g>
			<g>
				<path fill="#FFFFFF" d="M138.692,256.123l-0.429-0.095C138.45,256.091,138.557,256.186,138.692,256.123z"/>
				<path fill="#FFFFFF" d="M180.702,264.695l-0.494,0.312C180.383,264.904,180.553,264.796,180.702,264.695z"/>
				<path fill="#FFFFFF" d="M230.637,250.218c0,0,0.262,0.407,0.262,0.407C230.819,250.409,230.724,250.301,230.637,250.218z"/>
				<g>
					<path fill="#FFFFFF" d="M202.127,230.995c-5.22-0.994-10.512-1.931-15.79-2.792c-1.313-0.225-2.649-0.412-3.987-0.552
						l-1.243-0.117l-1.005-0.083c-1.34-0.106-2.683-0.195-4.027-0.265c-2.781-0.123-5.168-0.25-7.692-0.279
						c-1.254-0.016-2.513-0.013-3.778,0.009c-1.277,0.044-2.48-0.046-3.735-0.033c-1.282-0.007-2.573,0.003-3.871,0.022
						c-1.298,0.008-2.608,0.084-3.915,0.009c-2.617-0.084-5.261-0.164-7.917-0.301c-5.285-0.487-10.622-1.197-15.732-2.957
						c-1.354-0.451-2.709-0.883-4.054-1.368l-4.017-1.537l-4.013-1.537l-2.008-0.762l-2.003-0.822
						c-2.673-1.091-5.36-2.154-8.078-3.161c-1.393-0.521-2.89-1.079-4.34-1.588c-1.45-0.488-2.914-0.966-4.375-1.405
						c-11.705-3.481-22.182-7.9-31.718-13.568c-4.569-2.724-9.231-4.973-13.476-7.792c-1.063-0.7-2.047-1.47-3.073-2.222
						c-0.938-0.782-1.808-1.599-2.699-2.426c-0.813-0.92-1.618-1.849-2.361-2.838c-0.69-1.058-1.376-2.096-1.948-3.242
						c-1.2-2.478-2.096-5.105-3.019-7.819c-0.114-0.333-0.521-0.909-1.093-1.602c-0.571-0.697-1.286-1.565-2.048-2.396
						c-1.523-1.667-3.162-3.402-3.929-3.838c-0.691-0.426-1.012,4.563-1.028,5.923c-0.022,1.116-0.032,2.386,0.01,3.7
						c0.056,1.304,0.142,2.67,0.257,4.011c0.151,1.32,0.34,2.613,0.544,3.787c0.202,1.175,0.507,2.189,0.762,3.008
						c0.506,1.661,1.091,3.052,1.634,4.356c0.514,1.32,1.136,2.463,1.781,3.61c0.322,0.573,0.654,1.145,1.006,1.725
						c0.391,0.553,0.801,1.115,1.242,1.697c0.44,0.582,0.91,1.185,1.419,1.819c0.526,0.598,1.104,1.201,1.726,1.856
						c5.154,5.412,11.054,9.76,16.966,13.83c5.924,4.086,11.934,7.881,17.691,12.115c4.661,3.426,9.82,5.768,14.834,7.985
						c2.571,1.118,4.838,2.159,7.583,3.41c2.636,1.221,5.232,2.501,7.737,3.942c5.54,2.98,10.969,6.274,16.762,9.066
						c1.439,0.71,2.87,1.437,4.338,2.099c1.484,0.638,2.978,1.258,4.483,1.854c1.505,0.597,3.021,1.169,4.549,1.711
						c1.532,0.534,3.125,0.943,4.703,1.366c3.376,0.865,6.68,1.93,10.105,2.771c3.393,0.875,6.796,1.968,10.177,2.666l5.092,1.155
						l2.555,0.557l2.407,0.45c1.606,0.292,3.216,0.565,4.83,0.811l1.564,0.231c0.105,0.014,0.185,0.019,0.284,0.015
						c0.564-0.024,1.248-0.115,2.083-0.134c0.824-0.028,1.839-0.064,2.732,0.243c0.577,0.192,1.062,0.69,0.927,1.242
						c-0.146,0.627-0.703,1.103-1.267,1.484c-0.58,0.382-1.229,0.673-1.859,0.884c-0.799,0.259-1.372,0.508-1.947,0.766l-0.106,0.05
						l-0.487,0.248l-1.427,0.74c-0.932,0.501-1.922,0.984-2.93,1.463l-6.008,2.915l-12.61,5.896l-6.185,2.782l-1.535,0.673
						l-1.491,0.6l-2.985,1.188c-1.824,0.768-3.564,1.237-5.331,1.744l-2.645,0.723c-0.887,0.219-1.803,0.347-2.702,0.517
						c-1.798,0.305-3.595,0.608-5.389,0.913l-5.549,0.557c-0.927,0.087-1.821,0.221-2.767,0.281l-2.839,0.193
						c-1.901,0.126-3.74,0.352-5.673,0.5c-3.877,0.282-7.697,0.794-11.734,1.421c-8.407,1.463-20.468,2.33-27.75,10.307
						c-1.739,1.934-2.096,5.206-1.916,8.064c-0.276-4.69,10.267,4.456,10.997,4.874c4.521,2.514,9.412,3.417,14.205,4.97
						c2.345,0.798,4.63,1.575,6.894,2.346c2.298,0.768,4.557,1.617,6.906,2.226c2.34,0.631,4.714,1.175,7.142,1.552
						c2.43,0.369,4.968,0.416,7.551,0.292c1.359-0.089,2.707-0.131,4.075-0.294l4.109-0.536c2.739-0.384,5.472-0.754,8.222-1.447
						l4.113-0.969c1.366-0.347,2.749-0.631,4.086-1.095c2.668-0.866,5.43-1.723,8.001-2.686c2.508-0.986,5.069-1.987,7.516-3.016
						l7.088-3.139c4.552-2.086,9.11-4.175,13.679-6.268c1.988-0.92,4.027-1.923,6.033-2.892c1.999-0.938,4.048-2.032,6.089-3.122
						c7.182-3.736,13.86-8.229,20.549-12.476c6.266-4.537,11.111-9.456,14.078-14.421c0.751-1.243,1.418-2.488,1.96-3.747
						c0.563-1.258,1.028-2.525,1.391-3.824c0.755-2.587,1.141-5.315,1.02-8.355c-0.083-2.169-0.51-4.484-1.193-6.596
						c-0.677-2.128-1.613-4.01-2.633-5.744c-0.639-0.924-1.238-1.832-1.875-2.707c-0.684-0.851-1.368-1.697-2.168-2.489
						c-0.785-0.802-1.618-1.584-2.561-2.342c-0.452-0.385-0.963-0.753-1.466-1.127l-0.788-0.554
						c-0.332-0.151-0.697-0.285-1.044-0.429c-2.836-1.137-5.683-2.279-8.536-3.422l-4.329-1.719l-2.178-0.858
						C203.887,231.322,202.999,231.166,202.127,230.995z"/>
				</g>
			</g>
		</g>
	</g>
	<g>
		<g>
			<g>
				<path fill="#FFFFFF" d="M212.34,335.686l-0.424,0.058C212.109,335.738,212.241,335.79,212.34,335.686z"/>
				<path fill="#FFFFFF" d="M271.196,319.225l0.004,0.405C271.254,319.479,271.235,319.343,271.196,319.225z"/>
				<path fill="#FFFFFF" d="M278.937,282.631l0.521-0.063C279.207,282.561,279.052,282.586,278.937,282.631z"/>
				<g>
					<path fill="#FFFFFF" d="M249.62,287.237c-1.339,0.403-2.587,0.796-3.8,1.19l-1.861,0.616l-2.151,0.758
						c-1.438,0.515-2.87,1.048-4.16,1.599c-1.307,0.545-2.686,1.127-3.911,1.689c-5.063,2.32-9.377,4.653-13.442,6.885
						c-2.108,1.199-4.065,2.2-6.096,3.26l-2.989,1.35c-0.448,0.241-1.176,0.43-1.8,0.636l-1.936,0.598
						c-1.293,0.393-2.593,0.773-3.899,1.132l-1.964,0.522l-2.04,0.454c-2.736,0.577-5.462,1.029-8.272,1.32
						c-3.029,0.295-6.051,0.591-9.07,0.885c-3.077,0.356-6.181,0.753-9.26,1.16c-6.047,0.89-11.756,2.021-17.37,3.324
						c-5.614,1.295-11.098,1.928-16.453,1.925c-1.328-0.034-2.671-0.027-3.988-0.12c-1.305-0.131-2.611-0.261-3.92-0.392
						c-1.321-0.149-2.755-0.435-4.13-0.65c-1.392-0.242-2.779-0.451-4.184-0.726c-10.792-2.103-22.466-1.905-33.602-5.577
						c-1.491-0.491-2.952-1.05-4.435-1.598c-1.495-0.538-2.989-1.086-4.499-1.598c-1.456-0.573-9.655,0.283-11.278,1.028
						c-0.74,0.338,3.399,3.421,4.517,4.237c1.871,1.319,4.191,2.977,6.412,4.472c2.225,1.474,4.343,2.813,5.821,3.575
						c5.98,3.01,8.737,4.45,15.171,6.427c6.622,2.086,13.332,3.887,20.107,5.767c1.714,0.428,3.429,0.871,5.147,1.336l2.59,0.706
						l2.736,0.627l2.759,0.664l2.761,0.564c1.848,0.384,3.724,0.816,5.571,1.144c12.188,2.461,24.149-1.392,34.809-1.327
						c11.405-0.016,23.405,1.988,36.356,0.524c8.127-0.933,15.74-2.603,22.551-4.412c6.833-1.824,12.944-3.763,18.319-5.644
						l4.551-1.618l4.402-1.613c2.817-1.036,5.44-1.961,7.909-2.704c2.455-0.734,4.747-1.271,6.728-1.526
						c1.977-0.259,3.601-0.214,4.697,0.01c1.283,0.298,1.801,0.644,2.452,1.234c0.312,0.315,0.668,0.804,1.049,1.346
						c0.116,0.298,0.202,0.562,0.256,0.834c0.041,0.353,0.026,0.69-0.025,1.009c-0.035,0.159-0.054,0.314-0.103,0.464
						c-0.036,0.077-0.013,0.137-0.077,0.265c-0.041,0.111-0.042,0.211-0.139,0.432c-0.497,1.524-1.872,4.056-3.895,6.626
						c-2.012,2.595-4.607,5.289-7.488,7.809c-1.439,1.258-2.957,2.495-4.509,3.634l-2.279,1.558l-1.137,0.782l-1.23,0.713
						c-5.892,3.502-12.964,5.552-20.62,7.671c-1.976,0.538-3.88,1.071-5.896,1.66l-3.026,0.907l-0.754,0.235
						c-0.26,0.083-0.47,0.139-0.829,0.28l-1.952,0.749c-1.3,0.509-2.596,1.039-3.884,1.589l-0.965,0.417l-0.883,0.46l-1.758,0.94
						c-1.169,0.636-2.329,1.292-3.479,1.968c-1.076,0.686-2.086,1.396-3.116,2.122c-0.542,0.384-1.095,0.776-1.658,1.176
						c-0.282,0.199-0.565,0.4-0.852,0.603c-0.261,0.199-0.523,0.4-0.789,0.604c-1.051,0.81-2.127,1.648-3.205,2.517
						c-1.123,0.889-2.033,1.712-3.02,2.611c-0.484,0.444-0.962,0.898-1.434,1.36c-0.479,0.47-0.935,0.933-1.339,1.369
						c-1.671,1.791-3.224,3.795-4.339,5.747c-0.577,1.002-1.1,2.104-1.527,3.202c-0.417,1.057-0.764,2.192-1.029,3.414
						c-0.508,2.375,0.494,5.532,1.793,8.084c-1.051-2.104,1.509-2.084,4.662-1.647c3.117,0.376,6.765,1.03,7.211,1.038
						c2.614-0.043,5.078-0.559,7.534-1.154c2.394-0.573,4.803-1.342,7.162-1.772c2.292-0.437,4.575-0.807,6.738-0.942
						c1.073-0.089,2.141-0.177,3.208-0.266c1.015-0.013,2.029-0.026,3.047-0.039l1.468-0.044c0.483-0.021,0.962-0.058,1.425-0.014
						c0.931,0.044,1.832,0.062,2.708,0.037c0.438-0.012,0.87-0.034,1.296-0.068c0.466-0.041,1.122-0.129,1.673-0.211
						c1.152-0.173,2.304-0.397,3.457-0.686c1.217-0.308,2.476-0.65,3.706-0.989c1.232-0.339,2.465-0.69,3.74-1.097l3.779-1.21
						l3.848-1.396l1.92-0.725l1.948-0.82c1.299-0.558,2.59-1.098,3.888-1.695c2.61-1.305,5.207-2.506,7.791-4.082
						c1.289-0.771,2.587-1.472,3.855-2.322l3.789-2.587c2.512-1.737,4.735-3.541,7.023-5.465c4.515-3.854,8.86-8.109,12.99-13.259
						c3.475-4.418,6.844-9.452,9.309-16.047c1.188-3.176,2.237-7.273,2.553-11.347c0.334-4.068,0.029-8.183-0.946-12.135
						s-2.594-7.737-4.739-11.2c-1.093-1.694-2.312-3.438-3.433-4.734c-0.573-0.697-1.146-1.387-1.812-2.067
						c-0.655-0.679-1.271-1.36-2-2.006c-2.778-2.618-6.076-4.96-9.606-6.733c-3.528-1.785-7.24-2.995-10.793-3.718
						c-4.254-0.862-8.335-1.122-12.097-1.046c-3.764,0.083-7.264,0.467-10.556,0.988C260.533,284.102,254.73,285.709,249.62,287.237
						z"/>
				</g>
			</g>
		</g>
	</g>
	<g>
		<g>
			<g>
				<path fill="#FFFFFF" d="M430.08,361.183l-0.589,0.399C429.768,361.42,429.979,361.36,430.08,361.183z"/>
				<path fill="#FFFFFF" d="M490.548,277.163l0.354,0.297C490.803,277.223,490.674,277.162,490.548,277.163z"/>
				<path fill="#FFFFFF" d="M455.986,257.924c0.015-0.004-0.124-0.341-0.123-0.341C455.893,257.751,455.944,257.85,455.986,257.924z
					"/>
				<g>
					<path fill="#FFFFFF" d="M450.162,283.872c-2.75,6.154-6.403,12.46-10.327,18.856c-0.483,0.803-1.02,1.596-1.52,2.4
						c-0.509,0.801-1.012,1.635-1.513,2.336c-1.008,1.464-1.969,2.97-2.965,4.464c-1.073,1.438-2.13,2.899-3.174,4.388
						c-1.124,1.443-2.246,2.885-3.367,4.324c-4.737,5.903-10.054,11.658-16.139,16.811c-0.763,0.64-1.508,1.31-2.297,1.923
						l-2.401,1.813c-0.812,0.601-1.603,1.206-2.445,1.796l-2.654,1.718c-1.779,1.136-3.579,2.25-5.401,3.336l-2.752,1.605
						c-0.939,0.495-1.894,0.965-2.849,1.435c-16.15,8.104-33.014,14.18-50.071,20.371c-2.15,0.772-4.303,1.521-6.457,2.245
						c-2.167,0.681-4.355,1.264-6.534,1.869c-2.183,0.593-4.364,1.179-6.554,1.727l-6.623,1.378c-2.222,0.438-4.4,0.897-6.664,1.287
						c-2.276,0.374-4.555,0.748-6.837,1.123c-4.566,0.731-9.18,1.49-13.708,2.006c-2.197,0.277-4.383,0.605-6.564,0.971
						l-3.268,0.572c-0.542,0.087-1.096,0.229-1.626,0.275l-1.595,0.157c-2.127,0.217-4.255,0.459-6.386,0.71
						c-2.137,0.25-4.229,0.524-6.528,0.74c-9.007,0.904-17.996,1.716-27.089,1.448c-4.852-0.146-9.678-0.529-14.525-0.759
						c-0.596-0.028-1.785,0.115-3.269,0.362c-1.507,0.255-3.345,0.624-5.158,1.027c-3.634,0.809-7.224,1.769-8.371,2.326
						c-1.032,0.504,6.259,2.525,8.243,3.056c6.574,1.712,16.415,4.052,21.522,4.677c10.292,1.302,15.099,1.842,25.621,1.977
						c1.358,0.017,2.715,0.032,4.069,0.048l2.031,0.021l2.09-0.012c2.792-0.018,5.577-0.036,8.356-0.054l2.09-0.012l1.045-0.006
						l1.018-0.088l4.066-0.358c2.716-0.223,5.428-0.445,8.138-0.667l4.074-0.306l4.012-0.371c2.677-0.236,5.357-0.451,8.047-0.638
						l4.039-0.26l4.109-0.303c2.755-0.196,5.525-0.362,8.318-0.493c2.267-0.066,4.496-0.408,6.75-0.701
						c2.249-0.317,4.5-0.691,6.751-1.106c2.262-0.375,4.472-0.997,6.707-1.542c2.229-0.568,4.457-1.163,6.684-1.77
						c2.239-0.564,4.414-1.357,6.622-2.031c2.203-0.694,4.404-1.388,6.602-2.08l1.651-0.507l1.632-0.563l3.267-1.099
						c2.18-0.717,4.365-1.403,6.56-2.044l1.783-0.52l1.761-0.583l3.53-1.157l7.087-2.294c4.688-1.639,9.343-3.405,14.022-5.16
						c4.599-1.958,9.155-3.924,13.734-6.105c2.327-1.226,4.682-2.407,6.956-3.76l3.385-2.085c1.123-0.706,2.252-1.399,3.326-2.194
						c9.298-6.457,18.348-13.535,26.493-21.843c8.26-8.521,14.94-17.217,20.62-27.471c2.759-5.043,5.183-10.422,7.251-16.049
						c2.054-5.645,3.577-11.682,4.544-17.925c0.966-6.26,1.048-12.853,0.409-19.4l-0.686-4.914
						c-0.283-1.629-0.713-3.238-1.081-4.853c-0.195-0.805-0.381-1.614-0.592-2.414l-0.781-2.351l-0.797-2.346l-0.404-1.17
						c-0.135-0.397-0.271-0.788-0.412-1.095c-5-12.474-11.582-23.938-18.947-34.521c-4.707-6.636-9.787-12.926-15.205-18.77
						c-5.427-5.83-11.084-11.359-16.933-16.566c-5.858-5.192-11.861-10.135-17.949-14.89c-3.055-2.354-6.113-4.697-9.196-6.975
						c-3.083-2.294-6.337-4.498-9.487-6.766c-1.428-1.031-2.854-2.06-4.277-3.086c-1.418-1.036-2.901-1.968-4.339-2.968
						c-2.895-1.971-5.765-3.97-8.625-5.985c-2.894-1.958-5.854-3.8-8.775-5.719l-4.399-2.854c-1.459-0.968-2.995-1.791-4.493-2.69
						c-3.016-1.762-6.045-3.515-9.096-5.244c-3.074-1.678-6.236-3.188-9.392-4.737c-1.588-0.754-3.177-1.509-4.768-2.265
						c-1.596-0.748-3.248-1.36-4.883-2.027c-3.281-1.301-6.597-2.546-9.951-3.72c-7.19-2.214-15.572-5.065-24.048-6.389
						c-2.107-0.364-4.209-0.67-6.281-0.895c-1.285,0.024-3.39-0.191-5.576-0.29c-4.349-0.193-9.043,0.087-13.538,1.585
						c-2.075,0.672-3.763,2.08-4.49,3.503c-0.771,1.438-0.853,2.974-0.688,4.394c-0.159-1.161,1.121-1.521,3.042-1.3
						c0.874,0.2,1.881,0.551,2.913,1c0.979,0.515,1.988,1.132,2.947,1.804c3.783,2.786,6.787,6.551,7.302,6.936
						c0.694,0.592,1.471,1.165,2.276,1.728c0.759,0.549,1.514,1.076,2.286,1.592c1.541,1.031,3.119,2.007,4.71,2.959
						c1.589,0.934,3.188,1.873,4.783,2.809c1.593,0.921,3.125,1.987,4.644,3.006c2.927,2.012,5.723,4.043,8.456,6.065
						c2.684,2.147,5.313,4.266,7.972,6.308c1.33,1.003,2.666,2.009,4.012,3.024c1.325,1.044,2.67,2.064,4.044,3.054
						c1.375,0.99,2.779,1.949,4.227,2.874c1.443,0.933,2.955,1.778,4.446,2.734c3.16,1.933,6.329,3.817,9.509,5.66
						c0.803,0.447,1.582,0.936,2.352,1.438l2.326,1.476l4.664,2.912c1.545,0.984,3.149,1.867,4.653,2.911l4.558,3.048
						c3.027,2.044,6.156,3.933,9.074,6.13l8.929,6.336l4.456,3.343l4.397,3.385c5.822,4.544,11.481,9.223,16.902,14.1
						c4.586,4.161,9.015,8.418,13.237,12.795c4.158,4.411,8.23,8.88,11.84,13.572c7.416,9.284,13.322,19.285,17.361,29.61
						c1.766,4.848,2.229,9.922,1.601,15.345C454.805,272.181,452.816,277.986,450.162,283.872z"/>
				</g>
			</g>
		</g>
	</g>
	<g>
		<g>
			<g>
				<path fill="#FFFFFF" d="M291.978,145.125l-0.022-0.038C291.941,145.101,291.869,145.103,291.978,145.125z"/>
				<path fill="#FFFFFF" d="M287.307,148.255l-0.094-0.384C287.224,148.007,287.263,148.138,287.307,148.255z"/>
				<path fill="#FFFFFF" d="M292.135,183.558l-0.174,0.099C292.053,183.646,292.104,183.609,292.135,183.558z"/>
				<g>
					<path fill="#FFFFFF" d="M307.586,179.676c4.331-1.957,8.258-4.688,11.245-8.007c3.003-3.308,5.078-7.183,5.973-11.274
						c0.971-4.199,0.644-8.586-0.389-12.548c-0.521-1.991-1.32-3.877-1.989-5.708c-0.412-0.906-0.808-1.801-1.178-2.689
						c-0.38-0.886-0.82-1.747-1.185-2.625c-1.625-3.691-3.824-7.146-6.434-10.277l-2.047-2.268c-0.348-0.353-0.703-0.692-1.062-1.03
						l-0.884-0.781c-1.179-0.98-2.406-1.892-3.687-2.632c-5.136-3.041-8.979-6.46-12.361-9.998
						c-0.874-0.908-1.847-1.644-2.945-2.348c-1.146-0.729-2.348-1.386-3.524-2.058l-1.749-1.028
						c-0.599-0.341-1.182-0.697-1.742-1.08c-1.121-0.767-2.149-1.642-3.028-2.731c-0.233-0.292-0.459-0.595-0.68-0.906l-0.713-0.904
						c-0.473-0.61-0.945-1.231-1.445-1.824c-0.509-0.599-4.747-0.849-5.831-0.363c-0.49,0.219-0.014,3.38,0.101,4.207
						c0.437,2.773,1.164,6.436,1.743,7.928c1.159,3.106,1.692,4.426,3.493,6.653c0.909,1.173,1.813,2.339,2.713,3.5
						c0.897,1.174,1.822,2.452,2.679,3.729c1.845,2.66,3.542,5.376,4.629,8.499c0.879,2.519,2.384,4.184,3.874,5.703
						c0.706,0.756,1.471,1.481,2.067,2.237c0.375,0.474,0.537,0.887,0.573,1.426c0.047,1.146-0.417,2.234-0.935,2.998
						c-0.521,0.789-1.032,1.243-0.979,1.76c0.027,0.583-0.769,0.963-1.515,0.999c-0.753,0.073-1.338-0.107-1.51,0.155
						c-0.094,0.133-0.185,0.292-0.295,0.47l-0.086,0.135c-0.029,0.046-0.047,0.087-0.162,0.162c-0.345,0.199-0.84,0.454-1.285,0.665
						c-1.822,0.893-3.886,1.664-6.022,2.123c-1.247,0.261-2.514,0.451-3.735,0.552c-0.609,0.052-1.212,0.081-1.764,0.08
						c-0.619,0.007-0.913-0.026-1.739-0.076c-1.806-0.13-3.563-0.125-5.377-0.102c-1.882-0.036-3.761-0.008-5.642,0.039
						c-1.883,0.045-3.829-0.007-5.741-0.018c-0.961-0.015-1.92-0.027-2.881-0.067c-0.964-0.061-1.927-0.134-2.889-0.222
						c-1.739-0.167-3.455-0.53-5.142-1.017c-1.679-0.52-3.338-1.125-4.993-1.681c-0.825-0.281-1.659-0.537-2.479-0.79
						c-0.811-0.268-1.624-0.506-2.443-0.701c-1.63-0.396-3.322-0.581-5.016-0.513c-1.75,0.033-3.78-0.085-5.941,0.644
						c-2.052,0.675-4.125,2.132-6.532,5.432c-1.158,1.602-2.268,4.671-3.044,7.427c0.644-2.26,1.278-0.809,1.873,1.299
						c0.585,2.105,1.17,4.874,1.282,5.135c1.31,3.212,3.257,4.713,5.007,6.956c3.427,4.4,6.467,9.557,10.809,11.25
						c9.009,3.242,18.248,3.297,27.641,3.466c2.025,0.007,4.05-0.021,6.073-0.063c0.99-0.003,2.077-0.092,3.129-0.154l3.173-0.204
						c1.888-0.088,4.821-0.355,7.085-0.7c2.358-0.334,4.619-0.72,6.89-1.135c2.713-0.497,5.496-0.966,8.375-1.604
						c1.437-0.313,2.898-0.68,4.383-1.119c0.842-0.249,2.015-0.663,3.058-1.061C305.506,180.604,306.537,180.127,307.586,179.676z"
						/>
				</g>
			</g>
		</g>
	</g>
	
		<path fill-rule="evenodd" clip-rule="evenodd" fill="none" stroke="#000000" stroke-width="5" stroke-linecap="round" stroke-linejoin="round" stroke-miterlimit="10" d="
		M144.429,211.234"/>
</g>
</svg>
