<?xml version="1.0" encoding="utf-8"?>
<!-- Generator: Adobe Illustrator 16.0.0, SVG Export Plug-In . SVG Version: 6.00 Build 0)  -->
<!DOCTYPE svg PUBLIC "-//W3C//DTD SVG 1.1//EN" "http://www.w3.org/Graphics/SVG/1.1/DTD/svg11.dtd">
<svg version="1.1" id="Layer_1" xmlns="http://www.w3.org/2000/svg" xmlns:xlink="http://www.w3.org/1999/xlink" x="0px" y="0px"
	 width="500px" height="500px" viewBox="0 0 500 500" enable-background="new 0 0 500 500" xml:space="preserve">
<g>
	<g>
		<g>
			<g>
				<path fill="#231F20" d="M167.435,171.721l-0.215-0.096C167.313,171.676,167.364,171.729,167.435,171.721z"/>
				<path fill="#231F20" d="M194.584,194.081l-0.165,0.057C194.506,194.151,194.554,194.121,194.584,194.081z"/>
				<path fill="#231F20" d="M210.109,189.652l0.168,0.136C210.207,189.712,210.155,189.673,210.109,189.652z"/>
				<g>
					<path fill="#231F20" d="M199.814,178.372c-1.188-1.276-2.562-2.547-3.873-3.788c-0.675-0.619-1.314-1.243-2.03-1.841
						l-2.179-1.769l-2.203-1.726c-0.741-0.566-1.579-1.072-2.368-1.597l-2.412-1.527l-1.212-0.739l-1.267-0.664
						c-6.977-3.638-14.443-5.705-21.955-7.545c-3.994-0.979-8.08-1.622-12.213-1.749c-4.127-0.125-8.307,0.261-12.324,1.345
						c-8.04,2.195-15.544,5.791-21.813,11.125c-3.041,2.544-5.542,5.581-7.81,8.676c-2.249,3.117-4.281,6.298-6.549,9.315
						c-1.214,1.611-2.448,3.183-3.634,4.802c-0.587,0.801-2.326,5.471-2.438,6.494c-0.059,0.464,2.193-1.538,2.804-2.097
						c2.029-1.84,4.99-4.698,6.396-6.21c2.817-3.089,4.133-4.493,6.864-7.636c2.833-3.223,5.836-6.18,9.161-8.591
						c3.315-2.411,6.962-4.254,10.813-5.213c3.082-0.817,6.181-1.559,9.377-2.075c3.184-0.5,6.467-0.685,9.651-0.234
						c6.928,0.994,13.33,3.915,19.574,6.982c3.335,1.664,6.457,3.738,9.274,6.216l2.15,1.796c0.71,0.617,1.393,1.315,2.097,1.958
						l2.119,1.941l2.131,2.046c5.693,5.305,11.435,11.211,17.888,16.97c1.813,1.72,3.875,3.305,5.886,4.923
						c0.512,0.399,0.988,0.82,1.528,1.202l1.621,1.147c1.063,0.789,2.21,1.468,3.328,2.19c5.727,3.545,12.199,6.016,18.848,7.296
						c3.328,0.625,6.691,0.979,10.045,1.094c3.353,0.08,6.687-0.079,9.982-0.419c2.982-0.308,5.904-0.751,8.811-1.249
						c2.884-0.558,5.757-1.166,8.561-1.973c5.615-1.584,11.056-3.756,16.076-6.767c5.327-3.127,12.271-7.881,14.415-13.356
						c0.527-1.319,0.021-2.564-0.681-3.47c0.575,0.74-1.021,1.331-2.804,1.708c-1.796,0.365-3.759,0.512-4.005,0.557
						c-2.89,0.687-5.697,1.897-8.538,2.712c-5.524,1.557-10.678,1.961-15.996,3.603c-5.606,1.665-11.159,3.031-16.704,3.652
						c-5.537,0.669-11.057,0.58-16.391-0.471c-2.268-0.44-4.48-1.09-6.664-1.827c-2.152-0.826-4.305-1.679-6.338-2.821
						c-1.046-0.504-2.017-1.172-3.031-1.749c-0.974-0.67-1.958-1.268-2.914-2.02c-1.904-1.524-3.844-2.938-5.666-4.718
						C208.754,188.263,204.573,183.312,199.814,178.372z"/>
				</g>
			</g>
		</g>
	</g>
	<g>
		<g>
			<g>
				<path fill="#231F20" d="M106.138,259.371l-0.225,0.04C106.016,259.401,106.085,259.417,106.138,259.371z"/>
				<path fill="#231F20" d="M137.928,262.79l-0.112,0.126C137.89,262.887,137.918,262.839,137.928,262.79z"/>
				<path fill="#231F20" d="M150.089,252.489l0.215,0.072C150.208,252.514,150.142,252.495,150.089,252.489z"/>
				<g>
					<path fill="#231F20" d="M135.428,246.624c-1.76-0.425-3.518-0.862-5.303-1.183c-1.806-0.25-3.616-0.465-5.42-0.644
						c-1.825-0.063-3.649-0.067-5.458-0.046c-1.802,0.061-3.562,0.313-5.321,0.514c-7.236,1.053-13.924,3.374-20.696,5.108
						c-7.187,1.848-14.149,4.061-20.747,7.129c-3.274,1.596-6.552,3.016-9.863,4.358l-2.489,0.994l-2.468,1.059
						c-1.653,0.697-3.313,1.396-4.984,2.101c-1.614,0.676-3.192,1.426-4.753,2.207c-1.547,0.811-3.057,1.695-4.58,2.545
						c-3.032,1.733-6.12,3.33-9.321,4.725c-1.708,0.747-3.45,1.405-5.174,2.124c-0.851,0.354-4.516,3.262-5.111,4.031
						c-0.271,0.349,2.56-0.077,3.336-0.205c2.555-0.425,6.359-1.218,8.214-1.814c1.879-0.599,3.256-1.036,4.643-1.478
						c1.377-0.457,2.739-0.97,4.58-1.735c1.898-0.793,3.785-1.581,5.663-2.366c1.908-0.718,3.81-1.424,5.717-2.104
						c1.908-0.681,3.821-1.334,5.751-1.945c1.922-0.631,3.922-1.072,5.914-1.536c3.234-0.7,6.365-1.915,9.494-3.054
						c1.567-0.548,3.123-1.156,4.694-1.658c1.572-0.496,3.146-0.974,4.727-1.357c6.878-1.589,13.772-2.26,20.474-3.105
						c1.789-0.254,3.578-0.271,5.364-0.37c1.784-0.039,3.55,0.117,5.315,0.169c1.75,0.131,3.452,0.413,5.175,0.566
						c1.71,0.313,3.42,0.585,5.14,0.854c6.76,1.226,13.53,3.365,20.004,6.554c0.941,0.474,1.887,0.931,2.821,1.424l2.776,1.566
						c1.834,1.007,3.728,2.238,5.577,3.369c4.709,2.979,9.569,5.93,14.634,8.765c5.084,2.826,10.436,5.453,16.032,7.761
						c1.283,0.497,2.554,1.012,3.819,1.538c1.273,0.507,2.578,0.924,3.862,1.402c2.568,1.006,5.176,1.688,7.787,2.494
						c5.224,1.344,10.557,2.418,15.909,2.562c5.679,0.236,13.228,0.422,17.853-2.487c1.131-0.699,1.502-1.988,1.532-3.133
						c-0.058,1.874-5.924-2.18-6.336-2.395c-2.57-1.205-5.417-1.798-8.078-2.744c-2.591-0.857-4.955-2.004-7.356-2.928
						c-2.355-1.065-4.766-1.874-7.319-2.612c-2.724-0.651-5.328-1.492-7.951-2.229c-1.277-0.449-2.554-0.882-3.834-1.301
						c-0.646-0.192-1.274-0.438-1.898-0.698l-1.883-0.742c-5.02-2.019-10.013-4.453-15.015-7.28
						c-4.264-2.432-8.545-4.952-12.962-7.554l-3.336-1.939c-1.134-0.645-2.2-1.303-3.395-1.94l-3.505-1.931
						c-1.172-0.641-2.396-1.223-3.59-1.842C148.333,251.295,142.113,248.465,135.428,246.624z"/>
				</g>
			</g>
		</g>
	</g>
	<g>
		<g>
			<g>
				<path fill="#231F20" d="M237.827,256.792l-0.218-0.049C237.705,256.773,237.761,256.814,237.827,256.792z"/>
				<path fill="#231F20" d="M269.898,262.828l-0.077,0.152C269.887,262.932,269.901,262.878,269.898,262.828z"/>
				<path fill="#231F20" d="M277.218,249.069l0.176-0.017C277.31,249.045,277.257,249.053,277.218,249.069z"/>
				<g>
					<path fill="#231F20" d="M265.169,247.522c-2.728-0.343-5.44-0.83-8.188-1.098c-2.747-0.22-5.511-0.641-8.307-0.811
						c-5.753-0.436-11.662-0.752-17.381-2.333c-3.028-0.805-6.015-1.805-9.022-2.678c-2.999-0.907-5.967-1.846-9.029-2.601
						c-3.04-0.837-5.983-1.83-8.885-2.922c-2.841-1.198-5.729-2.386-8.516-3.749c-1.329-0.672-2.69-1.268-4.07-1.832
						c-1.381-0.562-2.696-1.234-4.057-1.84l-2.022-0.95c-0.674-0.319-1.292-0.727-1.931-1.102c-1.266-0.772-2.504-1.594-3.68-2.498
						c-1.188-1.06-2.298-2.189-3.447-3.262c-0.141-0.132-0.474-0.334-0.909-0.567c-0.515-0.283-0.67-0.277-1.279-0.685
						c-0.554-0.35-1.187-0.755-1.934-1.114c-0.202-0.094-0.324-0.156-0.564-0.25c-0.232-0.09-0.449-0.163-0.646-0.22
						c-0.141-0.048-0.511-0.127-0.761-0.151c-0.263-0.029-0.484-0.031-0.654-0.023c-0.312,0.028-0.019,0.111,0.546,0.344
						c0.14,0.06,0.294,0.132,0.454,0.217c0.13,0.081,0.199,0.159,0.308,0.248c0.191,0.171,0.446,0.38,0.557,0.56
						c0.608,0.758,0.933,1.519,1.108,1.845c0.297,0.556,0.463,1.067,0.871,1.616c0.373,0.556,0.772,1.133,1.173,1.693
						c0.801,1.12,1.611,2.17,2.207,2.829c1.226,1.306,2.215,2.157,3.2,3.041c1.009,0.847,2.008,1.753,3.564,2.693
						c1.588,1,3.157,2.034,4.758,2.989c1.626,0.903,3.247,1.811,4.86,2.744c1.618,0.914,3.25,1.731,4.858,2.659
						c1.617,0.894,3.2,1.913,4.819,2.837c2.608,1.523,5.44,2.764,8.335,3.766c2.896,0.996,5.812,2.012,8.604,3.138
						c3.027,1.238,5.996,2.616,9.076,3.805c1.532,0.608,3.072,1.199,4.627,1.752c1.558,0.548,3.168,0.99,4.777,1.411
						c3.435,0.941,6.864,1.881,10.293,2.821l2.588,0.707c0.873,0.207,1.757,0.385,2.638,0.568c1.765,0.361,3.538,0.692,5.321,0.964
						c7.043,0.967,14.218,1.203,21.465,1.109l3.178-0.055l3.191-0.175l1.598-0.083l1.601-0.152l3.206-0.301
						c5.387-0.644,10.854-1.956,16.033-3.965c1.313-0.457,2.579-1.045,3.85-1.618c0.632-0.291,1.279-0.562,1.896-0.871l1.833-0.952
						c1.241-0.621,2.407-1.298,3.573-1.975c0.578-0.339,1.188-0.665,1.74-1.014l2.226-1.349c1.649-0.989,3.404-1.946,4.592-3.161
						c1.277-1.142,2.097-2.636,2.773-4.272c0.465-1.411,0.733-2.906,0.684-4.397c-0.044-1.49-0.359-2.962-0.907-4.389
						c-1.08-2.856-3.275-5.516-5.752-7.797c-2.856-2.717-6.023-5.168-9.523-7.063c-1.219-0.602-2.517-1.315-3.904-1.923
						c-1.396-0.585-2.832-1.2-4.314-1.583c-0.736-0.206-1.473-0.389-2.201-0.535c-0.737-0.118-1.467-0.203-2.181-0.245
						c-1.423-0.106-2.804,0.045-4.056,0.415c-1.217,0.36-1.897,1.5-2.242,2.593c0.28-0.897,1.434,0.026,2.499,1.193
						c1.071,1.173,1.998,2.673,2.144,2.813c1.734,1.863,3.784,3.357,5.517,5.099c3.34,3.432,5.425,7.169,8.455,10.371
						c0.152,0.33,0.122,0.478,0.121,0.653c-0.016,0.158-0.08,0.292-0.183,0.38c-0.1,0.095-0.246,0.106-0.322,0.138l-0.051,0.017
						l-0.859,0.524c-0.711,0.44-1.409,0.809-2.112,1.22c-1.402,0.845-2.804,1.499-4.206,2.234c-1.435,0.6-2.813,1.324-4.305,1.812
						c-3.722,1.397-7.526,2.476-11.576,3.119c-4.023,0.667-8.14,1.087-12.326,1.034C275.582,248.922,270.38,248.269,265.169,247.522
						z"/>
				</g>
			</g>
		</g>
	</g>
	<g>
		<g>
			<g>
				<path fill="#231F20" d="M247.327,276.186l-0.282-0.068C247.169,276.156,247.245,276.203,247.327,276.186z"/>
				<path fill="#231F20" d="M286.924,283.728l-0.11,0.135C286.895,283.828,286.919,283.777,286.924,283.728z"/>
				<path fill="#231F20" d="M302.814,276.896l0.275,0.308C302.969,277.044,302.887,276.96,302.814,276.896z"/>
				<g>
					<path fill="#231F20" d="M281.992,267.74c-1.897-0.31-3.801-0.59-5.706-0.842c-1.869-0.234-3.666-0.406-5.507-0.567
						c-1.779-0.151-3.557-0.302-5.332-0.452c-1.754-0.129-3.52-0.212-5.239-0.414c-1.784-0.19-3.592-0.266-5.39-0.496
						c-1.806-0.242-3.611-0.484-5.419-0.727c-3.6-0.656-7.228-1.4-10.749-2.664c-0.934-0.326-1.872-0.63-2.797-0.981l-2.755-1.128
						l-5.508-2.246c-1.838-0.74-3.682-1.47-5.539-2.177c-1.902-0.766-3.846-1.524-5.779-2.19c-7.773-2.697-15.017-5.64-21.779-9.531
						c-6.429-3.729-13.125-7.203-16.67-13.699c-0.95-1.716-1.745-3.505-2.509-5.358c-0.409-0.845-3.342-5.048-4.122-5.813
						c-0.354-0.343,0.036,2.792,0.184,3.648c0.214,1.417,0.579,3.176,0.999,4.859c0.455,1.663,0.962,3.255,1.44,4.275
						c0.438,1.056,0.911,1.929,1.341,2.748c0.411,0.831,0.88,1.543,1.353,2.262c0.241,0.358,0.481,0.716,0.729,1.084
						c0.281,0.344,0.569,0.696,0.87,1.065c0.309,0.364,0.632,0.745,0.975,1.149c0.361,0.38,0.757,0.764,1.179,1.183
						c3.502,3.458,7.481,6.236,11.516,8.774c4.041,2.548,8.18,4.842,12.242,7.281c3.287,1.975,6.819,3.505,10.287,5.019
						c3.37,1.52,7.076,3.025,10.541,4.753c7.428,3.871,15.104,7.678,23.468,9.929c2.227,0.579,4.42,1.26,6.681,1.768
						c2.244,0.531,4.485,1.194,6.736,1.594c4.542,0.972,8.937,1.678,13.226,2.23l5.201,0.673l4.966,0.868
						c0.829,0.149,1.646,0.269,2.503,0.476c0.26,0.059,0.173,0.032,0.238,0.045l0.104,0.012l0.213,0.034
						c0.283,0.056,0.594,0.154,0.817,0.37c0.184,0.162,0.281,0.417,0.227,0.657c-0.096,0.426-0.444,0.744-0.77,0.993
						c-0.04,0.032-0.088,0.061-0.12,0.082l-0.565,0.432c-0.419,0.312-0.858,0.621-1.313,0.928c-0.91,0.613-1.876,1.211-2.896,1.812
						l-2.037,1.187l-1.95,1.09l-1.94,1.104c-0.65,0.365-1.345,0.694-2.014,1.046c-2.661,1.414-5.461,2.74-8.267,4.083l-8.644,3.991
						c-2.869,1.301-5.708,2.57-8.51,3.653c-10.076,3.938-20.511,4.255-31.669,5.709c-5.889,0.817-14.14,1.336-19.176,4.664
						c-1.212,0.805-1.514,2.123-1.443,3.267c-0.107-1.876,6.893,1.611,7.387,1.768c3.031,0.937,6.336,1.214,9.542,1.742
						c6.195,0.983,11.946,2.47,18.739,1.739c7.062-0.751,14.28-2.348,21.066-4.963c1.645-0.657,3.313-1.313,4.931-1.994l4.738-2.096
						c3.085-1.407,6.174-2.817,9.271-4.229c5.338-2.476,10.765-5.265,16.018-8.508c1.155-0.721,2.53-1.572,3.851-2.466
						c0.668-0.453,1.34-0.918,2.015-1.415l1.015-0.764l0.508-0.397l0.622-0.505c1.071-0.901,2.099-1.82,3.02-2.826
						c0.937-0.99,1.775-2.044,2.455-3.146c1.406-2.193,2.196-4.563,2.275-7.012c0.034-1.149-0.093-2.324-0.405-3.469
						c-0.306-1.152-0.835-2.229-1.439-3.285l-1.104-1.407c-0.188-0.23-0.356-0.475-0.561-0.693l-0.669-0.615
						c-0.839-0.867-1.934-1.535-3.004-2.224l-1.757-0.895c-0.598-0.285-1.259-0.489-1.889-0.739c-0.628-0.258-1.3-0.436-1.962-0.637
						l-0.997-0.297l-0.63-0.174c-1.433-0.391-2.971-0.708-4.463-1.058l-2.26-0.506C283.468,268.006,282.713,267.844,281.992,267.74z
						"/>
				</g>
			</g>
		</g>
	</g>
	<g>
		<g>
			<g>
				<path fill="#231F20" d="M290.768,328.288l-0.26,0.07C290.627,328.335,290.71,328.341,290.768,328.288z"/>
				<path fill="#231F20" d="M327.374,316.063l-0.011,0.174C327.408,316.163,327.399,316.107,327.374,316.063z"/>
				<path fill="#231F20" d="M330.033,300.067l0.217-0.097C330.142,300.003,330.078,300.035,330.033,300.067z"/>
				<g>
					<path fill="#231F20" d="M314.997,305.103l-4.771,1.852c-1.561,0.652-3.137,1.235-4.697,1.865
						c-3.126,1.241-6.185,2.697-9.289,3.962c-3.182,1.371-6.326,2.912-9.6,4.083c-1.628,0.621-3.27,1.223-4.932,1.782
						c-1.662,0.563-3.376,0.922-5.096,1.302c-1.829,0.37-3.653,0.739-5.476,1.107l-5.521,0.855
						c-1.832,0.316-3.687,0.557-5.542,0.821c-1.85,0.259-3.714,0.592-5.555,0.876c-3.744,0.642-7.293,0.886-10.789,0.717
						l-2.596-0.207l-2.668-0.455c-0.891-0.16-1.78-0.302-2.677-0.483c-0.901-0.214-1.804-0.429-2.711-0.646
						c-1.739-0.394-3.523-0.785-5.321-1.153l-5.452-1.041c-1.805-0.369-3.703-0.663-5.578-1.016
						c-1.875-0.392-3.726-0.694-5.567-1.127c-1.948-0.474-3.885-0.944-5.831-1.418c-0.979-0.226-5.875-0.049-6.882,0.215
						c-0.455,0.119,2.229,1.454,2.981,1.812c2.459,1.184,6.29,2.781,8.254,3.452c4.002,1.32,5.791,2.009,9.849,3.152
						c2.114,0.645,4.214,1.284,6.306,1.922c1.054,0.324,2.107,0.647,3.158,0.971l3.206,0.922c2.118,0.666,4.322,1.174,6.531,1.748
						c0.556,0.138,1.096,0.307,1.667,0.427l1.737,0.336c1.163,0.229,2.341,0.493,3.503,0.629c0.944,0.137,1.904,0.251,2.866,0.329
						c0.941,0.036,1.89,0.05,2.842,0.047c1.911-0.002,3.735-0.164,5.599-0.319c3.679-0.395,7.354-0.761,11.015-1.081
						c1.979-0.169,3.975-0.212,5.956-0.438l5.964-0.635l2.988-0.354c0.992-0.143,1.971-0.346,2.956-0.53
						c1.968-0.382,3.931-0.806,5.883-1.291c2.091-0.471,4.124-1.116,6.198-1.628c2.064-0.546,4.151-1.028,6.214-1.585
						c2.044-0.604,4.09-1.212,6.128-1.851c2.043-0.63,4.072-1.301,6.044-2.11c7.81-3.105,15.031-6.611,22.382-8.824l1.604-0.487
						l0.401-0.121l0.201-0.061l0.07-0.017l0.269-0.061l1.063-0.228c0.437-0.049,0.739-0.066,1.035-0.028
						c0.237,0.037,0.479,0.067,0.687,0.218c0.126,0.09,0.221,0.255,0.194,0.424c-0.021,0.167-0.101,0.314-0.185,0.448
						c-0.178,0.263-0.38,0.503-0.616,0.732c-0.118,0.114-0.246,0.225-0.381,0.333l-0.204,0.154l-0.084,0.06l-0.536,0.346
						c-1.885,1.166-3.905,2.238-6.009,3.237c-4.55,2.166-9.703,3.788-14.566,5.224c-2.42,0.8-4.966,1.399-7.454,2.142
						c-1.239,0.377-2.482,0.754-3.729,1.133c-1.23,0.364-2.463,0.755-3.757,1.167c-2.693,0.886-6.058,1.837-9.322,3.325
						c-3.24,1.475-6.33,3.449-8.084,5.991c-0.858,1.212-0.604,2.528-0.086,3.549c-0.43-0.833,1.326-1.11,3.159-1.114
						c1.874,0.075,3.789,0.395,4.044,0.432c2.968,0.095,5.991-0.274,9.002-0.327c2.934-0.043,5.762,0.104,8.719-0.016
						c2.923-0.121,5.828-0.475,8.89-1.22c3.191-0.85,6.345-1.938,9.491-2.985c3.033-1.113,6.104-2.347,9.187-3.769
						c1.54-0.712,3.081-1.477,4.617-2.304c0.768-0.427,1.536-0.829,2.3-1.293l1.146-0.681l0.57-0.357l0.862-0.567
						c2.658-1.713,5-3.587,7.17-5.555c0.543-0.489,0.986-1.005,1.484-1.506c0.464-0.507,1.016-1.004,1.409-1.519l1.239-1.536
						c0.196-0.256,0.437-0.512,0.598-0.768l0.47-0.768l0.585-0.955c0.186-0.317,0.423-0.642,0.518-0.945l0.755-1.85
						c0.446-1.218,0.61-2.373,0.658-3.562c0.021-1.183-0.109-2.417-0.575-3.733c-0.438-1.322-1.249-2.569-2.091-3.51
						c-1.553-1.612-3.177-2.604-5.239-3.286c-1.038-0.326-2.155-0.588-3.448-0.705c-0.607-0.109-1.414,0.021-2.154,0.073
						l-2.254,0.193l-4.501,0.383c-1.482,0.243-2.941,0.626-4.413,0.93l-4.373,0.959l-2.644,0.781
						C327.72,300.451,321.195,302.774,314.997,305.103z"/>
				</g>
			</g>
		</g>
	</g>
	<g>
		<g>
			<g>
				<path fill="#231F20" d="M435.228,322.594l-0.391,0.193C435.016,322.708,435.143,322.676,435.228,322.594z"/>
				<path fill="#231F20" d="M479.957,277.579l0.104,0.178C480.054,277.618,480.009,277.581,479.957,277.579z"/>
				<path fill="#231F20" d="M467.377,264.192l-0.058-0.243C467.332,264.067,467.353,264.14,467.377,264.192z"/>
				<g>
					<path fill="#231F20" d="M461.661,281.953c-1.29,2.005-2.764,3.976-4.278,5.944c-1.556,1.928-3.213,3.96-4.852,5.692
						c-3.284,3.597-6.968,6.942-10.924,10.065c-4.08,3.216-8.458,6.187-13.164,8.781c-2.429,1.277-4.878,2.541-7.358,3.769
						c-2.519,1.141-5.075,2.227-7.669,3.262c-11.068,4.191-22.397,7.317-33.87,10.313c-2.896,0.714-5.787,1.365-8.674,1.996
						c-2.904,0.536-5.806,1.035-8.71,1.517c-5.888,0.857-11.803,1.685-17.741,2.271c-1.435,0.155-2.865,0.331-4.295,0.521
						c-1.436,0.13-2.879,0.176-4.315,0.284l-8.627,0.637c-5.77,0.43-11.472,0.838-17.373,0.781c-3.132-0.027-6.247-0.148-9.38-0.209
						c-1.542-0.03-9.226,1.1-10.702,1.554c-0.672,0.206,3.914,0.991,5.183,1.195c4.173,0.672,10.532,1.524,13.794,1.749
						c6.592,0.461,9.688,0.635,16.49,0.6c3.515-0.021,7.008-0.044,10.486-0.065c1.739-0.027,3.481,0.021,5.214-0.06
						c1.73-0.14,3.458-0.278,5.185-0.417l5.188-0.377l5.154-0.423c3.456-0.243,6.915-0.486,10.389-0.73
						c11.369-0.718,22.91-3.973,34.076-6.725c6.058-1.501,12.106-3.104,18.078-5.035c2.971-1.004,5.981-1.929,8.893-3.134
						c2.934-1.171,5.837-2.285,8.789-3.757c6.219-3.047,12.35-6.43,18.062-10.642c5.721-4.175,11.008-9.286,15.27-14.839
						c4.281-5.526,8.078-11.847,10.294-19.252c1.079-3.704,1.628-7.738,1.424-11.814c-0.218-4.063-1.152-8.186-2.868-11.835
						c-0.223-0.58-0.468-1.016-0.707-1.483l-0.721-1.395c-0.489-0.924-0.939-1.878-1.496-2.748l-1.604-2.664
						c-0.528-0.894-1.144-1.708-1.712-2.566c-2.292-3.419-4.87-6.547-7.503-9.598c-6.763-7.594-14.432-14.032-22.408-19.781
						c-8.001-5.783-16.22-10.846-24.769-15.709c-1.903-1.138-3.883-2.112-5.801-3.195c-1.941-1.037-3.824-2.187-5.795-3.143
						c-3.906-1.989-7.771-4.061-11.771-5.836c-7.913-3.766-16.144-6.866-24.699-9.313c-2.278-0.594-4.758-1.24-7.314-1.906
						c-2.558-0.656-5.241-1.127-7.872-1.594c-0.66-0.105-1.317-0.21-1.97-0.314l-0.977-0.141l-0.483-0.066l-0.397-0.042
						c-1.042-0.104-2.445-0.293-3.704-0.383c-2.604-0.198-5.236-0.126-7.646,0.476c-1.125,0.252-1.984,0.85-2.394,1.409
						c-0.433,0.576-0.529,1.19-0.477,1.76c-0.051-0.466,0.673-0.607,1.767-0.53c0.527,0.07,1.123,0.231,1.758,0.415
						c0.628,0.197,1.263,0.49,1.902,0.769c2.523,1.196,4.804,2.92,5.145,3.088c2.014,1.109,4.198,2.054,6.358,2.974
						c2.17,0.941,4.401,1.741,6.497,2.791c2.04,0.978,4.007,1.965,5.945,2.941c1.942,0.962,3.807,2.068,5.716,3.061
						c3.832,1.957,7.619,4.094,11.901,5.917c8.885,4.04,17.577,8.277,26.048,12.923c8.334,4.773,16.761,9.863,24.529,15.571
						c3.315,2.418,6.556,4.909,9.637,7.533c3.115,2.596,6.055,5.336,8.823,8.185c2.81,2.826,5.287,5.862,7.59,8.965l1.646,2.367
						c0.526,0.798,0.989,1.62,1.489,2.428c0.24,0.407,0.505,0.806,0.727,1.219l0.638,1.249l0.642,1.246l0.322,0.623l0.207,0.539
						l0.505,1.271c0.187,0.419,0.229,0.867,0.36,1.297c0.288,0.855,0.332,1.756,0.471,2.639c0.082,1.8,0.083,3.63-0.393,5.54
						l-0.136,0.711l-0.215,0.72c-0.148,0.48-0.263,0.961-0.426,1.444c-0.39,0.967-0.689,1.94-1.184,2.911
						C464.031,278.094,462.877,280.031,461.661,281.953z"/>
				</g>
			</g>
		</g>
	</g>
	<g>
		<g>
			<g>
				<path fill="#231F20" d="M355.131,207.087l-0.011-0.026C355.116,207.074,355.092,207.084,355.131,207.087z"/>
				<path fill="#231F20" d="M348.513,211.983l-0.03-0.157C348.477,211.885,348.492,211.938,348.513,211.983z"/>
				<path fill="#231F20" d="M349.528,226.489l-0.108,0.053C349.476,226.531,349.508,226.513,349.528,226.489z"/>
				<g>
					<path fill="#231F20" d="M357.7,224.02c1.848-0.887,3.698-2.085,5.421-3.772c1.707-1.667,3.32-3.931,4.184-6.811
						c0.881-2.913,0.608-6.029-0.286-8.55c-0.849-2.216-1.973-4.085-2.999-5.865c-1.091-1.896-2.333-3.532-3.659-4.98
						c-1.327-1.447-2.744-2.728-4.272-3.777c-3.067-2.125-5.642-4.313-8.026-6.683c-1.157-1.164-2.651-2.124-4.099-3.102
						c-1.439-0.982-2.963-1.891-4.172-3.188c-0.64-0.702-1.331-1.375-2.013-2.063c-0.348-0.337-2.771-0.931-3.348-0.833
						c-0.261,0.043,0.357,1.598,0.522,2.01c0.565,1.375,1.459,3.246,1.999,4.055c1.058,1.711,1.548,2.463,2.877,3.831
						c1.331,1.478,2.653,2.876,3.933,4.465c1.295,1.58,2.602,3.194,3.642,4.96c0.849,1.432,1.969,2.533,3.046,3.6
						c1.075,1.063,2.163,2.099,2.83,3.315c0.733,1.311,1.203,2.655,1.467,3.825c0.046,0.292,0.098,0.572,0.161,0.844
						c0.029,0.269,0.047,0.523,0.095,0.77c0.04,0.472,0.099,1.018,0.119,1.113c0.009,0.187-0.049,0.369-0.154,0.518
						c-0.126,0.147-0.266,0.206-0.511,0.411c-0.492,0.383-1.378,0.939-2.411,1.65c-2.083,1.42-5.02,2.873-8.152,3.63
						c-1.823,0.45-3.749,0.731-5.524,0.803l-0.808,0.024l-0.953,0.017l-1.957,0.065c-1.298,0.074-2.616,0.102-3.929,0.156
						c-1.313,0.062-2.627,0.108-3.944,0.108c-1.314,0-2.636,0.043-3.946-0.035c-4.782-0.168-9.213-1.992-13.812-2.015
						c-1.19-0.055-2.582-0.182-4.005,0.035c-1.376,0.168-2.731,0.614-4.11,1.847c-0.665,0.596-1.173,1.809-1.483,2.912
						c0.259-0.904,0.788-0.262,1.319,0.647c0.526,0.908,1.07,2.085,1.157,2.199c1.026,1.418,2.379,2.069,3.632,3.047
						c0.608,0.468,1.205,0.964,1.805,1.458c0.597,0.479,1.19,0.924,1.802,1.356c1.218,0.847,2.508,1.609,3.938,1.936
						c6.003,1.393,11.999,1.264,18.028,1.141c1.285-0.039,2.561-0.055,3.855-0.156l3.945-0.28c3.025-0.297,5.696-0.816,8.471-1.433
						C350.662,226.476,354.146,225.694,357.7,224.02z"/>
				</g>
			</g>
		</g>
	</g>
	
		<path fill-rule="evenodd" clip-rule="evenodd" fill="none" stroke="#000000" stroke-width="2" stroke-linecap="round" stroke-linejoin="round" stroke-miterlimit="10" d="
		M250,250"/>
</g>
</svg>
