<?xml version="1.0" encoding="utf-8"?>
<!-- Generator: Adobe Illustrator 19.1.0, SVG Export Plug-In . SVG Version: 6.00 Build 0)  -->
<svg version="1.1" id="Layer_1" xmlns="http://www.w3.org/2000/svg" xmlns:xlink="http://www.w3.org/1999/xlink" x="0px" y="0px"
	 viewBox="-251.1 342.1 109 109" style="enable-background:new -251.1 342.1 109 109;" xml:space="preserve">
<g id="Layer_1_1_">
</g>
<g id="Layer_2">
	<g>
		<path d="M-142.3,445.7c0-6.4-42-28.4-51.5-51.5c-1.8-4.2,1.5-14,0-18.3c-2.1-6-11.7-18.5-18-18c-10.4,0.7-30,19-29.4,29.4
			c0.3,5.7,9.4,15,14.6,17.4c4.1,1.9,16.8,0.9,18.2,0c1.4-0.9,1-15.4-0.5-16.3c-0.5-0.3-1.3-0.6-4.2,0c-1.1,0.2,2.1,9.8-0.3,11.4
			c-1,0.6-10.3-0.2-11.5-0.7c-2.9-1.2-8.4-9.5-8.4-12.6c-0.3-7.2,13.1-19.9,20.3-20.4c4.3-0.3,10.3,7.9,11.8,12
			c1.5,4.3-1.4,13.8,0,18.2c7.5,24,50.4,53.6,53.8,53.6C-145.8,449.8-142.3,447.4-142.3,445.7z"/>
		<path d="M-221.6,379c0,0,2.5-0.3,3.3-0.1c0.8,0.2,2.8,1.7,2.8,1.7s-0.3-2.5-0.1-3.3c0.2-0.8,1.7-2.8,1.7-2.8s-2.5,0.3-3.3,0.1
			c-0.8-0.2-2.8-1.7-2.8-1.7s0.3,2.5,0.1,3.3C-220.1,377-221.6,379-221.6,379z"/>
		<path d="M-224.4,395.2c0,0,2.3-2.8,3.3-3.4c1-0.6,4.6-1.1,4.6-1.1s-2.8-2.3-3.4-3.3s-1.1-4.6-1.1-4.6s-2.3,2.8-3.3,3.4
			c-1,0.6-4.6,1.1-4.6,1.1s2.8,2.3,3.4,3.3C-224.9,391.6-224.4,395.2-224.4,395.2z"/>
		<path d="M-208.9,383.9c0,0,1.4-0.9,1.9-0.9c0.5-0.1,2.1,0.3,2.1,0.3s-0.9-1.4-0.9-1.9c-0.1-0.5,0.3-2.1,0.3-2.1s-1.4,0.9-1.9,0.9
			c-0.5,0.1-2.1-0.3-2.1-0.3s0.9,1.4,0.9,1.9S-208.9,383.9-208.9,383.9z"/>
		<path d="M-240.9,405.5c0,0,1.5-1.5,2.1-1.7c0.6-0.3,2.7-0.3,2.7-0.3s-1.5-1.5-1.7-2.1c-0.3-0.6-0.3-2.7-0.3-2.7s-1.5,1.5-2.1,1.7
			c-0.7,0.3-2.8,0.4-2.8,0.4s1.5,1.5,1.7,2.1C-241,403.5-240.9,405.5-240.9,405.5z"/>
		<path d="M-189.4,382.6c0,0,2.2,1.1,2.8,1.7c0.5,0.6,1.4,2.9,1.4,2.9s1.1-2.2,1.7-2.8c0.6-0.5,2.9-1.4,2.9-1.4s-2.2-1.1-2.8-1.7
			c-0.5-0.6-1.4-2.9-1.4-2.9s-1.1,2.2-1.7,2.8C-187.1,381.7-189.4,382.6-189.4,382.6z"/>
		<path d="M-211.2,351.8c0,0,3.7,0.4,4.8,1s3.5,3.5,3.5,3.5s0.4-3.7,1-4.8s3.5-3.5,3.5-3.5s-3.7-0.4-4.8-1c-1.1-0.6-3.5-3.5-3.5-3.5
			s-0.4,3.7-1,4.8C-208.4,349.4-211.2,351.8-211.2,351.8z"/>
		<path d="M-251,374.3c0,0,2.8-0.7,3.7-0.6c0.9,0.1,3.4,1.5,3.4,1.5s-0.7-2.8-0.6-3.7c0.1-0.8,1.5-3.3,1.5-3.3s-2.8,0.7-3.7,0.6
			c-0.9-0.2-3.3-1.6-3.3-1.6s0.7,2.8,0.6,3.7C-249.6,371.8-251,374.3-251,374.3z"/>
		<path d="M-214.2,413.4c0,0,2-0.5,2.7-0.3c0.7,0.1,2.4,1.2,2.4,1.2s-0.5-2-0.3-2.7c0.1-0.7,1.2-2.4,1.2-2.4s-2,0.5-2.7,0.3
			c-0.7-0.2-2.5-1.2-2.5-1.2s0.5,2,0.3,2.7C-213.2,411.6-214.2,413.4-214.2,413.4z"/>
	</g>
</g>
</svg>
