<?xml version="1.0" encoding="utf-8"?>
<!-- Generator: Adobe Illustrator 19.1.0, SVG Export Plug-In . SVG Version: 6.00 Build 0)  -->
<svg version="1.1" id="Layer_1" xmlns="http://www.w3.org/2000/svg" xmlns:xlink="http://www.w3.org/1999/xlink" x="0px" y="0px"
	 viewBox="-255.4 346.4 101 101" style="enable-background:new -255.4 346.4 101 101;" xml:space="preserve">
<g id="Layer_1_1_">
</g>
<g id="Layer_2">
	<path d="M-212,346.8c-0.4,0-0.8,0-1.2,0c-3.3,0.2-6.6,1.1-8.4,2.3v15.7c0.6,0,1.2,0,1.9,0c5,0,10,0.7,14.6,2v-18.7
		C-206.6,347.3-209.2,346.8-212,346.8L-212,346.8z M-194.7,348.8c-2.5,0-4.9,0.5-6.4,1.2v16.6v1.6c8.2,3.3,13.8,9.1,12.5,16.8
		l-0.2,1.2l-1.2,0.3c-3.7,1.1-7.4,2.1-11.1,2.8v5.5c5.4-0.1,10.9-0.6,16.5-1.3v-42.3c-1.8-1.2-5-2.2-8.3-2.4
		C-193.6,348.8-194.2,348.7-194.7,348.8L-194.7,348.8z M-229.9,352c-0.2,0-0.5,0-0.8,0c-0.9,0-1.8,0.1-2.7,0.2
		c-3.4,0.6-6.7,1.9-8.6,3.4v15.6c4-3.4,10-5.4,16.5-6.1v-12.4C-226.6,352.3-228.1,352.1-229.9,352z M-174.8,352.8
		c-2.3,0-4.4,0.4-5.8,1v39.1c5.4-0.9,10.7-2,16-3.5l0.4-33.8c-1.8-1.3-5-2.3-8.3-2.7C-173.2,352.8-174,352.8-174.8,352.8
		L-174.8,352.8z M-222.3,368.6c-11.5,0.2-21.6,4.4-20.9,14.2c3.4-0.8,6.6-1.3,9.6-1.3c7.4-0.1,13.7,2.1,18.6,5.9
		c7.4-0.7,14.9-2.1,22.5-4.3C-192.4,374.3-208.3,368.4-222.3,368.6L-222.3,368.6z M-232.7,385.4c-0.3,0-0.6,0-0.8,0
		c-3.7,0.1-7.8,0.9-12.3,2.4c1.2,11.5,5.6,22.7,12.5,30.6c1.3,1.5,2.7,2.9,4.2,4.2c6.2,2,14.8,2.8,23.6,2.6
		c0.8-11.9-1.9-23.1-7.7-30.5C-217.8,389-224.2,385.4-232.7,385.4L-232.7,385.4z M-205.1,390.1c-2,0.4-4,0.6-6,0.9
		c0.3,0.4,0.7,0.8,1,1.1c0.7,0.8,1.3,1.7,1.9,2.6c2.1,0,4.2,0,6.4,0h-3.3V390.1L-205.1,390.1z M-164.2,393.4
		c-14,3.8-28,5.4-41.8,5.4c3.6,7.5,5.1,16.7,4.5,26.2c9.1-0.4,18.1-1.8,25.2-3.4C-170.6,414.6-166.2,405.1-164.2,393.4L-164.2,393.4
		z M-175,425.4c-8.2,2-18.8,3.4-29.2,3.7c-10.2,0.3-20.1-0.5-27.6-3.3v16.8c5.8,2.7,16.3,4.3,27.2,4.3c10.9,0,22.2-1.5,29.7-4.4
		v-17.1H-175z"/>
</g>
</svg>
