<?xml version="1.0" encoding="utf-8"?>
<!-- Generator: Adobe Illustrator 19.1.0, SVG Export Plug-In . SVG Version: 6.00 Build 0)  -->
<svg version="1.1" xmlns="http://www.w3.org/2000/svg" xmlns:xlink="http://www.w3.org/1999/xlink" x="0px" y="0px"
	 viewBox="0 0 100.1 100.2" style="enable-background:new 0 0 100.1 100.2;" xml:space="preserve">
<g id="Layer_1">
</g>
<g id="Layer_2">
	<path d="M43,0c-0.4,0-0.8,0-1.2,0c-3.3,0.2-6.6,1.1-8.4,2.3V18c0.6,0,1.2,0,1.9,0c5,0,10,0.7,14.6,2V1.3C48.4,0.5,45.8,0,43,0L43,0
		z M60.3,2c-2.5,0-4.9,0.5-6.4,1.2v16.6v1.6c8.2,3.3,13.8,9.1,12.5,16.8l-0.2,1.2L65,39.7c-3.7,1.1-7.4,2.1-11.1,2.8V48
		c5.4-0.1,10.9-0.6,16.5-1.3V4.4c-1.8-1.2-5-2.2-8.3-2.4C61.4,2,60.8,1.9,60.3,2L60.3,2z M25.1,5.2c-0.2,0-0.5,0-0.8,0
		c-0.9,0-1.8,0.1-2.7,0.2C18.2,6,14.9,7.3,13,8.8v15.6c4-3.4,10-5.4,16.5-6.1V5.9C28.4,5.5,26.9,5.3,25.1,5.2z M80.2,6
		c-2.3,0-4.4,0.4-5.8,1v39.1c5.4-0.9,10.7-2,16-3.5l0.4-33.8c-1.8-1.3-5-2.3-8.3-2.7C81.8,6,81,6,80.2,6L80.2,6z M32.7,21.8
		C21.2,22,11.1,26.2,11.8,36c3.4-0.8,6.6-1.3,9.6-1.3c7.4-0.1,13.7,2.1,18.6,5.9c7.4-0.7,14.9-2.1,22.5-4.3
		C62.6,27.5,46.7,21.6,32.7,21.8L32.7,21.8z M22.3,38.6c-0.3,0-0.6,0-0.8,0c-3.7,0.1-7.8,0.9-12.3,2.4c1.2,11.5,5.6,22.7,12.5,30.6
		c1.3,1.5,2.7,2.9,4.2,4.2c6.2,2,14.8,2.8,23.6,2.6c0.8-11.9-1.9-23.1-7.7-30.5C37.2,42.2,30.8,38.6,22.3,38.6L22.3,38.6z
		 M49.9,43.3c-2,0.4-4,0.6-6,0.9c0.3,0.4,0.7,0.8,1,1.1c0.7,0.8,1.3,1.7,1.9,2.6c2.1,0,4.2,0,6.4,0h-3.3V43.3L49.9,43.3z M90.8,46.6
		c-14,3.8-28,5.4-41.8,5.4c3.6,7.5,5.1,16.7,4.5,26.2c9.1-0.4,18.1-1.8,25.2-3.4C84.4,67.8,88.8,58.3,90.8,46.6L90.8,46.6z M80,78.6
		c-8.2,2-18.8,3.4-29.2,3.7c-10.2,0.3-20.1-0.5-27.6-3.3v16.8c5.8,2.7,16.3,4.3,27.2,4.3c10.9,0,22.2-1.5,29.7-4.4V78.6L80,78.6z"/>
</g>
</svg>
