<?xml version="1.0" encoding="utf-8"?>
<!-- Generator: Adobe Illustrator 19.1.0, SVG Export Plug-In . SVG Version: 6.00 Build 0)  -->
<svg version="1.1" id="Layer_1" xmlns="http://www.w3.org/2000/svg" xmlns:xlink="http://www.w3.org/1999/xlink" x="0px" y="0px"
	 viewBox="-265.4 357.4 80 80" style="enable-background:new -265.4 357.4 80 80;" xml:space="preserve">
<g id="Layer_1_1_">
</g>
<g id="Layer_2">
	<path d="M-209.8,390c3,0.4,7.1,3,12.7,11.6l3.8,5.7c-2.7-10.3-9.5-24.2-17.3-27.7c6.4-1.1,12.3,2.7,17.4,6.8l-0.3-0.5
		c-3-4.6-5.5-7.7-7.9-9.8s-4.2-4.3-7.7-6.7l-5.3-5l-5.3-6.7v9.8v4.3v5v4.3v34.1c-3.9-3.3-10-5.4-16.8-5.3
		c-11.6,0-21.1,6.1-21.1,13.6s9.4,13.5,21.1,13.5c6,0,11.4-1.6,15.2-4.2l4.3-4.3c1-1.5,1.5-3.2,1.6-4.9c0-0.1,0-0.1,0-0.2v-4.3
		v-30.7L-209.8,390z"/>
</g>
</svg>
