<?xml version="1.0" encoding="utf-8"?>
<!-- Generator: Adobe Illustrator 19.1.0, SVG Export Plug-In . SVG Version: 6.00 Build 0)  -->
<svg version="1.1" xmlns="http://www.w3.org/2000/svg" xmlns:xlink="http://www.w3.org/1999/xlink" x="0px" y="0px"
	 viewBox="0 0 55.4 55.4" style="enable-background:new 0 0 55.4 55.4;" xml:space="preserve">
<style type="text/css">
	.st0{fill:#FFFFFF;}
	.st1{fill:none;}
</style>
<g id="Layer_2">
	<g>
		<polygon points="22.8,46.6 19,50.3 13.5,44.8 3.4,54.9 0,51.5 10.1,41.4 4.6,35.9 8.3,32.1 12.2,36 44.5,2 55.4,0.5 53,10.4 
			18.3,42.1 		"/>
		<polygon points="46.6,32.6 50.3,36.4 44.8,41.9 54.9,52 51.5,55.4 41.4,45.3 35.9,50.8 32.1,47.1 36,43.2 2,10.9 0.5,0 10.4,2.4 
			42.1,37 		"/>
	</g>
	<polygon class="st0" points="28.4,27.7 15.9,38.7 27.1,26.5 48.8,6.4 	"/>
	<path class="st1" d="M55.4,0.5"/>
	<path class="st1" d="M1.8,53.3"/>
	<polygon class="st0" points="26.2,28.3 38.6,39.3 27.4,27.1 5.8,7.1 	"/>
</g>
<g id="Layer_1">
</g>
</svg>
