<?xml version="1.0" encoding="utf-8"?>
<!-- Generator: Adobe Illustrator 19.1.0, SVG Export Plug-In . SVG Version: 6.00 Build 0)  -->
<svg version="1.1" xmlns="http://www.w3.org/2000/svg" xmlns:xlink="http://www.w3.org/1999/xlink" x="0px" y="0px"
	 viewBox="0 0 127.4 127.3" style="enable-background:new 0 0 127.4 127.3;" xml:space="preserve">
<style type="text/css">
	.st0{fill:none;stroke:#000000;stroke-width:6;stroke-miterlimit:10;}
	.st1{stroke:#000000;stroke-width:2;stroke-miterlimit:10;}
</style>
<g id="Layer_1">
	<g>
		<path d="M53.5,126.3c-0.7,0-1.4-0.4-1.8-1.1L19.8,63.6L51.7,2.1c0.5-1,1.7-1.4,2.7-0.9c1,0.5,1.4,1.7,0.9,2.7l-31,59.7l31,59.7
			c0.5,1,0.1,2.2-0.9,2.7C54.1,126.2,53.8,126.3,53.5,126.3z"/>
	</g>
</g>
<g id="Layer_2">
	<g>
		<path d="M53.5,127.3c-0.8,0-1.5-0.3-2.1-0.9c-1.2-1.2-1.2-3.1,0-4.2c32.3-32.3,32.3-84.8,0-117c-1.2-1.2-1.2-3.1,0-4.2
			c1.2-1.2,3.1-1.2,4.2,0c34.6,34.6,34.6,90.9,0,125.5C55,127,54.2,127.3,53.5,127.3z"/>
	</g>
	<g>
		<path class="st0" d="M22,63.6"/>
	</g>
	<g>
		<rect x="19.9" y="62.1" width="91.2" height="3"/>
	</g>
	<g>
		<path d="M104.7,70.4l15.1-6.4l-15.1-7.1c0,0,6.5,4.7,6.4,7.1C111,66.2,104.7,70.4,104.7,70.4z"/>
		<path d="M105,71.3l-0.9-1.8c2.9-1.9,5.9-4.6,6-5.6c0-1.1-3.1-4.1-6-6.2l1-1.7l17.1,8L105,71.3z M110.5,60.7c1,1.1,1.6,2.3,1.6,3.3
			c0,0.9-0.6,1.8-1.4,2.8l6.6-2.8L110.5,60.7z"/>
	</g>
	<g>
		<path class="st1" d="M99.8,63.6"/>
	</g>
	<g>
		<path d="M12.3,70.4L27.4,64l-15.1-7.1c0,0,6.5,4.7,6.4,7.1C18.7,66.2,12.3,70.4,12.3,70.4z"/>
		<path d="M12.7,71.3l-0.9-1.8c2.9-1.9,5.9-4.6,6-5.6c0-1.1-3.1-4.1-6-6.2l1-1.7l17.1,8L12.7,71.3z M18.1,60.7
			c1,1.1,1.6,2.3,1.6,3.3c0,0.9-0.6,1.8-1.4,2.8l6.6-2.8L18.1,60.7z"/>
	</g>
</g>
</svg>
