<?xml version="1.0" encoding="utf-8"?>
<!-- Generator: Adobe Illustrator 19.1.0, SVG Export Plug-In . SVG Version: 6.00 Build 0)  -->
<svg version="1.1" id="Layer_1" xmlns="http://www.w3.org/2000/svg" xmlns:xlink="http://www.w3.org/1999/xlink" x="0px" y="0px"
	 viewBox="-241.3 333.4 128 128" style="enable-background:new -241.3 333.4 128 128;" xml:space="preserve">
<style type="text/css">
	.st0{fill:none;stroke:#000000;stroke-width:6;stroke-miterlimit:10;}
	.st1{stroke:#000000;stroke-width:2;stroke-miterlimit:10;}
</style>
<g id="Layer_1_1_">
	<g>
		<path d="M-187.5,460c-0.7,0-1.4-0.4-1.8-1.1l-31.9-61.6l31.9-61.5c0.5-1,1.7-1.4,2.7-0.9s1.4,1.7,0.9,2.7l-31,59.7l31,59.7
			c0.5,1,0.1,2.2-0.9,2.7C-186.9,459.9-187.2,460-187.5,460z"/>
	</g>
</g>
<g id="Layer_2">
	<g>
		<path d="M-187.5,461c-0.8,0-1.5-0.3-2.1-0.9c-1.2-1.2-1.2-3.1,0-4.2c32.3-32.3,32.3-84.8,0-117c-1.2-1.2-1.2-3.1,0-4.2
			c1.2-1.2,3.1-1.2,4.2,0c34.6,34.6,34.6,90.9,0,125.5C-186,460.7-186.8,461-187.5,461z"/>
	</g>
	<g>
		<path class="st0" d="M-219,397.3"/>
	</g>
	<g>
		<rect x="-221.1" y="395.8" width="91.2" height="3"/>
	</g>
	<g>
		<path d="M-136.3,404.1l15.1-6.4l-15.1-7.1c0,0,6.5,4.7,6.4,7.1C-130,399.9-136.3,404.1-136.3,404.1z"/>
		<path d="M-136,405l-0.9-1.8c2.9-1.9,5.9-4.6,6-5.6c0-1.1-3.1-4.1-6-6.2l1-1.7l17.1,8L-136,405z M-130.5,394.4
			c1,1.1,1.6,2.3,1.6,3.3c0,0.9-0.6,1.8-1.4,2.8l6.6-2.8L-130.5,394.4z"/>
	</g>
	<g>
		<path class="st1" d="M-141.2,397.3"/>
	</g>
	<g>
		<path d="M-228.7,404.1l15.1-6.4l-15.1-7.1c0,0,6.5,4.7,6.4,7.1C-222.3,399.9-228.7,404.1-228.7,404.1z"/>
		<path d="M-228.3,405l-0.9-1.8c2.9-1.9,5.9-4.6,6-5.6c0-1.1-3.1-4.1-6-6.2l1-1.7l17.1,8L-228.3,405z M-222.9,394.4
			c1,1.1,1.6,2.3,1.6,3.3c0,0.9-0.6,1.8-1.4,2.8l6.6-2.8L-222.9,394.4z"/>
	</g>
</g>
</svg>
