<?xml version="1.0" encoding="utf-8"?>
<!-- Generator: Adobe Illustrator 19.1.0, SVG Export Plug-In . SVG Version: 6.00 Build 0)  -->
<svg version="1.1" xmlns="http://www.w3.org/2000/svg" xmlns:xlink="http://www.w3.org/1999/xlink" x="0px" y="0px"
	 viewBox="0 0 51.1 50.8" style="enable-background:new 0 0 51.1 50.8;" xml:space="preserve">
<g id="Layer_2">
	<g id="llClsT_1_">
		<g>
			<path d="M19.6,0.2c0.3-0.1,0.6-0.1,0.9-0.2c0.3,0.1,0.6,0.2,0.9,0.3c2.4,0.7,4.7,1.5,7.1,2.2c5,1.6,10,3.1,15,4.7
				c0.7,0.2,1.2,0.5,1.4,1.3c1.8,7.7,3.6,15.5,5.4,23.2c0.3,1.1,0.1,1.7-0.7,2.5c-5.6,5.3-11.2,10.6-16.8,15.9
				c-0.1,0.1-0.2,0.3-0.4,0.4c-0.4,0.1-0.9,0.2-1.3,0.3c-0.5-0.2-1-0.4-1.5-0.5c-7.4-2.4-14.9-4.8-22.3-7.2c-0.5-0.2-0.9-0.4-1.1-1
				c-1.8-7.8-3.6-15.5-5.4-23.2c-0.2-1,0-1.7,0.7-2.3c4-3.6,7.9-7.2,11.9-10.9C15.5,3.8,17.5,2,19.6,0.2z M10.7,20.9
				c5.9,6.8,12,13.3,18.4,19.5c3.2-8.6,5.7-17.1,8.1-25.9C28.3,16.5,19.4,18.4,10.7,20.9z M36.6,14c-5.5-4-10.9-7.9-16.3-11.9
				C17.2,8,14.1,14,10.9,20C19.6,18,28.1,16,36.6,14z M30.1,40.1c0.1,0,0.1,0,0.1,0c5.9-2.5,11.8-5,17.7-7.5
				c0.3-0.1,0.4-0.3,0.2-0.6c-0.1-0.2-0.2-0.3-0.3-0.4c-2.7-4.4-5.4-8.8-8.1-13.2c-0.6-1-1.2-2-1.9-3.1
				C35.2,23.6,32.7,31.9,30.1,40.1z M10.3,21.7c0,0.2-0.1,0.2-0.1,0.3c-0.7,6.2-1.4,12.4-2.1,18.6c-0.1,0.6,0.1,0.8,0.7,0.7
				c0.9,0,1.8-0.1,2.7-0.1c4.6-0.2,9.2-0.4,13.9-0.6c0.9,0,1.7-0.1,2.8-0.1C22.2,34.2,16.3,28,10.3,21.7z M3,18
				c2,0.6,3.9,1.2,5.7,1.8c0.6,0.2,0.8,0.1,1.1-0.4c2.2-4.3,4.5-8.6,6.8-12.9c0.3-0.5,0.5-1,0.8-1.5c0,0-0.1,0-0.1-0.1
				C12.5,9.3,7.8,13.6,3,18z M31.7,48.2c4.6-4.4,9.2-8.7,13.8-13.1c-0.4,0.1-0.7,0.2-1,0.3c-4.6,2-9.3,3.9-13.9,5.9
				c-0.4,0.2-0.4,0.3-0.3,0.6c0.5,1.9,0.9,3.8,1.3,5.8C31.6,47.8,31.7,48,31.7,48.2z M30.4,48.4c-0.5-2.3-1-4.4-1.5-6.6
				c-5.5,0.2-11.1,0.5-16.6,0.7c0,0,0,0.1,0,0.1C18.3,44.5,24.3,46.4,30.4,48.4z M42.3,9c-6-1.9-12-3.7-17.9-5.6c0,0,0,0.1,0,0.1
				c4.5,3.3,9,6.6,13.5,9.9C39.3,11.9,40.8,10.5,42.3,9z M43.1,10c-0.2,0.2-0.3,0.3-0.4,0.4c-1.2,1.2-2.4,2.4-3.6,3.5
				c-0.3,0.3-0.3,0.5-0.1,0.8c2.2,3.6,4.4,7.2,6.6,10.7c0.5,0.9,1.1,1.7,1.6,2.6c0,0,0,0,0.1,0C45.9,22.1,44.5,16.1,43.1,10z
				 M9.1,21.2c-2-0.6-4-1.2-6-1.9c1.4,5.9,2.7,11.8,4.1,17.6c0,0,0.1,0,0.1,0C7.9,31.7,8.5,26.5,9.1,21.2z"/>
		</g>
	</g>
</g>
<g id="Layer_1">
</g>
</svg>
