<?xml version="1.0" encoding="utf-8"?>
<!-- Generator: Adobe Illustrator 19.1.0, SVG Export Plug-In . SVG Version: 6.00 Build 0)  -->
<svg version="1.1" xmlns="http://www.w3.org/2000/svg" xmlns:xlink="http://www.w3.org/1999/xlink" x="0px" y="0px"
	 viewBox="0 0 86.3 86.2" style="enable-background:new 0 0 86.3 86.2;" xml:space="preserve">
<g id="Layer_1">
</g>
<g id="Layer_2">
	<g>
		<path d="M43.1,76.2C24.9,76.2,10,61.4,10,43.1S24.9,10,43.1,10c18.3,0,33.1,14.9,33.1,33.1S61.4,76.2,43.1,76.2 M43.1,14.6
			c-15.7,0-28.5,12.8-28.5,28.5c0,15.7,12.8,28.5,28.5,28.5c15.7,0,28.5-12.8,28.5-28.5C71.6,27.4,58.8,14.6,43.1,14.6"/>
		<path d="M52.4,43.1c0-5.1-4.1-9.2-9.2-9.2c-5.1,0-9.2,4.1-9.2,9.2s4.1,9.2,9.2,9.2C48.2,52.4,52.4,48.2,52.4,43.1"/>
		<polygon points="49.7,0 45.4,27.7 40.8,27.7 36.6,0 		"/>
		<polygon points="0,36.6 27.7,40.8 27.7,45.4 0,49.7 		"/>
		<polygon points="36.6,86.2 40.8,58.5 45.4,58.5 49.7,86.2 		"/>
		<polygon points="86.3,49.7 58.5,45.4 58.5,40.8 86.3,36.6 		"/>
	</g>
</g>
</svg>
