<?xml version="1.0" encoding="utf-8"?>
<!-- Generator: Adobe Illustrator 19.1.0, SVG Export Plug-In . SVG Version: 6.00 Build 0)  -->
<svg version="1.1" xmlns="http://www.w3.org/2000/svg" xmlns:xlink="http://www.w3.org/1999/xlink" x="0px" y="0px"
	 viewBox="0 0 105.1 105.4" style="enable-background:new 0 0 105.1 105.4;" xml:space="preserve">
<style type="text/css">
	.st0{fill-rule:evenodd;clip-rule:evenodd;stroke:#000000;stroke-width:2;stroke-miterlimit:10;}
</style>
<g id="Layer_1">
</g>
<g id="Layer_2">
	<g>
		<path class="st0" d="M13.6,25.7C15.8,19.2,18.3,13,24.2,9c2-1.3,4.2-2.1,6.6-2.3c15.7-1.4,31.4-2.8,47.1-4.1
			c2.1-0.2,4.3,0,6.2,0.6c4,1.3,6.4,6.3,5.3,10.4c-0.6,2-1.7,3.5-3.8,4.1c-1.8,0.5-3.4,0.2-4.7-1.2c-2-2.1-1.8-5.6,0.5-7.2
			c1.1-0.8,2.3-0.8,3.2,0c0.9,0.8,1.2,2.4,0.6,3.4c-0.5,0.9-1.3,1.1-2.3,0.8c-0.9-0.4-0.9-1.2-0.7-2c0.1-0.3,0.3-0.5,0.3-0.8
			c-1.2,0.5-1.6,1.6-1.1,2.6c0.3,0.7,1.2,1.3,1.9,1.4c1.2,0.2,2.1-0.4,2.6-1.5c0.7-1.6,0.1-4-1.3-5c-1.3-1-3.2-0.7-4.7,0.6
			c-2,1.8-2.5,4-1.7,6.4c0.7,2.3,2.4,3.7,4.8,4.1c2.6,0.4,4.8-0.3,6.3-2.5c1.5-2.1,1.7-4.4,1.3-6.9c0-0.3,0-0.6-0.1-0.9
			c-0.5-1.1-1-2.2-1.4-3.3c-0.1-0.1-0.3-0.1-0.3-0.2c-2.2-3.2-5.3-4.6-9.1-4.4c-6.2,0.3-12.3,0.6-18.5,1C51,2.6,40.7,3.2,30.3,3.7
			C25.5,4,21.7,5.9,18.7,9.5c-4.1,4.9-6.2,10.7-7.7,16.9l-0.7,3.7c-0.7,5.1-1,10.2-0.6,15.3c0.1,1.1,0.3,1.8,1.7,1.7
			c-0.1-1.1-0.2-2.3-0.2-3.5c-0.3-4.7,0.3-9.3,1.4-13.9L13.6,25.7z"/>
		<path class="st0" d="M78.1,37.4"/>
		<path class="st0" d="M77.3,52.9c0.2-0.6,3.7-7.1,7.2-9.4c1.2-0.8,2.4-1.7,3.6-2.6c4.1-2.8,6.2-6.6,6-11.9
			c-2,5.3-6.3,7.9-10.5,10.7c-6.5,4.3-12.8,8.9-18.1,14.7c-6.5,7.1-10.7,15.4-12.4,24.9c-0.1,0.3-0.1,0.6-0.5,0.9
			c-0.4-1.8-0.9-3.5-1.3-5.3c-0.1-0.4,0.1-1,0.4-1.4c1.7-3.2,3.4-6.5,5.2-9.7C62.3,53.4,71,46.3,80.8,40.2c3.3-2,6.3-4.3,9.4-6.6
			c1-0.8,1.8-1.9,2.5-3c-2.2,2.6-5.2,3.8-8.2,5c-5.8,2.3-11.6,4.5-17.4,6.9c-3.2,1.3-6.1,3.3-7.3,6.8c-0.8,2.2-1,4.7-1.4,7
			c-0.1,0.5-0.1,1-0.1,1.5c-0.1,0-0.3,0-0.4,0c-0.2-1.9-0.5-3.8-0.5-5.7c0.1-4.8,2.3-8.2,6.7-10.1c5.1-2.2,10.4-4.1,15.5-6.2
			c2.8-1.1,5.6-2.3,8.3-3.5c3.9-1.7,5.9-4.7,5.6-9.4c0.3,0.5,0.5,0.7,0.6,1c2.3,5.6,1.7,10.9-2.4,15.4c-2.2,2.3-4.8,4.3-7.3,6.3
			c-2.4,1.9-4.8,5.2-5.6,6.8c-0.8,1.7-2,4.2-3.8,6.3c-1.8,2.1-7,4.8-12.3,3.4c3.6-0.4,8.2-1.4,9.9-2.8
			C74.4,57.9,77.1,53.6,77.3,52.9z"/>
		<path class="st0" d="M77.7,100.9c-2.2-1-4-1.7-6.2-1.5c-16.8,1.1-33.6,2.1-50.4,3.2c-3,0.2-5.7-0.1-7.1-3.2
			c-1.5-3.2-1.7-6.4,0.4-9.4c0.2-0.3,0.4-0.5,0.6-0.8c-1.4,0.5-2.8,2.3-3.5,4.2c-1.6,4.3,1.7,11.8,8.4,11.2c9.5-0.8,19-1.4,28.5-2
			c9.2-0.5,18.4-1,27.6-1.4C76.4,101,76.9,100.9,77.7,100.9z"/>
		<path class="st0" d="M76.6,85.2c-17.6,1-35,2-52.5,2.9c0,0.1,0,0.2,0,0.3c1.4,0,2.8,0,4.2,0c14.3-0.1,28.7-0.2,43-0.3
			c1,0,1.8-0.1,2.5-1C74.4,86.3,75.5,85.9,76.6,85.2z"/>
		<path class="st0" d="M73.4,20c2.9,0,5.8-0.1,9-0.1c-3.2-2.8-6.1-0.5-9-0.4C73.4,19.7,73.4,19.8,73.4,20z"/>
		<g>
			<path class="st0" d="M71.2,37.4c-0.1-1.5-0.1-3-0.2-4.4l0.4-8.8c0.7-3.7,1.3-7.4,2.5-10.9c1.6-4.8,3.7-6.7,8.5-8.9
				c-2.4,0-4.2,0.8-5.7,2.2c-3.3,2.8-4.8,6.6-5.8,10.7c-0.5,2.1-0.8,4.2-1.1,6.3l-0.2,11.3c0.1,0.8,0.1,1.7,0.2,2.5H71.2z"/>
			<path class="st0" d="M86.7,84.6c-0.7-2.8-2-5.4-3-8.2L82,73.6c-0.6-1.4-1.1-2.7-1.8-4.1c-0.9-1.8-1.7-3.6-2.6-5.5h-1.5
				c1,2.3,2.1,4.5,3.2,6.8c0.3,0.7,0.6,1.3,0.9,2.1l2,4.3c1.3,3.6,2.8,7.3,2.8,11.2c0,2-0.4,3.9-0.9,5.8c-0.2,1-1,1.9-1.7,2.6
				c-2.2,2.2-5,2-6.8-0.5c-0.8-1.1-1.3-2.6-1.5-3.9c-0.3-2.5,2.1-4.6,4.6-4.5c1.4,0.1,2.3,0.9,2.7,2.2C82,91.4,82,92.8,81,94
				c-0.7,0.7-1.6,0.5-2.3,0c-0.9-0.7-1.3-1.7-0.7-2.7c0.3-0.5,1.3-0.5,2-0.8c-0.2-0.1-0.7-0.6-1.1-0.5c-0.6,0.1-1.3,0.5-1.7,1
				c-0.9,1.2-0.3,3.4,1.2,4.2c1.5,0.8,3.4,0.2,4.1-1.4c1-2.2-0.4-6.1-2.5-7.2c-1.8-1-3.5-0.4-5,0.7c-2.5,1.9-3.2,5.6-1.8,9
				c1.1,2.8,3.9,4.4,7,4.1c0.2,0,0.4,0,0.5,0c0.8-0.3,1.5-0.7,2.3-1C87.7,95.3,88.1,90.1,86.7,84.6z"/>
		</g>
		<path class="st0" d="M11.4,47c0.4,8.6,1.6,13,3.5,21.1c0.7,3,4.5,15.1,4.4,15.7c-0.1,0.4-0.7,1.6-1.1,1.4c-0.6-0.3-2.8-8.6-5-16.7
			C10.5,58,9.8,46.9,9.7,45.4"/>
	</g>
</g>
</svg>
