<?xml version="1.0" encoding="utf-8"?>
<!-- Generator: Adobe Illustrator 19.1.0, SVG Export Plug-In . SVG Version: 6.00 Build 0)  -->
<svg version="1.1" id="Layer_1" xmlns="http://www.w3.org/2000/svg" xmlns:xlink="http://www.w3.org/1999/xlink" x="0px" y="0px"
	 viewBox="-331 -17.9 136.1 135.9" style="enable-background:new -331 -17.9 136.1 135.9;" xml:space="preserve">
<style type="text/css">
	.st0{fill:#FFFFFF;}
</style>
<path class="st0" d="M-277.2,114.4c-0.4,0.5-1.1,1.2-1.7,1.9c-0.7,0.9-1.6,1.1-2.7,0.8c-0.4-0.1-0.7-0.1-1.1-0.2
	c-2.2-0.9-4.2-0.6-6.1,0.9c-0.4,0.3-1,0.3-1.5,0.2c-2.6-0.4-5-1-6.5-3.5c-0.1-0.2-0.7-0.3-1-0.2c-1.2,0.3-2.5,0.7-3.6,1.2
	c-3.4,1.4-6.8,1.3-10.3,0.9c-0.3,0-0.8-0.1-1-0.3c-1.9-1.8-3.7-3.7-5.4-5.8c1.8,0.5,3.5,1,5.3,1.5c0.1-0.1,0.1-0.2,0.2-0.3
	c-2-2.1-4-4.3-6-6.4c0.1-0.1,0.1-0.2,0.2-0.3c1.4,0.7,2.9,1.3,4.6,2.2c-1.4-3.4-2.6-6.5-3.8-9.6c0.1-0.1,0.2-0.1,0.4-0.2
	c2.1,1.6,4.3,3.2,6.5,4.8c0-18.7,0-37.3,0-55.9c1.8-0.3,3.7-0.6,5.6-0.9c0-0.1,0-0.2,0.1-0.3c-1.4-0.5-2.8-1-4.2-1.4
	c-0.9-0.3-1.2-0.7-1.2-1.6c0-6.6,0-13.3,0.1-19.9c0-1,0.4-2.2,1-3c1.3-1.9,1.5-3.9,0.7-5.9c-0.5-1.3-0.1-2.1,1.1-2.7
	c1.9-1,3.8-2,6.3-1.4c-0.6-1.6-1.1-3.1-1.8-4.4c-0.9-1.6-0.6-2.7,0.6-4.1c5.2-6.4,11.2-11.5,18.8-14.6c5-2,10.3-3.1,15.7-3.5
	c7.2-0.6,14.4-0.3,21.6,1c10.3,1.9,17.9,7.7,23.3,16.4c0.7,1.1,0.8,2.7,1,4c0.2,1.2,0.5,2.2,1.5,2.9c1.5,1.1,2.3,2.6,2.7,4.4
	c0.2,1.1,0.6,2.1,1,3.1c1.4,3.6,1.8,7.3,1.7,11.2c-0.2,7-0.1,14,0,21c0,2-0.2,3.9-1.5,5.5c-0.6,0.8-0.6,1.5,0.1,2.2
	c1.6,1.6,1.9,3.6,1.9,5.8c-0.1,10.2,0,20.4-0.1,30.5c0,0.7-0.1,1.5,0.9,1.7c0.2,0.1,0.5,0.6,0.5,0.9c0.1,0.7,0.1,1.5,0,2.2
	c-0.6,2.8,1,4.6,3.2,6.3c0-2.9,0-5.8,0-8.6c0.1,0,0.2,0,0.3,0c0.4,2.4,0.8,4.8,1.3,7.2c0.3,1.7,0.7,3.4,1,5.1c0.1,0.4,0.1,1-0.2,1.2
	c-2.5,2.3-3.3,5.5-4.5,8.6c-0.9,2.3-4.8,3.2-6.7,1.6c-1.3-1.2-2.6-2.3-4-3.6c-0.3,0.2-0.6,0.3-0.8,0.5c-1.8,2-3.8,2-6.1,0.9
	c-1-0.5-2.2-0.6-3.2-1.1c-2.8-1.3-5.3-0.5-7.7,1.1c-0.7,0.5-1.3,0.5-2.1,0.3c-2.8-1-5.7-1.8-8.5-2.8c-1-0.4-1.8-0.3-2.6,0.4
	c-0.4,0.3-0.9,0.5-1.2,0.9c-1.8,1.8-3.7,2-5.9,0.8c-2-1.1-3.6-0.9-5.1,0.9c-1.9,2.3-4.3,2.5-6.9,1.5
	C-274.2,115.9-275.5,115.2-277.2,114.4z M-256.5-14c-1.2-0.1-1.8-0.3-2.5-0.2c-4.3,0.2-8.7,0.3-13,0.8c-11.8,1.4-21.2,7.1-28.4,16.5
	c-0.5,0.7-0.7,1.3-0.4,2.1c0.6,2.2,1,4.5,1.6,7c-2.4-0.6-4.2,0.3-6,1.1c-1.2,0.5-1.8,1.1-1.3,2.6c0.7,1.9,0.9,3.9-0.7,5.6
	c-1,1.2-1.1,2.6-1.1,4.1c0.1,4.8,0,9.6,0,14.5c0,1,0.3,1.6,1.1,2.1c1.7,1.1,3.4,2.2,5.2,3.5c-2.2,0.8-4,1.5-5.9,2.1
	c-0.9,0.3-1.2,0.7-1.1,1.7c0.1,5.6,0.3,11.2,0.3,16.8c0,12.4,0,24.7,0,37.1c0,2.3,0,4.7,0,7.1c1,0,1.8-0.1,2.5,0
	c1.2,0.2,1.9-0.3,2.5-1.4c0.6-1.3,1.5-2.5,2.2-3.8c0.1,0,0.2,0.1,0.3,0.1c-0.1,1.2-0.3,2.4-0.4,3.7c0.1,0,0.1,0,0.2,0.1
	c0.7-2,1.4-4,2.1-6c0.1,1.8-0.1,3.6-0.3,5.3c-0.2,2-0.2,2.2,1.7,2.8c5.2,1.7,10.3,0.7,15.4-0.9c0.3-0.1,0.5-0.7,0.6-1.1
	c0.3-2,0.6-4,0.8-5.9c0.6,2.1,0.9,4.2,1.1,6.3c0.1,0.9,0.4,1.3,1.3,1.3c6.9,0.1,13.8,0.4,20.7,0.5c1.4,0,2.8-0.1,4.2-0.3
	c3.8-0.5,4.6-1.2,5.3-4.9c0.2-1,0.4-2.1,0.6-3.1c0.4,1.7,0.7,3.3,0.8,5c0.1,0.9,0.4,1.5,1.2,1.7c4.9,1.5,9.8,1.9,14.6-0.1
	c0.3-0.1,0.7-0.7,0.7-1.1c0.1-1.3,0-2.6,0-3.9c0.1,0,0.2,0,0.2,0c0.5,1.7,1.1,3.5,1.6,5.2c2-1.9-0.1-3.8,0.3-5.8c1,1.6,2,3,3,4.6
	c0.2-0.4,0.2-0.4,0.2-0.5c0-5.7,0-11.5,0-17.2c0-0.3-0.2-0.7-0.3-1c-0.2-0.6-0.7-1.1-0.7-1.7c0-9.7-0.1-19.5,0-29.2
	c0-2-0.2-3.7-1.6-5.1c-0.7-0.7-0.7-1.5-0.1-2.3c1.2-1.4,1.4-3.1,1.4-4.9c-0.1-5.3-0.2-10.6,0-16c0.3-6.3-0.4-12.4-2.7-18.3
	c-0.5-1.2-0.9-2.4-1.9-3.2c-1.4-1-1.8-2.4-2-4c-0.2-1.2-0.4-2.5-1.1-3.4c-2-2.7-4.4-5.2-6.5-7.9c-3-3.9-7-6.2-11.8-7.4 M-242.9-11.9
	c0.4,0.5,0.8,0.9,1.3,1.4c4.1,4.5,8.1,9,12.2,13.5c0.5,0.6,0.9,1.3,1.1,2c1.7,5,3.3,10,4.9,15c0.3,1,0.5,2,0.5,3.1
	c0,8.5,0,17,0.1,25.5c0,1.7-0.2,3.3-1.3,4.5c-1,1.2-0.8,2.1,0.2,3.1c0.8,0.8,1.6,1.6,1.6,3c-0.1,14.6,0,29.3,0,43.9
	c0,3.2,0.7,3.6,3.5,2.5c1.2-0.4,1.5-1.1,1.5-2.3c0-14-0.1-28,0-42c0-2.2-0.2-4.2-2-5.8c-0.7-0.6-0.7-1.3-0.1-2
	c1.3-1.6,1.6-3.4,1.6-5.4c-0.1-8.5,0-17,0-25.5c0-0.6,0.1-1.2-0.1-1.8c-1.8-5.2-3.1-10.6-5.9-15.5c-2.6-4.6-5.6-9-9.6-12.5
	C-236.4-9.4-239.3-11.2-242.9-11.9z"/>
<path class="st0" d="M-268.9,112.5L-268.9,112.5c0.5-1,0.9-1.9,1.3-2.7c1.2-2.5,1.6-2.8,2.7-5.4c1.8-4.4,4.4-8.3,7.1-12.1
	c1.3-1.9,2.5-3.9,3.5-6c0.6-1.2,0.6-2.6,1-3.8c0.7-2.5,1.3-4.9,2.1-7.4c0.9-2.7,0.8-5.5,1.1-8.2c0.2-2.2,0-4.4,0.7-6.5
	c1.1-3.6,0.2-6.9-1.1-10.2c-0.4-1-0.3-2,0.2-2.9c0.6-1.2,0.9-2.5,1.2-3.8c0.3-1.6,1.4-3.2,2.3-4.6c1.7-2.7,3.7-5.1,6-7.2
	c0.6-0.6,1.2-1.2,1.6-1.9c0.4-0.6,0.7-1.5,0.5-2.2c-0.5-2,0-3.9,0.7-5.7c0.2-0.6,0.4-1.1,0.7-1.6c0.8-1.5,0.8-3,0.3-4.7
	c-0.9-2.9-2.6-5.4-4.1-8c-1.5,0.6-3.1,0.7-4,2.3c-0.9,1.5-1.5,3.2-0.9,5.1c0.5,1.5,0.1,2.7-0.6,4c-1.4,2.3-2.7,4.5-4.1,6.8
	c-0.2,0.4-0.5,0.7-0.8,1.1c0.2-0.6,0.4-1.2,0.6-1.9c0.5-1.9,0.5-3.7-0.2-5.6c-0.8-2.1-1.5-4.3-2.3-6.4c-0.6-1.6-3.2-3-4.9-3.2
	c-1.8-0.2-3.6-0.7-5.4-1.2c-0.8-0.2-1.4-0.2-2,0.3c-1.7,1.3-2.1,3.5-0.6,5c1,1.1,2.4,1.9,3.6,2.8c0.4,0.3,0.8,0.7,0.9,1.1
	c0.6,1.4,1,2.8,1.5,4.2c0.1,0.3,0.1,0.8,0,1.1c-0.8,2.5-1.8,5.1-2.6,7.6c-0.5,1.4-1.3,2.5-2.7,3.2c-1.5,0.8-2.8,0.1-2.9-1.5
	c-0.3-3.2-1.8-5.8-4-8c-1.8-1.8-3.9-3.4-5.8-5.1c-1.3-1.1-2.8-1-4.2-0.1c-1,0.7-1.9,1.4-2.8,2.1c-1,0.9-1.3,2.8-0.6,4.4l0,0l0,0
	c0,0,0,0.1,0.1,0.1c0,0,0,0.1,0.1,0.1l0,0l0,0l0,0l0,0c0.2,0.4,0.3,0.7,0.6,0.9c0.6,0.3,1.4,0.5,2.1,0.6c1.3,0.1,2.3,0.6,3.2,1.5
	c0.5,0.5,1,1,1.5,1.6c0.1,0.3,0.1,0.5,0.2,0.8c0.3,0.7,0.6,1.4,0.9,2.1c1.6,2.6,0.8,5-0.6,7.4c-0.5,0.8-1.1,1.2-2.1,1.1
	c-3-0.2-5.6-1.4-7.8-3.4c-0.3-0.3-0.6-0.7-0.8-1.1c-0.6-1.3-1.7-2.2-2.9-2.9c-2.8-1.7-5.7,1.2-5.7,3.5c0.1,1.8,0.8,3.1,2.2,4.1
	c2.3,1.7,4.7,3.3,7.1,4.8c1.5,1,2.4,2.3,3,4c1.1,3.5,1.6,7,1.4,10.6c-0.2,5.3,0.7,10.4,2,15.4c0.4,1.8,0.7,3.6,0.5,5.4
	c-0.6,4.4-1.5,8.8-4.8,12.2c-1.2,1.3-2.3,2.7-3.5,4.1c-0.4,0.4-0.4,0.5-0.8,1c-0.4,0.6-0.4,0.5-0.7,1.1c-0.3,0.6-0.4,1.1-0.3,1.7
	c0.1,1-2.7,9.6-3.3,10.3l23.4-0.5 M-284.8,26.7L-284.8,26.7L-284.8,26.7z M-284.5,26.8C-284.5,26.8-284.5,26.7-284.5,26.8
	C-284.5,26.7-284.5,26.8-284.5,26.8z M-284.3,26.8L-284.3,26.8L-284.3,26.8z M-285,26.6L-285,26.6L-285,26.6z M-285.5,26.1
	L-285.5,26.1L-285.5,26.1z M-285.2,26.4C-285.2,26.5-285.2,26.5-285.2,26.4C-285.2,26.5-285.2,26.5-285.2,26.4z M-285.4,26.3
	L-285.4,26.3L-285.4,26.3z M-285.8,25.1c0,0.2,0,0.4,0,0.5C-285.8,25.4-285.8,25.3-285.8,25.1z M-285.9,24.8c0,0.1,0,0.1,0,0.2
	C-285.8,25-285.8,24.9-285.9,24.8z"/>
</svg>
